{
.appVersion = "99";
DisplayStrings = (
"^<"
);
date = "2019-12-30 10:48:09 +0000";
designer = "Dakota Felder";
designerURL = www.dakotafelder.com;
familyName = "Open Cherry";
featurePrefixes = (
{
automatic = 1;
code = "languagesystem DFLT dflt;\012";
name = Languagesystems;
}
);
fontMaster = (
{
alignmentZones = (
"{800, 16}",
"{700, 21}",
"{500, 13}",
"{0, -15}",
"{-200, -15}"
);
ascender = 800;
capHeight = 700;
descender = -200;
id = "321F49B6-0EE7-433E-A02E-D3810DADA826";
userData = {
GSCornerRadius = 20;
};
weightValue = 0;
widthValue = 0;
xHeight = 500;
}
);
glyphs = (
{
glyphname = A;
lastChange = "2020-01-01 07:25:06 +0000";
layers = (
{
layerId = "321F49B6-0EE7-433E-A02E-D3810DADA826";
paths = (
{
closed = 1;
nodes = (
"353 559 OFFCURVE",
"396 592 OFFCURVE",
"396 632 CURVE SMOOTH",
"396 673 OFFCURVE",
"353 706 OFFCURVE",
"300 706 CURVE SMOOTH",
"247 706 OFFCURVE",
"204 673 OFFCURVE",
"204 632 CURVE SMOOTH",
"204 592 OFFCURVE",
"247 559 OFFCURVE",
"300 559 CURVE SMOOTH"
);
},
{
closed = 1;
nodes = (
"100 -5 OFFCURVE",
"127 22 OFFCURVE",
"127 55 CURVE SMOOTH",
"127 88 OFFCURVE",
"100 115 OFFCURVE",
"67 115 CURVE SMOOTH",
"34 115 OFFCURVE",
"7 88 OFFCURVE",
"7 55 CURVE SMOOTH",
"7 22 OFFCURVE",
"34 -5 OFFCURVE",
"67 -5 CURVE SMOOTH"
);
},
{
closed = 1;
nodes = (
"353 559 OFFCURVE",
"396 592 OFFCURVE",
"396 632 CURVE SMOOTH",
"396 673 OFFCURVE",
"353 706 OFFCURVE",
"300 706 CURVE SMOOTH",
"247 706 OFFCURVE",
"204 673 OFFCURVE",
"204 632 CURVE SMOOTH",
"204 592 OFFCURVE",
"247 559 OFFCURVE",
"300 559 CURVE SMOOTH"
);
},
{
closed = 1;
nodes = (
"566 -5 OFFCURVE",
"593 22 OFFCURVE",
"593 55 CURVE SMOOTH",
"593 88 OFFCURVE",
"566 115 OFFCURVE",
"533 115 CURVE SMOOTH",
"500 115 OFFCURVE",
"473 88 OFFCURVE",
"473 55 CURVE SMOOTH",
"473 22 OFFCURVE",
"500 -5 OFFCURVE",
"533 -5 CURVE SMOOTH"
);
},
{
closed = 1;
nodes = (
"125 40 LINE",
"175 200 LINE SMOOTH",
"179 214 OFFCURVE",
"190 221 OFFCURVE",
"204 221 CURVE SMOOTH",
"396 221 LINE SMOOTH",
"410 221 OFFCURVE",
"421 214 OFFCURVE",
"425 200 CURVE SMOOTH",
"475 40 LINE",
"588 79 LINE",
"393 650 LINE",
"300 635 LINE",
"207 650 LINE",
"12 79 LINE"
);
},
{
closed = 1;
nodes = (
"276 516 LINE SMOOTH",
"280 530 OFFCURVE",
"289 537 OFFCURVE",
"300 537 CURVE SMOOTH",
"311 537 OFFCURVE",
"320 530 OFFCURVE",
"324 516 CURVE SMOOTH",
"376 353 LINE SMOOTH",
"381 336 OFFCURVE",
"373 325 OFFCURVE",
"355 325 CURVE SMOOTH",
"245 325 LINE SMOOTH",
"227 325 OFFCURVE",
"219 336 OFFCURVE",
"224 353 CURVE SMOOTH"
);
}
);
width = 600;
}
);
unicode = 0041;
},
{
glyphname = B;
lastChange = "2020-01-05 10:26:03 +0000";
layers = (
{
layerId = "321F49B6-0EE7-433E-A02E-D3810DADA826";
paths = (
{
closed = 1;
nodes = (
"226 292 LINE SMOOTH",
"226 305 OFFCURVE",
"235 313 OFFCURVE",
"251 313 CURVE SMOOTH",
"377 313 LINE SMOOTH",
"443 313 OFFCURVE",
"496 268 OFFCURVE",
"496 212 CURVE SMOOTH",
"496 155 OFFCURVE",
"443 111 OFFCURVE",
"377 111 CURVE SMOOTH",
"251 111 LINE SMOOTH",
"235 111 OFFCURVE",
"226 119 OFFCURVE",
"226 132 CURVE SMOOTH"
);
},
{
closed = 1;
nodes = (
"226 569 LINE SMOOTH",
"226 580 OFFCURVE",
"234 588 OFFCURVE",
"248 588 CURVE SMOOTH",
"362 588 LINE SMOOTH",
"421 588 OFFCURVE",
"469 547 OFFCURVE",
"469 497 CURVE SMOOTH",
"469 446 OFFCURVE",
"421 406 OFFCURVE",
"362 406 CURVE SMOOTH",
"248 406 LINE SMOOTH",
"234 406 OFFCURVE",
"226 413 OFFCURVE",
"226 425 CURVE SMOOTH"
);
},
{
closed = 1;
nodes = (
"187 547 OFFCURVE",
"220 580 OFFCURVE",
"220 621 CURVE SMOOTH",
"220 661 OFFCURVE",
"187 694 OFFCURVE",
"147 694 CURVE SMOOTH",
"106 694 OFFCURVE",
"73 661 OFFCURVE",
"73 621 CURVE SMOOTH",
"73 580 OFFCURVE",
"106 547 OFFCURVE",
"147 547 CURVE SMOOTH"
);
},
{
closed = 1;
nodes = (
"187 4 OFFCURVE",
"220 37 OFFCURVE",
"220 78 CURVE SMOOTH",
"220 118 OFFCURVE",
"187 151 OFFCURVE",
"147 151 CURVE SMOOTH",
"106 151 OFFCURVE",
"73 118 OFFCURVE",
"73 78 CURVE SMOOTH",
"73 37 OFFCURVE",
"106 4 OFFCURVE",
"147 4 CURVE SMOOTH"
);
},
{
closed = 1;
nodes = (
"147 78 LINE",
"147 4 LINE",
"446 4 LINE SMOOTH",
"554 4 OFFCURVE",
"642 91 OFFCURVE",
"642 199 CURVE SMOOTH",
"642 268 OFFCURVE",
"606 329 OFFCURVE",
"553 363 CURVE SMOOTH",
"538 373 OFFCURVE",
"537 382 OFFCURVE",
"551 393 CURVE SMOOTH",
"588 424 OFFCURVE",
"612 471 OFFCURVE",
"612 523 CURVE SMOOTH",
"612 617 OFFCURVE",
"534 694 OFFCURVE",
"441 694 CURVE SMOOTH",
"147 694 LINE",
"147 621 LINE",
"73 621 LINE",
"73 78 LINE"
);
}
);
width = 692;
}
);
leftKerningGroup = H;
leftMetricsKey = H;
unicode = 0042;
},
{
glyphname = C;
lastChange = "2020-01-05 10:04:47 +0000";
layers = (
{
backgroundImage = {
crop = "{{0, 0}, {254, 288}}";
imagePath = images/CHERRY_DS_C.jpg;
locked = "1";
transform = "{2.67084, 0, 0, 2.67084, -11, -32}";
};
layerId = "321F49B6-0EE7-433E-A02E-D3810DADA826";
paths = (
{
closed = 1;
nodes = (
"37 161 OFFCURVE",
"178 0 OFFCURVE",
"352 0 CURVE SMOOTH",
"460 0 OFFCURVE",
"556 63 OFFCURVE",
"613 159 CURVE",
"486 207 LINE",
"453 158 OFFCURVE",
"405 127 OFFCURVE",
"352 127 CURVE SMOOTH",
"253 127 OFFCURVE",
"173 231 OFFCURVE",
"173 360 CURVE SMOOTH",
"173 488 OFFCURVE",
"253 593 OFFCURVE",
"352 593 CURVE SMOOTH",
"410 593 OFFCURVE",
"462 556 OFFCURVE",
"495 499 CURVE",
"619 549 LINE",
"564 651 OFFCURVE",
"465 720 OFFCURVE",
"352 720 CURVE SMOOTH",
"177 720 OFFCURVE",
"37 558 OFFCURVE",
"37 360 CURVE SMOOTH"
);
},
{
closed = 1;
nodes = (
"616 477 OFFCURVE",
"637 515 OFFCURVE",
"619 549 CURVE SMOOTH",
"602 581 OFFCURVE",
"568 599 OFFCURVE",
"534 586 CURVE SMOOTH",
"500 573 OFFCURVE",
"477 530 OFFCURVE",
"495 499 CURVE SMOOTH",
"514 466 OFFCURVE",
"550 449 OFFCURVE",
"583 463 CURVE SMOOTH"
);
},
{
closed = 1;
nodes = (
"631 188 OFFCURVE",
"615 227 OFFCURVE",
"579 242 CURVE SMOOTH",
"546 256 OFFCURVE",
"508 238 OFFCURVE",
"486 207 CURVE SMOOTH",
"465 177 OFFCURVE",
"489 144 OFFCURVE",
"522 131 CURVE SMOOTH",
"557 117 OFFCURVE",
"594 128 OFFCURVE",
"613 159 CURVE SMOOTH"
);
}
);
width = 646;
}
);
leftMetricsKey = O;
unicode = 0043;
},
{
glyphname = D;
lastChange = "2020-01-05 10:26:03 +0000";
layers = (
{
backgroundImage = {
crop = "{{0, 0}, {234, 273}}";
imagePath = images/CHERRY_DS_D.jpg;
locked = "1";
transform = "{2.8017, 0, 0, 2.8017, 39, -22}";
};
layerId = "321F49B6-0EE7-433E-A02E-D3810DADA826";
paths = (
{
closed = 1;
nodes = (
"73 265 LINE",
"218 265 LINE",
"218 653 LINE",
"73 653 LINE"
);
},
{
closed = 1;
nodes = (
"185 581 OFFCURVE",
"218 613 OFFCURVE",
"218 653 CURVE SMOOTH",
"218 693 OFFCURVE",
"185 726 OFFCURVE",
"145 726 CURVE SMOOTH",
"105 726 OFFCURVE",
"73 693 OFFCURVE",
"73 653 CURVE SMOOTH",
"73 613 OFFCURVE",
"105 581 OFFCURVE",
"145 581 CURVE SMOOTH"
);
},
{
closed = 1;
nodes = (
"218 73 LINE",
"218 461 LINE",
"73 461 LINE",
"73 73 LINE"
);
},
{
closed = 1;
nodes = (
"105 145 OFFCURVE",
"73 112 OFFCURVE",
"73 73 CURVE SMOOTH",
"73 33 OFFCURVE",
"105 0 OFFCURVE",
"145 0 CURVE SMOOTH",
"185 0 OFFCURVE",
"218 33 OFFCURVE",
"218 73 CURVE SMOOTH",
"218 113 OFFCURVE",
"185 145 OFFCURVE",
"145 145 CURVE SMOOTH"
);
},
{
closed = 1;
nodes = (
"524 0 OFFCURVE",
"666 164 OFFCURVE",
"666 357 CURVE SMOOTH",
"666 549 OFFCURVE",
"525 726 OFFCURVE",
"349 726 CURVE SMOOTH",
"145 726 LINE",
"145 0 LINE",
"349 0 LINE SMOOTH"
);
},
{
closed = 1;
nodes = (
"243 119 LINE SMOOTH",
"227 119 OFFCURVE",
"218 128 OFFCURVE",
"218 144 CURVE SMOOTH",
"218 565 LINE SMOOTH",
"218 581 OFFCURVE",
"227 590 OFFCURVE",
"243 590 CURVE SMOOTH",
"326 590 LINE SMOOTH",
"440 590 OFFCURVE",
"531 475 OFFCURVE",
"531 350 CURVE SMOOTH",
"531 224 OFFCURVE",
"440 119 OFFCURVE",
"326 119 CURVE SMOOTH"
);
}
);
width = 703;
}
);
leftKerningGroup = H;
leftMetricsKey = H;
rightMetricsKey = O;
unicode = 0044;
},
{
glyphname = E;
lastChange = "2020-01-05 10:26:03 +0000";
layers = (
{
backgroundImage = {
crop = "{{0, 0}, {213, 289}}";
imagePath = images/CHERRY_DS_E.jpg;
locked = "1";
transform = "{2.73646, 0, 0, 2.73646, 46, -38}";
};
layerId = "321F49B6-0EE7-433E-A02E-D3810DADA826";
paths = (
{
closed = 1;
nodes = (
"185 581 OFFCURVE",
"218 613 OFFCURVE",
"218 653 CURVE SMOOTH",
"218 693 OFFCURVE",
"185 726 OFFCURVE",
"145 726 CURVE SMOOTH",
"105 726 OFFCURVE",
"73 693 OFFCURVE",
"73 653 CURVE SMOOTH",
"73 613 OFFCURVE",
"105 581 OFFCURVE",
"145 581 CURVE SMOOTH"
);
},
{
closed = 1;
nodes = (
"105 145 OFFCURVE",
"73 113 OFFCURVE",
"73 73 CURVE SMOOTH",
"73 33 OFFCURVE",
"105 0 OFFCURVE",
"145 0 CURVE SMOOTH",
"185 0 OFFCURVE",
"218 33 OFFCURVE",
"218 73 CURVE SMOOTH",
"218 113 OFFCURVE",
"185 145 OFFCURVE",
"145 145 CURVE SMOOTH"
);
},
{
closed = 1;
nodes = (
"553 597 OFFCURVE",
"582 626 OFFCURVE",
"582 662 CURVE SMOOTH",
"582 697 OFFCURVE",
"553 726 OFFCURVE",
"518 726 CURVE SMOOTH",
"482 726 OFFCURVE",
"453 697 OFFCURVE",
"453 662 CURVE SMOOTH",
"453 626 OFFCURVE",
"482 597 OFFCURVE",
"518 597 CURVE SMOOTH"
);
},
{
closed = 1;
nodes = (
"483 318 OFFCURVE",
"512 347 OFFCURVE",
"512 383 CURVE SMOOTH",
"512 418 OFFCURVE",
"483 447 OFFCURVE",
"448 447 CURVE SMOOTH",
"412 447 OFFCURVE",
"383 418 OFFCURVE",
"383 383 CURVE SMOOTH",
"383 347 OFFCURVE",
"412 318 OFFCURVE",
"448 318 CURVE SMOOTH"
);
},
{
closed = 1;
nodes = (
"482 129 OFFCURVE",
"453 100 OFFCURVE",
"453 64 CURVE SMOOTH",
"453 29 OFFCURVE",
"482 0 OFFCURVE",
"518 0 CURVE SMOOTH",
"553 0 OFFCURVE",
"582 29 OFFCURVE",
"582 64 CURVE SMOOTH",
"582 100 OFFCURVE",
"553 129 OFFCURVE",
"518 129 CURVE SMOOTH"
);
},
{
closed = 1;
nodes = (
"145 73 LINE",
"145 0 LINE",
"518 0 LINE",
"518 129 LINE",
"243 129 LINE SMOOTH",
"227 129 OFFCURVE",
"218 138 OFFCURVE",
"218 154 CURVE SMOOTH",
"218 293 LINE SMOOTH",
"218 309 OFFCURVE",
"227 318 OFFCURVE",
"243 318 CURVE SMOOTH",
"448 318 LINE",
"448 447 LINE",
"243 447 LINE SMOOTH",
"227 447 OFFCURVE",
"218 456 OFFCURVE",
"218 472 CURVE SMOOTH",
"218 572 LINE SMOOTH",
"218 588 OFFCURVE",
"227 597 OFFCURVE",
"243 597 CURVE SMOOTH",
"518 597 LINE",
"518 726 LINE",
"145 726 LINE",
"145 653 LINE",
"73 653 LINE",
"73 73 LINE"
);
}
);
width = 627;
}
);
leftKerningGroup = H;
leftMetricsKey = H;
unicode = 0045;
},
{
glyphname = F;
lastChange = "2020-01-05 10:26:03 +0000";
layers = (
{
backgroundImage = {
crop = "{{0, 0}, {195, 268}}";
imagePath = images/CHERRY_DS_F.jpg;
locked = "1";
transform = "{2.85801, 0, 0, 2.85801, 35, -22}";
};
layerId = "321F49B6-0EE7-433E-A02E-D3810DADA826";
paths = (
{
closed = 1;
nodes = (
"185 581 OFFCURVE",
"218 613 OFFCURVE",
"218 653 CURVE SMOOTH",
"218 693 OFFCURVE",
"185 726 OFFCURVE",
"145 726 CURVE SMOOTH",
"105 726 OFFCURVE",
"73 693 OFFCURVE",
"73 653 CURVE SMOOTH",
"73 613 OFFCURVE",
"105 581 OFFCURVE",
"145 581 CURVE SMOOTH"
);
},
{
closed = 1;
nodes = (
"105 145 OFFCURVE",
"73 113 OFFCURVE",
"73 73 CURVE SMOOTH",
"73 33 OFFCURVE",
"105 0 OFFCURVE",
"145 0 CURVE SMOOTH",
"185 0 OFFCURVE",
"218 33 OFFCURVE",
"218 73 CURVE SMOOTH",
"218 113 OFFCURVE",
"185 145 OFFCURVE",
"145 145 CURVE SMOOTH"
);
},
{
closed = 1;
nodes = (
"553 597 OFFCURVE",
"582 626 OFFCURVE",
"582 662 CURVE SMOOTH",
"582 697 OFFCURVE",
"553 726 OFFCURVE",
"518 726 CURVE SMOOTH",
"482 726 OFFCURVE",
"453 697 OFFCURVE",
"453 662 CURVE SMOOTH",
"453 626 OFFCURVE",
"482 597 OFFCURVE",
"518 597 CURVE SMOOTH"
);
},
{
closed = 1;
nodes = (
"483 318 OFFCURVE",
"512 347 OFFCURVE",
"512 383 CURVE SMOOTH",
"512 418 OFFCURVE",
"483 447 OFFCURVE",
"448 447 CURVE SMOOTH",
"412 447 OFFCURVE",
"383 418 OFFCURVE",
"383 383 CURVE SMOOTH",
"383 347 OFFCURVE",
"412 318 OFFCURVE",
"448 318 CURVE SMOOTH"
);
},
{
closed = 1;
nodes = (
"218 73 LINE",
"218 293 LINE SMOOTH",
"218 309 OFFCURVE",
"227 318 OFFCURVE",
"243 318 CURVE SMOOTH",
"448 318 LINE",
"448 447 LINE",
"243 447 LINE SMOOTH",
"227 447 OFFCURVE",
"218 456 OFFCURVE",
"218 472 CURVE SMOOTH",
"218 572 LINE SMOOTH",
"218 588 OFFCURVE",
"227 597 OFFCURVE",
"243 597 CURVE SMOOTH",
"518 597 LINE",
"518 726 LINE",
"144 726 LINE",
"144 653 LINE",
"73 653 LINE",
"73 73 LINE"
);
}
);
width = 612;
}
);
leftKerningGroup = H;
leftMetricsKey = H;
unicode = 0046;
},
{
glyphname = G;
lastChange = "2020-01-05 10:05:17 +0000";
layers = (
{
backgroundImage = {
crop = "{{0, 0}, {249, 285}}";
imagePath = images/CHERRY_DS_G.jpg;
transform = "{2.74317, 0, 0, 2.74317, 12, -34}";
};
layerId = "321F49B6-0EE7-433E-A02E-D3810DADA826";
paths = (
{
closed = 1;
nodes = (
"619 471 OFFCURVE",
"634 520 OFFCURVE",
"616 554 CURVE SMOOTH",
"599 586 OFFCURVE",
"571 593 OFFCURVE",
"537 580 CURVE SMOOTH",
"503 567 OFFCURVE",
"480 524 OFFCURVE",
"498 493 CURVE SMOOTH",
"517 460 OFFCURVE",
"553 443 OFFCURVE",
"586 457 CURVE SMOOTH"
);
},
{
closed = 1;
nodes = (
"457 261 OFFCURVE",
"480 284 OFFCURVE",
"480 314 CURVE SMOOTH",
"480 343 OFFCURVE",
"457 366 OFFCURVE",
"428 366 CURVE SMOOTH",
"398 366 OFFCURVE",
"375 343 OFFCURVE",
"375 314 CURVE SMOOTH",
"375 284 OFFCURVE",
"398 261 OFFCURVE",
"428 261 CURVE SMOOTH"
);
},
{
closed = 1;
nodes = (
"37 161 OFFCURVE",
"178 0 OFFCURVE",
"352 0 CURVE SMOOTH",
"521 0 OFFCURVE",
"647 113 OFFCURVE",
"654 316 CURVE SMOOTH",
"655 347 OFFCURVE",
"636 366 OFFCURVE",
"604 366 CURVE SMOOTH",
"429 366 LINE",
"429 261 LINE",
"481 261 LINE SMOOTH",
"500 261 OFFCURVE",
"509 249 OFFCURVE",
"500 232 CURVE SMOOTH",
"469 169 OFFCURVE",
"414 127 OFFCURVE",
"352 127 CURVE SMOOTH",
"253 127 OFFCURVE",
"173 231 OFFCURVE",
"173 360 CURVE SMOOTH",
"173 488 OFFCURVE",
"253 593 OFFCURVE",
"352 593 CURVE SMOOTH",
"412 593 OFFCURVE",
"466 553 OFFCURVE",
"498 493 CURVE",
"616 554 LINE",
"560 654 OFFCURVE",
"463 720 OFFCURVE",
"352 720 CURVE SMOOTH",
"177 720 OFFCURVE",
"37 558 OFFCURVE",
"37 360 CURVE SMOOTH"
);
}
);
width = 689;
}
);
leftMetricsKey = O;
unicode = 0047;
},
{
glyphname = H;
lastChange = "2020-01-05 10:26:33 +0000";
layers = (
{
layerId = "321F49B6-0EE7-433E-A02E-D3810DADA826";
paths = (
{
closed = 1;
nodes = (
"185 581 OFFCURVE",
"218 613 OFFCURVE",
"218 653 CURVE SMOOTH",
"218 693 OFFCURVE",
"185 726 OFFCURVE",
"145 726 CURVE SMOOTH",
"105 726 OFFCURVE",
"73 693 OFFCURVE",
"73 653 CURVE SMOOTH",
"73 613 OFFCURVE",
"105 581 OFFCURVE",
"145 581 CURVE SMOOTH"
);
},
{
closed = 1;
nodes = (
"105 145 OFFCURVE",
"73 112 OFFCURVE",
"73 73 CURVE SMOOTH",
"73 33 OFFCURVE",
"105 0 OFFCURVE",
"145 0 CURVE SMOOTH",
"185 0 OFFCURVE",
"218 33 OFFCURVE",
"218 73 CURVE SMOOTH",
"218 113 OFFCURVE",
"185 145 OFFCURVE",
"145 145 CURVE SMOOTH"
);
},
{
closed = 1;
nodes = (
"586 581 OFFCURVE",
"619 613 OFFCURVE",
"619 653 CURVE SMOOTH",
"619 693 OFFCURVE",
"586 726 OFFCURVE",
"546 726 CURVE SMOOTH",
"506 726 OFFCURVE",
"474 693 OFFCURVE",
"474 653 CURVE SMOOTH",
"474 613 OFFCURVE",
"506 581 OFFCURVE",
"546 581 CURVE SMOOTH"
);
},
{
closed = 1;
nodes = (
"506 145 OFFCURVE",
"474 113 OFFCURVE",
"474 73 CURVE SMOOTH",
"474 33 OFFCURVE",
"506 0 OFFCURVE",
"546 0 CURVE SMOOTH",
"586 0 OFFCURVE",
"619 33 OFFCURVE",
"619 73 CURVE SMOOTH",
"619 113 OFFCURVE",
"586 145 OFFCURVE",
"546 145 CURVE SMOOTH"
);
},
{
closed = 1;
nodes = (
"218 73 LINE",
"218 298 LINE SMOOTH",
"218 314 OFFCURVE",
"227 323 OFFCURVE",
"243 323 CURVE SMOOTH",
"449 323 LINE SMOOTH",
"465 323 OFFCURVE",
"474 314 OFFCURVE",
"474 298 CURVE SMOOTH",
"474 73 LINE",
"619 73 LINE",
"619 653 LINE",
"474 653 LINE",
"474 460 LINE SMOOTH",
"474 444 OFFCURVE",
"465 435 OFFCURVE",
"449 435 CURVE SMOOTH",
"243 435 LINE SMOOTH",
"227 435 OFFCURVE",
"218 444 OFFCURVE",
"218 460 CURVE SMOOTH",
"218 653 LINE",
"73 653 LINE",
"73 73 LINE"
);
}
);
width = 692;
}
);
leftKerningGroup = H;
unicode = 0048;
},
{
glyphname = I;
lastChange = "2020-01-05 10:26:03 +0000";
layers = (
{
layerId = "321F49B6-0EE7-433E-A02E-D3810DADA826";
paths = (
{
closed = 1;
nodes = (
"73 265 LINE",
"218 265 LINE",
"218 653 LINE",
"73 653 LINE"
);
},
{
closed = 1;
nodes = (
"185 581 OFFCURVE",
"218 613 OFFCURVE",
"218 653 CURVE SMOOTH",
"218 693 OFFCURVE",
"185 726 OFFCURVE",
"145 726 CURVE SMOOTH",
"105 726 OFFCURVE",
"73 693 OFFCURVE",
"73 653 CURVE SMOOTH",
"73 613 OFFCURVE",
"105 581 OFFCURVE",
"145 581 CURVE SMOOTH"
);
},
{
closed = 1;
nodes = (
"218 73 LINE",
"218 461 LINE",
"73 461 LINE",
"73 73 LINE"
);
},
{
closed = 1;
nodes = (
"105 145 OFFCURVE",
"73 112 OFFCURVE",
"73 73 CURVE SMOOTH",
"73 33 OFFCURVE",
"105 0 OFFCURVE",
"145 0 CURVE SMOOTH",
"185 0 OFFCURVE",
"218 33 OFFCURVE",
"218 73 CURVE SMOOTH",
"218 113 OFFCURVE",
"185 145 OFFCURVE",
"145 145 CURVE SMOOTH"
);
}
);
width = 291;
}
);
leftKerningGroup = H;
leftMetricsKey = H;
rightMetricsKey = H;
unicode = 0049;
},
{
glyphname = J;
lastChange = "2020-01-05 10:09:39 +0000";
layers = (
{
layerId = "321F49B6-0EE7-433E-A02E-D3810DADA826";
paths = (
{
closed = 1;
nodes = (
"287 204 LINE",
"432 204 LINE",
"432 653 LINE",
"287 653 LINE"
);
},
{
closed = 1;
nodes = (
"399 581 OFFCURVE",
"432 613 OFFCURVE",
"432 653 CURVE SMOOTH",
"432 694 OFFCURVE",
"399 726 OFFCURVE",
"359 726 CURVE SMOOTH",
"319 726 OFFCURVE",
"287 693 OFFCURVE",
"287 653 CURVE SMOOTH",
"287 613 OFFCURVE",
"319 581 OFFCURVE",
"359 581 CURVE SMOOTH"
);
},
{
closed = 1;
nodes = (
"335 -12 OFFCURVE",
"432 85 OFFCURVE",
"432 204 CURVE",
"216 204 LINE",
"0 204 LINE",
"0 85 OFFCURVE",
"97 -12 OFFCURVE",
"216 -12 CURVE SMOOTH"
);
},
{
closed = 1;
nodes = (
"287 176 LINE SMOOTH",
"287 131 OFFCURVE",
"252 104 OFFCURVE",
"209 104 CURVE SMOOTH",
"164 104 OFFCURVE",
"115 149 OFFCURVE",
"115 204 CURVE SMOOTH",
"115 204 LINE",
"287 204 LINE"
);
},
{
closed = 1;
nodes = (
"89 147 OFFCURVE",
"115 172 OFFCURVE",
"115 204 CURVE SMOOTH",
"115 236 OFFCURVE",
"89 262 OFFCURVE",
"57 262 CURVE SMOOTH",
"25 262 OFFCURVE",
"0 236 OFFCURVE",
"0 204 CURVE SMOOTH",
"0 172 OFFCURVE",
"25 147 OFFCURVE",
"57 147 CURVE SMOOTH"
);
}
);
width = 505;
}
);
rightMetricsKey = H;
unicode = 004A;
},
{
glyphname = K;
lastChange = "2020-01-05 10:26:03 +0000";
layers = (
{
backgroundImage = {
crop = "{{0, 0}, {220, 286}}";
imagePath = images/CHERRY_DS_K.jpg;
locked = "1";
transform = "{2.75718, 0, 0, 2.75718, 41, -30}";
};
layerId = "321F49B6-0EE7-433E-A02E-D3810DADA826";
paths = (
{
closed = 1;
nodes = (
"185 581 OFFCURVE",
"218 613 OFFCURVE",
"218 653 CURVE SMOOTH",
"218 693 OFFCURVE",
"185 726 OFFCURVE",
"145 726 CURVE SMOOTH",
"105 726 OFFCURVE",
"73 693 OFFCURVE",
"73 653 CURVE SMOOTH",
"73 613 OFFCURVE",
"105 581 OFFCURVE",
"145 581 CURVE SMOOTH"
);
},
{
closed = 1;
nodes = (
"105 145 OFFCURVE",
"73 112 OFFCURVE",
"73 73 CURVE SMOOTH",
"73 33 OFFCURVE",
"105 0 OFFCURVE",
"145 0 CURVE SMOOTH",
"185 0 OFFCURVE",
"218 33 OFFCURVE",
"218 73 CURVE SMOOTH",
"218 113 OFFCURVE",
"185 145 OFFCURVE",
"145 145 CURVE SMOOTH"
);
},
{
closed = 1;
nodes = (
"474 577 OFFCURVE",
"519 575 OFFCURVE",
"548 602 CURVE SMOOTH",
"578 630 OFFCURVE",
"579 676 OFFCURVE",
"551 705 CURVE SMOOTH",
"523 734 OFFCURVE",
"478 735 OFFCURVE",
"449 708 CURVE SMOOTH",
"419 680 OFFCURVE",
"418 635 OFFCURVE",
"446 606 CURVE SMOOTH"
);
},
{
closed = 1;
nodes = (
"466 108 OFFCURVE",
"454 66 OFFCURVE",
"475 32 CURVE SMOOTH",
"496 -3 OFFCURVE",
"543 -12 OFFCURVE",
"576 10 CURVE SMOOTH",
"609 32 OFFCURVE",
"619 76 OFFCURVE",
"598 109 CURVE SMOOTH",
"576 143 OFFCURVE",
"532 154 OFFCURVE",
"499 131 CURVE SMOOTH"
);
},
{
closed = 1;
nodes = (
"218 73 LINE",
"218 252 LINE SMOOTH",
"218 264 OFFCURVE",
"222 274 OFFCURVE",
"231 283 CURVE SMOOTH",
"263 316 LINE SMOOTH",
"275 329 OFFCURVE",
"289 327 OFFCURVE",
"298 312 CURVE SMOOTH",
"475 32 LINE",
"598 109 LINE",
"390 411 LINE SMOOTH",
"382 423 OFFCURVE",
"383 435 OFFCURVE",
"393 446 CURVE SMOOTH",
"548 602 LINE",
"449 708 LINE",
"249 481 LINE SMOOTH",
"234 464 OFFCURVE",
"218 470 OFFCURVE",
"218 493 CURVE SMOOTH",
"218 653 LINE",
"73 653 LINE",
"73 73 LINE"
);
}
);
width = 609;
}
);
leftKerningGroup = H;
leftMetricsKey = H;
unicode = 004B;
},
{
glyphname = L;
lastChange = "2020-01-05 12:08:06 +0000";
layers = (
{
layerId = "321F49B6-0EE7-433E-A02E-D3810DADA826";
paths = (
{
closed = 1;
nodes = (
"73 33 OFFCURVE",
"106 0 OFFCURVE",
"146 0 CURVE SMOOTH",
"534 0 LINE SMOOTH",
"574 0 OFFCURVE",
"607 33 OFFCURVE",
"607 73 CURVE SMOOTH",
"607 113 OFFCURVE",
"574 145 OFFCURVE",
"534 145 CURVE SMOOTH",
"243 145 LINE SMOOTH",
"227 145 OFFCURVE",
"218 154 OFFCURVE",
"218 170 CURVE SMOOTH",
"218 653 LINE SMOOTH",
"218 693 OFFCURVE",
"185 726 OFFCURVE",
"145 726 CURVE SMOOTH",
"105 726 OFFCURVE",
"73 693 OFFCURVE",
"73 653 CURVE SMOOTH",
"73 73 LINE SMOOTH"
);
}
);
width = 607;
}
);
leftKerningGroup = H;
leftMetricsKey = H;
unicode = 004C;
},
{
glyphname = M;
lastChange = "2020-01-05 10:26:03 +0000";
layers = (
{
layerId = "321F49B6-0EE7-433E-A02E-D3810DADA826";
paths = (
{
closed = 1;
nodes = (
"234 491 OFFCURVE",
"281 538 OFFCURVE",
"281 595 CURVE SMOOTH",
"281 652 OFFCURVE",
"234 699 OFFCURVE",
"177 699 CURVE SMOOTH",
"120 699 OFFCURVE",
"73 652 OFFCURVE",
"73 595 CURVE SMOOTH",
"73 538 OFFCURVE",
"120 491 OFFCURVE",
"177 491 CURVE SMOOTH"
);
},
{
closed = 1;
nodes = (
"437 35 OFFCURVE",
"476 74 OFFCURVE",
"476 121 CURVE SMOOTH",
"476 168 OFFCURVE",
"437 207 OFFCURVE",
"390 207 CURVE SMOOTH",
"343 207 OFFCURVE",
"304 168 OFFCURVE",
"304 121 CURVE SMOOTH",
"304 74 OFFCURVE",
"343 35 OFFCURVE",
"390 35 CURVE SMOOTH"
);
},
{
closed = 1;
nodes = (
"169 35 OFFCURVE",
"197 63 OFFCURVE",
"197 97 CURVE SMOOTH",
"197 131 OFFCURVE",
"169 159 OFFCURVE",
"135 159 CURVE SMOOTH",
"101 159 OFFCURVE",
"73 131 OFFCURVE",
"73 97 CURVE SMOOTH",
"73 63 OFFCURVE",
"101 35 OFFCURVE",
"135 35 CURVE SMOOTH"
);
},
{
closed = 1;
nodes = (
"660 491 OFFCURVE",
"707 538 OFFCURVE",
"707 595 CURVE SMOOTH",
"707 652 OFFCURVE",
"660 699 OFFCURVE",
"603 699 CURVE SMOOTH",
"546 699 OFFCURVE",
"499 652 OFFCURVE",
"499 595 CURVE SMOOTH",
"499 538 OFFCURVE",
"546 491 OFFCURVE",
"603 491 CURVE SMOOTH"
);
},
{
closed = 1;
nodes = (
"679 35 OFFCURVE",
"707 63 OFFCURVE",
"707 97 CURVE SMOOTH",
"707 131 OFFCURVE",
"679 159 OFFCURVE",
"645 159 CURVE SMOOTH",
"611 159 OFFCURVE",
"583 131 OFFCURVE",
"583 97 CURVE SMOOTH",
"583 63 OFFCURVE",
"611 35 OFFCURVE",
"645 35 CURVE SMOOTH"
);
},
{
closed = 1;
nodes = (
"197 97 LINE",
"197 428 LINE SMOOTH",
"197 450 OFFCURVE",
"220 454 OFFCURVE",
"225 432 CURVE SMOOTH",
"307 99 LINE",
"390 120 LINE",
"473 99 LINE",
"555 432 LINE SMOOTH",
"560 454 OFFCURVE",
"583 450 OFFCURVE",
"583 428 CURVE SMOOTH",
"583 97 LINE",
"707 97 LINE",
"707 595 LINE",
"609 595 LINE",
"609 596 LINE",
"503 623 LINE",
"406 261 LINE SMOOTH",
"400 238 OFFCURVE",
"380 238 OFFCURVE",
"374 261 CURVE SMOOTH",
"277 623 LINE",
"171 596 LINE",
"171 595 LINE",
"73 595 LINE",
"73 97 LINE"
);
}
);
width = 780;
}
);
leftKerningGroup = H;
leftMetricsKey = H;
rightMetricsKey = H;
unicode = 004D;
},
{
glyphname = N;
lastChange = "2020-01-05 10:26:03 +0000";
layers = (
{
backgroundImage = {
crop = "{{0, 0}, {221, 281}}";
imagePath = images/CHERRY_DS_N.jpg;
locked = "1";
transform = "{2.78263, 0, 0, 2.78263, 37, -40}";
};
layerId = "321F49B6-0EE7-433E-A02E-D3810DADA826";
paths = (
{
closed = 1;
nodes = (
"73 33 OFFCURVE",
"105 0 OFFCURVE",
"145 0 CURVE SMOOTH",
"185 0 OFFCURVE",
"218 33 OFFCURVE",
"218 73 CURVE SMOOTH",
"222 382 LINE SMOOTH",
"222 407 OFFCURVE",
"240 410 OFFCURVE",
"253 390 CURVE SMOOTH",
"481 34 LINE SMOOTH",
"493 16 OFFCURVE",
"515 3 OFFCURVE",
"536 1 CURVE SMOOTH",
"546 0 LINE",
"586 0 OFFCURVE",
"619 33 OFFCURVE",
"619 73 CURVE SMOOTH",
"619 653 LINE SMOOTH",
"619 693 OFFCURVE",
"586 726 OFFCURVE",
"546 726 CURVE SMOOTH",
"506 726 OFFCURVE",
"474 693 OFFCURVE",
"474 653 CURVE SMOOTH",
"471 337 LINE SMOOTH",
"471 312 OFFCURVE",
"454 309 OFFCURVE",
"441 329 CURVE SMOOTH",
"207 692 LINE",
"203 697 OFFCURVE",
"199 702 OFFCURVE",
"195 706 CURVE",
"182 718 OFFCURVE",
"164 726 OFFCURVE",
"145 726 CURVE SMOOTH",
"115 726 OFFCURVE",
"89 707 OFFCURVE",
"79 681 CURVE",
"74 671 OFFCURVE",
"72 660 OFFCURVE",
"73 648 CURVE",
"73 73 LINE SMOOTH"
);
}
);
width = 692;
}
);
leftKerningGroup = H;
leftMetricsKey = H;
rightMetricsKey = H;
unicode = 004E;
},
{
glyphname = O;
lastChange = "2020-01-01 07:46:34 +0000";
layers = (
{
backgroundImage = {
crop = "{{0, 0}, {268, 296}}";
imagePath = images/CHERRY_DS_O.jpg;
locked = "1";
transform = "{2.66017, 0, 0, 2.66017, -11, -37}";
};
layerId = "321F49B6-0EE7-433E-A02E-D3810DADA826";
paths = (
{
closed = 1;
nodes = (
"37 161 OFFCURVE",
"178 0 OFFCURVE",
"352 0 CURVE SMOOTH",
"525 0 OFFCURVE",
"666 161 OFFCURVE",
"666 360 CURVE SMOOTH",
"666 558 OFFCURVE",
"525 720 OFFCURVE",
"352 720 CURVE SMOOTH",
"177 720 OFFCURVE",
"37 558 OFFCURVE",
"37 360 CURVE SMOOTH"
);
},
{
closed = 1;
nodes = (
"173 488 OFFCURVE",
"253 593 OFFCURVE",
"352 593 CURVE SMOOTH",
"450 593 OFFCURVE",
"530 488 OFFCURVE",
"530 360 CURVE SMOOTH",
"530 231 OFFCURVE",
"450 127 OFFCURVE",
"352 127 CURVE SMOOTH",
"253 127 OFFCURVE",
"173 231 OFFCURVE",
"173 360 CURVE SMOOTH"
);
}
);
width = 703;
}
);
leftMetricsKey = "=H/2";
rightMetricsKey = "=H/2";
unicode = 004F;
},
{
glyphname = P;
lastChange = "2020-01-05 12:01:53 +0000";
layers = (
{
layerId = "321F49B6-0EE7-433E-A02E-D3810DADA826";
paths = (
{
closed = 1;
nodes = (
"73 33 OFFCURVE",
"105 0 OFFCURVE",
"145 0 CURVE SMOOTH",
"185 0 OFFCURVE",
"218 33 OFFCURVE",
"218 73 CURVE SMOOTH",
"218 246 LINE SMOOTH",
"218 260 OFFCURVE",
"229 271 OFFCURVE",
"243 271 CURVE SMOOTH",
"379 271 LINE SMOOTH",
"505 271 OFFCURVE",
"607 372 OFFCURVE",
"607 498 CURVE SMOOTH",
"607 624 OFFCURVE",
"505 726 OFFCURVE",
"379 726 CURVE SMOOTH",
"145 726 LINE SMOOTH",
"105 726 OFFCURVE",
"73 693 OFFCURVE",
"73 653 CURVE SMOOTH",
"73 73 LINE SMOOTH"
);
},
{
closed = 1;
nodes = (
"218 590 LINE SMOOTH",
"218 606 OFFCURVE",
"227 615 OFFCURVE",
"243 615 CURVE SMOOTH",
"339 615 LINE SMOOTH",
"405 615 OFFCURVE",
"458 562 OFFCURVE",
"458 496 CURVE SMOOTH",
"458 428 OFFCURVE",
"404 378 OFFCURVE",
"339 378 CURVE SMOOTH",
"243 378 LINE SMOOTH",
"227 378 OFFCURVE",
"218 387 OFFCURVE",
"218 403 CURVE SMOOTH"
);
}
);
width = 647;
}
);
leftKerningGroup = H;
leftMetricsKey = H;
unicode = 0050;
},
{
glyphname = Q;
lastChange = "2020-01-01 07:52:44 +0000";
layers = (
{
layerId = "321F49B6-0EE7-433E-A02E-D3810DADA826";
paths = (
{
closed = 1;
nodes = (
"37 161 OFFCURVE",
"178 0 OFFCURVE",
"352 0 CURVE SMOOTH",
"525 0 OFFCURVE",
"666 161 OFFCURVE",
"666 360 CURVE SMOOTH",
"666 558 OFFCURVE",
"525 720 OFFCURVE",
"352 720 CURVE SMOOTH",
"177 720 OFFCURVE",
"37 558 OFFCURVE",
"37 360 CURVE SMOOTH"
);
},
{
closed = 1;
nodes = (
"173 488 OFFCURVE",
"253 593 OFFCURVE",
"352 593 CURVE SMOOTH",
"450 593 OFFCURVE",
"530 488 OFFCURVE",
"530 360 CURVE SMOOTH",
"530 231 OFFCURVE",
"450 127 OFFCURVE",
"352 127 CURVE SMOOTH",
"253 127 OFFCURVE",
"173 231 OFFCURVE",
"173 360 CURVE SMOOTH"
);
},
{
closed = 1;
nodes = (
"422 136 OFFCURVE",
"454 136 OFFCURVE",
"472 156 CURVE SMOOTH",
"491 178 OFFCURVE",
"493 207 OFFCURVE",
"474 226 CURVE SMOOTH",
"454 246 OFFCURVE",
"424 246 OFFCURVE",
"403 226 CURVE SMOOTH",
"383 207 OFFCURVE",
"383 175 OFFCURVE",
"403 155 CURVE SMOOTH"
);
},
{
closed = 1;
nodes = (
"403 155 LINE SMOOTH",
"409 149 OFFCURVE",
"406 138 OFFCURVE",
"389 132 CURVE SMOOTH",
"474 84 LINE",
"545 156 LINE",
"502 234 LINE SMOOTH",
"497 225 OFFCURVE",
"491 210 OFFCURVE",
"474 226 CURVE SMOOTH"
);
},
{
closed = 1;
nodes = (
"603 105 OFFCURVE",
"571 106 OFFCURVE",
"553 86 CURVE SMOOTH",
"534 64 OFFCURVE",
"533 35 OFFCURVE",
"551 16 CURVE SMOOTH",
"571 -5 OFFCURVE",
"602 -4 OFFCURVE",
"622 16 CURVE SMOOTH",
"642 36 OFFCURVE",
"643 67 OFFCURVE",
"622 87 CURVE SMOOTH"
);
},
{
closed = 1;
nodes = (
"481 86 LINE",
"504 45 LINE SMOOTH",
"510 48 OFFCURVE",
"518 49 OFFCURVE",
"524 43 CURVE SMOOTH",
"551 16 LINE",
"622 87 LINE",
"597 112 LINE SMOOTH",
"590 119 OFFCURVE",
"591 127 OFFCURVE",
"596 134 CURVE SMOOTH",
"552 157 LINE"
);
}
);
width = 703;
}
);
leftMetricsKey = O;
rightMetricsKey = O;
unicode = 0051;
},
{
glyphname = R;
lastChange = "2020-01-05 12:03:52 +0000";
layers = (
{
layerId = "321F49B6-0EE7-433E-A02E-D3810DADA826";
paths = (
{
closed = 1;
nodes = (
"218 577 LINE SMOOTH",
"218 591 OFFCURVE",
"227 599 OFFCURVE",
"243 599 CURVE SMOOTH",
"357 599 LINE SMOOTH",
"423 599 OFFCURVE",
"476 553 OFFCURVE",
"476 496 CURVE SMOOTH",
"476 439 OFFCURVE",
"423 394 OFFCURVE",
"357 394 CURVE SMOOTH",
"243 394 LINE SMOOTH",
"227 394 OFFCURVE",
"218 402 OFFCURVE",
"218 416 CURVE SMOOTH"
);
},
{
closed = 1;
nodes = (
"73 33 OFFCURVE",
"105 0 OFFCURVE",
"145 0 CURVE SMOOTH",
"185 0 OFFCURVE",
"218 33 OFFCURVE",
"218 73 CURVE SMOOTH",
"218 270 LINE SMOOTH",
"218 284 OFFCURVE",
"224 292 OFFCURVE",
"236 294 CURVE",
"324 295 LINE SMOOTH",
"429 295 OFFCURVE",
"447 216 OFFCURVE",
"447 171 CURVE SMOOTH",
"447 73 LINE SMOOTH",
"447 33 OFFCURVE",
"479 0 OFFCURVE",
"519 0 CURVE SMOOTH",
"559 0 OFFCURVE",
"592 33 OFFCURVE",
"592 73 CURVE SMOOTH",
"592 171 LINE SMOOTH",
"592 241 OFFCURVE",
"569 312 OFFCURVE",
"516 344 CURVE SMOOTH",
"501 353 OFFCURVE",
"500 359 OFFCURVE",
"515 368 CURVE SMOOTH",
"570 400 OFFCURVE",
"606 449 OFFCURVE",
"607 523 CURVE SMOOTH",
"609 649 OFFCURVE",
"505 726 OFFCURVE",
"379 726 CURVE SMOOTH",
"145 726 LINE SMOOTH",
"105 726 OFFCURVE",
"73 694 OFFCURVE",
"73 653 CURVE SMOOTH",
"73 73 LINE SMOOTH"
);
}
);
width = 657;
}
);
leftKerningGroup = H;
leftMetricsKey = H;
unicode = 0052;
},
{
glyphname = S;
lastChange = "2020-01-02 07:24:08 +0000";
layers = (
{
layerId = "321F49B6-0EE7-433E-A02E-D3810DADA826";
paths = (
{
closed = 1;
nodes = (
"563 305 OFFCURVE",
"500 376 OFFCURVE",
"421 396 CURVE SMOOTH",
"349 414 OFFCURVE",
"179 443 OFFCURVE",
"179 513 CURVE SMOOTH",
"179 557 OFFCURVE",
"219 594 OFFCURVE",
"299 594 CURVE SMOOTH",
"367 594 OFFCURVE",
"401 552 OFFCURVE",
"417 520 CURVE SMOOTH",
"442 470 OFFCURVE",
"490 475 OFFCURVE",
"519 497 CURVE SMOOTH",
"544 516 OFFCURVE",
"561 577 OFFCURVE",
"507 631 CURVE SMOOTH",
"445 693 OFFCURVE",
"386 714 OFFCURVE",
"281 714 CURVE SMOOTH",
"181 714 OFFCURVE",
"49 645 OFFCURVE",
"49 530 CURVE SMOOTH",
"49 362 OFFCURVE",
"193 324 OFFCURVE",
"296 299 CURVE SMOOTH",
"366 282 OFFCURVE",
"429 244 OFFCURVE",
"429 190 CURVE SMOOTH",
"429 134 OFFCURVE",
"365 109 OFFCURVE",
"289 109 CURVE SMOOTH",
"210 109 OFFCURVE",
"176 151 OFFCURVE",
"163 186 CURVE SMOOTH",
"148 228 OFFCURVE",
"113 244 OFFCURVE",
"76 233 CURVE SMOOTH",
"24 217 OFFCURVE",
"30 168 OFFCURVE",
"46 134 CURVE SMOOTH",
"90 41 OFFCURVE",
"189 0 OFFCURVE",
"326 0 CURVE SMOOTH",
"489 0 OFFCURVE",
"563 117 OFFCURVE",
"563 213 CURVE SMOOTH"
);
}
);
width = 600;
}
);
unicode = 0053;
},
{
glyphname = T;
lastChange = "2020-01-05 12:10:17 +0000";
layers = (
{
anchors = (
{
name = bottom;
position = "{289, 0}";
},
{
name = center;
position = "{289, 350}";
},
{
name = top;
position = "{289, 700}";
}
);
backgroundImage = {
crop = "{{0, 0}, {218, 278}}";
imagePath = images/CHERRY_DS_T.jpg;
locked = "1";
transform = "{2.82379, 0, 0, 2.82379, -32, -30}";
};
layerId = "321F49B6-0EE7-433E-A02E-D3810DADA826";
paths = (
{
closed = 1;
nodes = (
"249 145 OFFCURVE",
"217 112 OFFCURVE",
"217 73 CURVE SMOOTH",
"217 33 OFFCURVE",
"249 0 OFFCURVE",
"289 0 CURVE SMOOTH",
"329 0 OFFCURVE",
"362 33 OFFCURVE",
"362 73 CURVE SMOOTH",
"362 113 OFFCURVE",
"329 145 OFFCURVE",
"289 145 CURVE SMOOTH"
);
},
{
closed = 1;
nodes = (
"525 581 OFFCURVE",
"558 613 OFFCURVE",
"558 653 CURVE SMOOTH",
"558 693 OFFCURVE",
"525 726 OFFCURVE",
"485 726 CURVE SMOOTH",
"445 726 OFFCURVE",
"413 693 OFFCURVE",
"413 653 CURVE SMOOTH",
"413 613 OFFCURVE",
"445 581 OFFCURVE",
"485 581 CURVE SMOOTH"
);
},
{
closed = 1;
nodes = (
"52 726 OFFCURVE",
"20 693 OFFCURVE",
"20 654 CURVE SMOOTH",
"20 614 OFFCURVE",
"52 581 OFFCURVE",
"92 581 CURVE SMOOTH",
"132 581 OFFCURVE",
"165 614 OFFCURVE",
"165 654 CURVE SMOOTH",
"165 694 OFFCURVE",
"132 726 OFFCURVE",
"92 726 CURVE SMOOTH"
);
},
{
closed = 1;
nodes = (
"192 581 LINE SMOOTH",
"208 581 OFFCURVE",
"217 572 OFFCURVE",
"217 556 CURVE SMOOTH",
"217 73 LINE",
"362 73 LINE",
"362 556 LINE SMOOTH",
"362 572 OFFCURVE",
"371 581 OFFCURVE",
"387 581 CURVE SMOOTH",
"485 581 LINE",
"485 726 LINE",
"92 726 LINE",
"92 581 LINE"
);
}
);
width = 578;
}
);
unicode = 0054;
},
{
glyphname = U;
lastChange = "2020-01-01 07:50:46 +0000";
layers = (
{
backgroundImage = {
crop = "{{0, 0}, {218, 282}}";
imagePath = images/CHERRY_DS_U.jpg;
locked = "1";
transform = "{2.77377, 0, 0, 2.77377, 48, -44}";
};
layerId = "321F49B6-0EE7-433E-A02E-D3810DADA826";
paths = (
{
closed = 1;
nodes = (
"73 77 OFFCURVE",
"195 -24 OFFCURVE",
"348 -24 CURVE SMOOTH",
"500 -24 OFFCURVE",
"623 78 OFFCURVE",
"623 201 CURVE SMOOTH",
"623 286 OFFCURVE",
"567 360 OFFCURVE",
"481 398 CURVE",
"479 220 LINE SMOOTH",
"478 149 OFFCURVE",
"420 106 OFFCURVE",
"347 106 CURVE SMOOTH",
"274 106 OFFCURVE",
"215 150 OFFCURVE",
"215 220 CURVE SMOOTH",
"215 397 LINE",
"130 359 OFFCURVE",
"73 285 OFFCURVE",
"73 201 CURVE SMOOTH"
);
},
{
closed = 1;
nodes = (
"73 201 LINE",
"215 220 LINE",
"215 644 LINE",
"73 643 LINE"
);
},
{
closed = 1;
nodes = (
"182 573 OFFCURVE",
"215 604 OFFCURVE",
"215 643 CURVE SMOOTH",
"215 682 OFFCURVE",
"182 715 OFFCURVE",
"143 715 CURVE SMOOTH",
"104 715 OFFCURVE",
"73 682 OFFCURVE",
"73 643 CURVE SMOOTH",
"73 604 OFFCURVE",
"104 573 OFFCURVE",
"143 573 CURVE SMOOTH"
);
},
{
closed = 1;
nodes = (
"481 644 LINE",
"479 220 LINE",
"623 201 LINE",
"623 643 LINE"
);
},
{
closed = 1;
nodes = (
"592 573 OFFCURVE",
"623 604 OFFCURVE",
"623 643 CURVE SMOOTH",
"623 682 OFFCURVE",
"592 715 OFFCURVE",
"553 715 CURVE SMOOTH",
"514 715 OFFCURVE",
"481 682 OFFCURVE",
"481 643 CURVE SMOOTH",
"481 604 OFFCURVE",
"514 573 OFFCURVE",
"553 573 CURVE SMOOTH"
);
}
);
width = 696;
}
);
leftMetricsKey = H;
rightMetricsKey = H;
unicode = 0055;
},
{
glyphname = V;
lastChange = "2020-01-05 10:11:59 +0000";
layers = (
{
backgroundImage = {
crop = "{{0, 0}, {225, 292}}";
imagePath = images/CHERRY_DS_V.jpg;
locked = "1";
transform = "{2.71091, 0, 0, 2.71091, -14, -50}";
};
layerId = "321F49B6-0EE7-433E-A02E-D3810DADA826";
paths = (
{
closed = 1;
nodes = (
"549 608 LINE",
"561 647 OFFCURVE",
"538 687 OFFCURVE",
"500 698 CURVE SMOOTH",
"462 709 OFFCURVE",
"421 686 OFFCURVE",
"410 648 CURVE SMOOTH",
"301 293 LINE SMOOTH",
"294 269 OFFCURVE",
"276 269 OFFCURVE",
"269 293 CURVE SMOOTH",
"162 648 LINE SMOOTH",
"151 686 OFFCURVE",
"110 709 OFFCURVE",
"72 698 CURVE SMOOTH",
"34 687 OFFCURVE",
"11 647 OFFCURVE",
"23 608 CURVE",
"215 47 LINE",
"243 -20 OFFCURVE",
"327 -21 OFFCURVE",
"356 46 CURVE"
);
}
);
width = 572;
}
);
unicode = 0056;
},
{
glyphname = W;
lastChange = "2020-01-05 10:12:47 +0000";
layers = (
{
layerId = "321F49B6-0EE7-433E-A02E-D3810DADA826";
paths = (
{
closed = 1;
nodes = (
"268 -3 OFFCURVE",
"317 13 OFFCURVE",
"330 76 CURVE SMOOTH",
"408 442 LINE SMOOTH",
"412 461 OFFCURVE",
"428 461 OFFCURVE",
"432 442 CURVE SMOOTH",
"510 76 LINE SMOOTH",
"523 13 OFFCURVE",
"572 -3 OFFCURVE",
"594 -3 CURVE SMOOTH",
"622 -3 OFFCURVE",
"655 13 OFFCURVE",
"676 76 CURVE SMOOTH",
"827 608 LINE SMOOTH",
"838 646 OFFCURVE",
"817 687 OFFCURVE",
"783 698 CURVE SMOOTH",
"750 709 OFFCURVE",
"713 686 OFFCURVE",
"703 648 CURVE SMOOTH",
"609 279 LINE SMOOTH",
"603 255 OFFCURVE",
"584 254 OFFCURVE",
"578 278 CURVE SMOOTH",
"482 648 LINE SMOOTH",
"479 659 OFFCURVE",
"474 669 OFFCURVE",
"467 677 CURVE SMOOTH",
"459 686 OFFCURVE",
"450 694 OFFCURVE",
"438 698 CURVE SMOOTH",
"432 700 OFFCURVE",
"426 701 OFFCURVE",
"420 701 CURVE SMOOTH",
"414 701 OFFCURVE",
"408 700 OFFCURVE",
"402 698 CURVE SMOOTH",
"390 694 OFFCURVE",
"380 687 OFFCURVE",
"373 677 CURVE SMOOTH",
"367 668 OFFCURVE",
"361 659 OFFCURVE",
"358 648 CURVE SMOOTH",
"262 278 LINE SMOOTH",
"256 254 OFFCURVE",
"237 255 OFFCURVE",
"231 279 CURVE SMOOTH",
"137 648 LINE SMOOTH",
"127 686 OFFCURVE",
"90 709 OFFCURVE",
"57 698 CURVE SMOOTH",
"23 687 OFFCURVE",
"2 646 OFFCURVE",
"13 608 CURVE SMOOTH",
"164 76 LINE SMOOTH",
"185 13 OFFCURVE",
"218 -3 OFFCURVE",
"246 -3 CURVE SMOOTH"
);
}
);
width = 840;
}
);
unicode = 0057;
},
{
glyphname = X;
lastChange = "2019-12-31 11:23:37 +0000";
layers = (
{
backgroundImage = {
crop = "{{0, 0}, {203, 287}}";
imagePath = images/CHERRY_DS_X.jpg;
locked = "1";
transform = "{2.8235, 0, 0, 2.8235, -11, -46}";
};
layerId = "321F49B6-0EE7-433E-A02E-D3810DADA826";
paths = (
{
closed = 1;
nodes = (
"50 77 OFFCURVE",
"62 32 OFFCURVE",
"97 12 CURVE SMOOTH",
"132 -8 OFFCURVE",
"179 4 OFFCURVE",
"196 40 CURVE",
"283 200 LINE SMOOTH",
"293 218 OFFCURVE",
"307 217 OFFCURVE",
"317 200 CURVE SMOOTH",
"405 40 LINE",
"422 4 OFFCURVE",
"469 -8 OFFCURVE",
"504 12 CURVE SMOOTH",
"539 32 OFFCURVE",
"551 77 OFFCURVE",
"531 112 CURVE SMOOTH",
"400 349 LINE SMOOTH",
"394 361 OFFCURVE",
"394 371 OFFCURVE",
"400 383 CURVE SMOOTH",
"531 620 LINE SMOOTH",
"551 655 OFFCURVE",
"540 699 OFFCURVE",
"505 719 CURVE SMOOTH",
"470 739 OFFCURVE",
"425 727 OFFCURVE",
"405 692 CURVE SMOOTH",
"318 549 LINE SMOOTH",
"308 533 OFFCURVE",
"294 533 OFFCURVE",
"284 549 CURVE SMOOTH",
"196 692 LINE SMOOTH",
"176 727 OFFCURVE",
"131 739 OFFCURVE",
"96 719 CURVE SMOOTH",
"61 699 OFFCURVE",
"50 655 OFFCURVE",
"70 620 CURVE SMOOTH",
"201 383 LINE SMOOTH",
"207 371 OFFCURVE",
"207 361 OFFCURVE",
"201 349 CURVE SMOOTH",
"70 112 LINE SMOOTH"
);
}
);
width = 600;
}
);
unicode = 0058;
},
{
glyphname = Y;
lastChange = "2020-01-05 10:13:03 +0000";
layers = (
{
backgroundImage = {
crop = "{{0, 0}, {204, 280}}";
imagePath = images/CHERRY_DS_Y.jpg;
locked = "1";
transform = "{2.76567, 0, 0, 2.76567, -15, -23}";
};
layerId = "321F49B6-0EE7-433E-A02E-D3810DADA826";
paths = (
{
closed = 1;
nodes = (
"190 291 LINE SMOOTH",
"195 281 OFFCURVE",
"197 271 OFFCURVE",
"197 260 CURVE SMOOTH",
"197 73 LINE SMOOTH",
"197 33 OFFCURVE",
"229 0 OFFCURVE",
"269 0 CURVE SMOOTH",
"271 0 LINE SMOOTH",
"311 0 OFFCURVE",
"343 33 OFFCURVE",
"343 73 CURVE SMOOTH",
"343 260 LINE SMOOTH",
"343 271 OFFCURVE",
"345 281 OFFCURVE",
"350 291 CURVE SMOOTH",
"514 626 LINE SMOOTH",
"528 656 OFFCURVE",
"516 692 OFFCURVE",
"485 706 CURVE SMOOTH",
"456 719 OFFCURVE",
"419 707 OFFCURVE",
"406 677 CURVE",
"291 429 LINE SMOOTH",
"282 410 OFFCURVE",
"258 410 OFFCURVE",
"249 429 CURVE SMOOTH",
"134 677 LINE",
"121 707 OFFCURVE",
"84 719 OFFCURVE",
"55 706 CURVE SMOOTH",
"24 692 OFFCURVE",
"12 656 OFFCURVE",
"26 626 CURVE SMOOTH"
);
}
);
width = 540;
}
);
unicode = 0059;
},
{
glyphname = Z;
lastChange = "2020-01-05 10:13:07 +0000";
layers = (
{
backgroundImage = {
crop = "{{0, 0}, {225, 280}}";
imagePath = images/CHERRY_DS_Z.jpg;
locked = "1";
transform = "{2.76448, 0, 0, 2.76448, -11, -27}";
};
layerId = "321F49B6-0EE7-433E-A02E-D3810DADA826";
paths = (
{
closed = 1;
nodes = (
"164 570 OFFCURVE",
"196 602 OFFCURVE",
"196 643 CURVE SMOOTH",
"196 684 OFFCURVE",
"164 715 OFFCURVE",
"124 715 CURVE SMOOTH",
"83 715 OFFCURVE",
"51 683 OFFCURVE",
"51 643 CURVE SMOOTH",
"51 602 OFFCURVE",
"83 570 OFFCURVE",
"124 570 CURVE SMOOTH"
);
},
{
closed = 1;
nodes = (
"566 570 OFFCURVE",
"598 602 OFFCURVE",
"598 643 CURVE SMOOTH",
"598 684 OFFCURVE",
"566 715 OFFCURVE",
"526 715 CURVE SMOOTH",
"485 715 OFFCURVE",
"453 683 OFFCURVE",
"453 643 CURVE SMOOTH",
"453 603 OFFCURVE",
"485 570 OFFCURVE",
"526 570 CURVE SMOOTH"
);
},
{
closed = 1;
nodes = (
"133 5 OFFCURVE",
"165 37 OFFCURVE",
"165 78 CURVE SMOOTH",
"165 119 OFFCURVE",
"133 150 OFFCURVE",
"93 150 CURVE SMOOTH",
"52 150 OFFCURVE",
"20 118 OFFCURVE",
"20 78 CURVE SMOOTH",
"20 37 OFFCURVE",
"52 5 OFFCURVE",
"93 5 CURVE SMOOTH"
);
},
{
closed = 1;
nodes = (
"551 5 OFFCURVE",
"583 37 OFFCURVE",
"583 78 CURVE SMOOTH",
"583 119 OFFCURVE",
"550 150 OFFCURVE",
"511 150 CURVE SMOOTH",
"470 150 OFFCURVE",
"438 118 OFFCURVE",
"438 78 CURVE SMOOTH",
"438 37 OFFCURVE",
"470 5 OFFCURVE",
"511 5 CURVE SMOOTH"
);
},
{
closed = 1;
nodes = (
"93 63 LINE",
"93 5 LINE",
"511 5 LINE",
"511 150 LINE",
"277 150 LINE SMOOTH",
"256 150 OFFCURVE",
"249 165 OFFCURVE",
"262 181 CURVE SMOOTH",
"583 598 LINE",
"526 656 LINE",
"526 715 LINE",
"124 715 LINE",
"124 570 LINE",
"341 570 LINE SMOOTH",
"362 570 OFFCURVE",
"369 555 OFFCURVE",
"356 539 CURVE SMOOTH",
"35 122 LINE"
);
}
);
width = 618;
}
);
unicode = 005A;
},
{
glyphname = a;
lastChange = "2020-01-05 10:25:13 +0000";
layers = (
{
backgroundImage = {
crop = "{{0, 0}, {562, 189}}";
imagePath = images/CHERRY_DS_PAUSE.jpg;
locked = "1";
transform = "{5.218, -0.278, 0.278, 5.218, -700, -154}";
};
layerId = "321F49B6-0EE7-433E-A02E-D3810DADA826";
paths = (
{
closed = 1;
nodes = (
"46 70 OFFCURVE",
"128 0 OFFCURVE",
"230 0 CURVE SMOOTH",
"268 0 OFFCURVE",
"303 10 OFFCURVE",
"332 27 CURVE SMOOTH",
"344 34 OFFCURVE",
"353 31 OFFCURVE",
"363 21 CURVE SMOOTH",
"376 10 OFFCURVE",
"393 2 OFFCURVE",
"412 2 CURVE SMOOTH",
"450 2 OFFCURVE",
"481 32 OFFCURVE",
"481 71 CURVE SMOOTH",
"481 365 LINE SMOOTH",
"481 437 OFFCURVE",
"421 524 OFFCURVE",
"307 528 CURVE SMOOTH",
"141 534 OFFCURVE",
"67 435 OFFCURVE",
"118 376 CURVE SMOOTH",
"152 337 OFFCURVE",
"208 367 OFFCURVE",
"229 394 CURVE SMOOTH",
"248 419 OFFCURVE",
"279 421 OFFCURVE",
"309 421 CURVE SMOOTH",
"337 421 OFFCURVE",
"361 395 OFFCURVE",
"361 365 CURVE SMOOTH",
"361 329 OFFCURVE",
"314 325 OFFCURVE",
"275 328 CURVE SMOOTH",
"186 335 OFFCURVE",
"46 281 OFFCURVE",
"46 155 CURVE SMOOTH"
);
},
{
closed = 1;
nodes = (
"166 213 OFFCURVE",
"204 225 OFFCURVE",
"252 231 CURVE SMOOTH",
"278 234 OFFCURVE",
"317 251 OFFCURVE",
"344 234 CURVE SMOOTH",
"361 223 OFFCURVE",
"357 181 OFFCURVE",
"348 164 CURVE SMOOTH",
"333 135 OFFCURVE",
"299 109 OFFCURVE",
"252 109 CURVE SMOOTH",
"205 109 OFFCURVE",
"166 129 OFFCURVE",
"166 164 CURVE SMOOTH"
);
}
);
width = 551;
}
);
rightMetricsKey = n;
unicode = 0061;
},
{
glyphname = b;
lastChange = "2020-01-05 10:00:56 +0000";
layers = (
{
backgroundImage = {
crop = "{{0, 0}, {195, 93}}";
imagePath = images/Cherry_DS_TAB.jpg;
transform = "{8.94496, 0, 0, 8.94496, -1068, -74}";
};
layerId = "321F49B6-0EE7-433E-A02E-D3810DADA826";
paths = (
{
closed = 1;
nodes = (
"89 32 OFFCURVE",
"120 1 OFFCURVE",
"159 1 CURVE SMOOTH",
"177 1 OFFCURVE",
"194 8 OFFCURVE",
"206 20 CURVE SMOOTH",
"214 28 OFFCURVE",
"224 31 OFFCURVE",
"235 25 CURVE SMOOTH",
"265 9 OFFCURVE",
"299 0 OFFCURVE",
"335 0 CURVE SMOOTH",
"462 0 OFFCURVE",
"553 113 OFFCURVE",
"553 250 CURVE SMOOTH",
"553 388 OFFCURVE",
"462 500 OFFCURVE",
"335 500 CURVE SMOOTH",
"312 500 OFFCURVE",
"291 497 OFFCURVE",
"270 490 CURVE SMOOTH",
"248 483 OFFCURVE",
"228 495 OFFCURVE",
"228 518 CURVE SMOOTH",
"228 592 LINE SMOOTH",
"228 631 OFFCURVE",
"197 661 OFFCURVE",
"159 661 CURVE SMOOTH",
"120 661 OFFCURVE",
"89 631 OFFCURVE",
"89 592 CURVE SMOOTH",
"89 70 LINE SMOOTH"
);
},
{
closed = 1;
nodes = (
"223 319 OFFCURVE",
"266 381 OFFCURVE",
"321 381 CURVE SMOOTH",
"375 381 OFFCURVE",
"418 319 OFFCURVE",
"418 241 CURVE SMOOTH",
"418 163 OFFCURVE",
"375 100 OFFCURVE",
"321 100 CURVE SMOOTH",
"266 100 OFFCURVE",
"223 163 OFFCURVE",
"223 241 CURVE SMOOTH"
);
}
);
width = 588;
}
);
rightMetricsKey = o;
unicode = 0062;
},
{
glyphname = c;
lastChange = "2020-01-05 10:06:43 +0000";
layers = (
{
backgroundImage = {
crop = "{{0, 0}, {109.8, 37.8}}";
imagePath = "images/1132px-CHERRY_DS_PRINT.jpg";
locked = "1";
transform = "{25.224, 0, 0, 25.224, -2183, -92}";
};
layerId = "321F49B6-0EE7-433E-A02E-D3810DADA826";
paths = (
{
closed = 1;
nodes = (
"35 115 OFFCURVE",
"137 0 OFFCURVE",
"263 0 CURVE SMOOTH",
"343 0 OFFCURVE",
"391 30 OFFCURVE",
"431 70 CURVE SMOOTH",
"465 104 OFFCURVE",
"499 187 OFFCURVE",
"434 204 CURVE SMOOTH",
"397 214 OFFCURVE",
"363 157 OFFCURVE",
"348 141 CURVE SMOOTH",
"329 120 OFFCURVE",
"295 112 OFFCURVE",
"270 112 CURVE SMOOTH",
"213 112 OFFCURVE",
"168 172 OFFCURVE",
"168 246 CURVE SMOOTH",
"168 321 OFFCURVE",
"213 380 OFFCURVE",
"270 380 CURVE SMOOTH",
"297 380 OFFCURVE",
"326 369 OFFCURVE",
"340 342 CURVE SMOOTH",
"357 308 OFFCURVE",
"391 273 OFFCURVE",
"431 288 CURVE SMOOTH",
"481 306 OFFCURVE",
"488 374 OFFCURVE",
"462 411 CURVE SMOOTH",
"408 488 OFFCURVE",
"353 512 OFFCURVE",
"263 512 CURVE SMOOTH",
"137 512 OFFCURVE",
"35 396 OFFCURVE",
"35 256 CURVE SMOOTH"
);
}
);
width = 518;
}
);
leftMetricsKey = o;
unicode = 0063;
},
{
glyphname = d;
lastChange = "2020-01-05 10:01:09 +0000";
layers = (
{
layerId = "321F49B6-0EE7-433E-A02E-D3810DADA826";
paths = (
{
closed = 1;
nodes = (
"35 113 OFFCURVE",
"126 0 OFFCURVE",
"253 0 CURVE SMOOTH",
"289 0 OFFCURVE",
"323 9 OFFCURVE",
"353 25 CURVE SMOOTH",
"364 31 OFFCURVE",
"374 28 OFFCURVE",
"382 20 CURVE SMOOTH",
"394 8 OFFCURVE",
"411 1 OFFCURVE",
"429 1 CURVE SMOOTH",
"468 1 OFFCURVE",
"499 32 OFFCURVE",
"499 70 CURVE SMOOTH",
"499 592 LINE SMOOTH",
"499 631 OFFCURVE",
"468 661 OFFCURVE",
"429 661 CURVE SMOOTH",
"391 661 OFFCURVE",
"360 631 OFFCURVE",
"360 592 CURVE SMOOTH",
"360 518 LINE SMOOTH",
"360 495 OFFCURVE",
"340 483 OFFCURVE",
"318 490 CURVE SMOOTH",
"297 497 OFFCURVE",
"276 500 OFFCURVE",
"253 500 CURVE SMOOTH",
"126 500 OFFCURVE",
"35 388 OFFCURVE",
"35 250 CURVE SMOOTH"
);
},
{
closed = 1;
nodes = (
"170 319 OFFCURVE",
"213 381 OFFCURVE",
"267 381 CURVE SMOOTH",
"322 381 OFFCURVE",
"365 319 OFFCURVE",
"365 241 CURVE SMOOTH",
"365 163 OFFCURVE",
"322 100 OFFCURVE",
"267 100 CURVE SMOOTH",
"213 100 OFFCURVE",
"170 163 OFFCURVE",
"170 241 CURVE SMOOTH"
);
}
);
width = 569;
}
);
leftMetricsKey = o;
rightMetricsKey = n;
unicode = 0064;
},
{
glyphname = e;
lastChange = "2020-01-05 10:01:09 +0000";
layers = (
{
backgroundImage = {
crop = "{{0, 0}, {508, 172}}";
imagePath = images/CHERRY_DS_HOME.jpg;
locked = "1";
transform = "{5.075, 0, 0, 5.075, -2020, -121}";
};
layerId = "321F49B6-0EE7-433E-A02E-D3810DADA826";
paths = (
{
closed = 1;
nodes = (
"35 115 OFFCURVE",
"146 0 OFFCURVE",
"283 0 CURVE SMOOTH",
"345 0 OFFCURVE",
"401 16 OFFCURVE",
"444 55 CURVE SMOOTH",
"484 91 OFFCURVE",
"455 135 OFFCURVE",
"415 135 CURVE SMOOTH",
"362 135 OFFCURVE",
"351 108 OFFCURVE",
"274 108 CURVE SMOOTH",
"240 108 OFFCURVE",
"207 119 OFFCURVE",
"187 148 CURVE SMOOTH",
"165 180 OFFCURVE",
"183 208 OFFCURVE",
"223 208 CURVE SMOOTH",
"404 208 LINE SMOOTH",
"483 208 OFFCURVE",
"515 250 OFFCURVE",
"500 329 CURVE SMOOTH",
"486 405 OFFCURVE",
"399 512 OFFCURVE",
"283 512 CURVE SMOOTH",
"146 512 OFFCURVE",
"35 396 OFFCURVE",
"35 256 CURVE SMOOTH"
);
},
{
closed = 1;
nodes = (
"171 366 OFFCURVE",
"213 402 OFFCURVE",
"274 402 CURVE SMOOTH",
"335 402 OFFCURVE",
"374 366 OFFCURVE",
"385 330 CURVE SMOOTH",
"391 311 OFFCURVE",
"381 299 OFFCURVE",
"361 299 CURVE SMOOTH",
"186 299 LINE SMOOTH",
"166 299 OFFCURVE",
"157 310 OFFCURVE",
"162 331 CURVE SMOOTH"
);
}
);
width = 539;
}
);
leftMetricsKey = o;
rightMetricsKey = o;
unicode = 0065;
},
{
glyphname = f;
lastChange = "2020-01-05 10:14:18 +0000";
layers = (
{
layerId = "321F49B6-0EE7-433E-A02E-D3810DADA826";
paths = (
{
closed = 1;
nodes = (
"213 0 OFFCURVE",
"244 30 OFFCURVE",
"244 69 CURVE SMOOTH",
"244 107 OFFCURVE",
"213 138 OFFCURVE",
"175 138 CURVE SMOOTH",
"136 138 OFFCURVE",
"105 107 OFFCURVE",
"105 69 CURVE SMOOTH",
"105 30 OFFCURVE",
"136 0 OFFCURVE",
"175 0 CURVE SMOOTH"
);
},
{
closed = 1;
nodes = (
"213 522 OFFCURVE",
"244 552 OFFCURVE",
"244 591 CURVE SMOOTH",
"244 629 OFFCURVE",
"213 660 OFFCURVE",
"175 660 CURVE SMOOTH",
"136 660 OFFCURVE",
"105 629 OFFCURVE",
"105 591 CURVE SMOOTH",
"105 552 OFFCURVE",
"136 522 OFFCURVE",
"175 522 CURVE SMOOTH"
);
},
{
closed = 1;
nodes = (
"50 437 OFFCURVE",
"61 419 OFFCURVE",
"83 412 CURVE SMOOTH",
"96 408 OFFCURVE",
"105 402 OFFCURVE",
"105 392 CURVE SMOOTH",
"105 69 LINE",
"244 69 LINE",
"244 392 LINE SMOOTH",
"244 402 OFFCURVE",
"251 409 OFFCURVE",
"261 411 CURVE SMOOTH",
"285 417 OFFCURVE",
"298 435 OFFCURVE",
"298 457 CURVE SMOOTH",
"298 477 OFFCURVE",
"286 496 OFFCURVE",
"261 502 CURVE SMOOTH",
"251 505 OFFCURVE",
"244 511 OFFCURVE",
"244 521 CURVE SMOOTH",
"244 591 LINE",
"105 591 LINE",
"105 521 LINE SMOOTH",
"105 511 OFFCURVE",
"98 504 OFFCURVE",
"88 502 CURVE SMOOTH",
"64 496 OFFCURVE",
"50 478 OFFCURVE",
"50 457 CURVE SMOOTH"
);
},
{
closed = 1;
nodes = (
"282 590 CURVE SMOOTH",
"300 593 OFFCURVE",
"350 586 OFFCURVE",
"350 639 CURVE SMOOTH",
"350 694 OFFCURVE",
"292 699 OFFCURVE",
"200 693 CURVE SMOOTH",
"127 688 OFFCURVE",
"105 639 OFFCURVE",
"105 590 CURVE SMOOTH",
"105 474 LINE",
"244 474 LINE",
"244 539 LINE SMOOTH",
"244 568 OFFCURVE",
"260 586 OFFCURVE"
);
}
);
width = 370;
}
);
unicode = 0066;
},
{
glyphname = g;
lastChange = "2020-01-05 10:14:28 +0000";
layers = (
{
backgroundImage = {
crop = "{{0, 0}, {110, 161}}";
imagePath = images/CHERRY_DS_PGUP.jpg;
locked = "1";
transform = "{5.28646, 0.16394, -0.16394, 5.28646, 1, -259}";
};
layerId = "321F49B6-0EE7-433E-A02E-D3810DADA826";
paths = (
{
closed = 1;
nodes = (
"20 115 OFFCURVE",
"115 21 OFFCURVE",
"247 21 CURVE SMOOTH",
"306 21 OFFCURVE",
"335 74 OFFCURVE",
"360 74 CURVE SMOOTH",
"388 74 OFFCURVE",
"394 -48 OFFCURVE",
"300 -63 CURVE SMOOTH",
"230 -74 OFFCURVE",
"199 -48 OFFCURVE",
"175 -24 CURVE SMOOTH",
"150 1 OFFCURVE",
"113 19 OFFCURVE",
"78 -7 CURVE SMOOTH",
"34 -39 OFFCURVE",
"76 -99 OFFCURVE",
"94 -115 CURVE SMOOTH",
"126 -142 OFFCURVE",
"170 -184 OFFCURVE",
"298 -184 CURVE SMOOTH",
"483 -184 OFFCURVE",
"503 -31 OFFCURVE",
"503 8 CURVE SMOOTH",
"503 442 LINE SMOOTH",
"503 480 OFFCURVE",
"472 511 OFFCURVE",
"433 511 CURVE SMOOTH",
"414 511 OFFCURVE",
"397 503 OFFCURVE",
"384 490 CURVE SMOOTH",
"376 481 OFFCURVE",
"365 479 OFFCURVE",
"354 485 CURVE SMOOTH",
"322 502 OFFCURVE",
"286 512 OFFCURVE",
"247 512 CURVE SMOOTH",
"115 512 OFFCURVE",
"20 396 OFFCURVE",
"20 256 CURVE SMOOTH"
);
},
{
closed = 1;
nodes = (
"150 336 OFFCURVE",
"199 400 OFFCURVE",
"259 400 CURVE SMOOTH",
"320 400 OFFCURVE",
"369 336 OFFCURVE",
"369 256 CURVE SMOOTH",
"369 176 OFFCURVE",
"320 112 OFFCURVE",
"259 112 CURVE SMOOTH",
"199 112 OFFCURVE",
"150 176 OFFCURVE",
"150 256 CURVE SMOOTH"
);
}
);
width = 553;
}
);
unicode = 0067;
},
{
glyphname = h;
lastChange = "2020-01-05 10:00:05 +0000";
layers = (
{
layerId = "321F49B6-0EE7-433E-A02E-D3810DADA826";
paths = (
{
closed = 1;
nodes = (
"70 69 LINE",
"209 69 LINE",
"209 644 LINE",
"70 644 LINE"
);
},
{
closed = 1;
nodes = (
"178 0 OFFCURVE",
"209 30 OFFCURVE",
"209 69 CURVE SMOOTH",
"209 107 OFFCURVE",
"178 138 OFFCURVE",
"140 138 CURVE SMOOTH",
"101 138 OFFCURVE",
"70 107 OFFCURVE",
"70 69 CURVE SMOOTH",
"70 30 OFFCURVE",
"101 0 OFFCURVE",
"140 0 CURVE SMOOTH"
);
},
{
closed = 1;
nodes = (
"480 0 OFFCURVE",
"511 30 OFFCURVE",
"511 69 CURVE SMOOTH",
"511 107 OFFCURVE",
"480 138 OFFCURVE",
"442 138 CURVE SMOOTH",
"403 138 OFFCURVE",
"372 107 OFFCURVE",
"372 69 CURVE SMOOTH",
"372 30 OFFCURVE",
"403 0 OFFCURVE",
"442 0 CURVE SMOOTH"
);
},
{
closed = 1;
nodes = (
"70 422 OFFCURVE",
"101 392 OFFCURVE",
"140 392 CURVE SMOOTH",
"170 392 OFFCURVE",
"196 411 OFFCURVE",
"205 439 CURVE",
"209 342 LINE",
"209 382 OFFCURVE",
"251 406 OFFCURVE",
"291 406 CURVE SMOOTH",
"332 406 OFFCURVE",
"372 380 OFFCURVE",
"372 342 CURVE SMOOTH",
"372 69 LINE",
"511 69 LINE",
"511 377 LINE SMOOTH",
"511 452 OFFCURVE",
"449 530 OFFCURVE",
"345 530 CURVE SMOOTH",
"283 530 OFFCURVE",
"249 507 OFFCURVE",
"228 491 CURVE SMOOTH",
"217 483 OFFCURVE",
"209 491 OFFCURVE",
"209 514 CURVE SMOOTH",
"209 537 OFFCURVE",
"163 530 OFFCURVE",
"140 530 CURVE SMOOTH",
"101 530 OFFCURVE",
"70 499 OFFCURVE",
"70 461 CURVE SMOOTH"
);
},
{
closed = 1;
nodes = (
"178 574 OFFCURVE",
"209 604 OFFCURVE",
"209 643 CURVE SMOOTH",
"209 681 OFFCURVE",
"178 712 OFFCURVE",
"140 712 CURVE SMOOTH",
"101 712 OFFCURVE",
"70 681 OFFCURVE",
"70 643 CURVE SMOOTH",
"70 604 OFFCURVE",
"101 574 OFFCURVE",
"140 574 CURVE SMOOTH"
);
}
);
width = 581;
}
);
leftMetricsKey = n;
rightMetricsKey = n;
unicode = 0068;
},
{
glyphname = i;
lastChange = "2020-01-05 10:00:05 +0000";
layers = (
{
layerId = "321F49B6-0EE7-433E-A02E-D3810DADA826";
paths = (
{
closed = 1;
nodes = (
"189 0 OFFCURVE",
"220 30 OFFCURVE",
"220 69 CURVE SMOOTH",
"220 107 OFFCURVE",
"189 138 OFFCURVE",
"151 138 CURVE SMOOTH",
"112 138 OFFCURVE",
"81 107 OFFCURVE",
"81 69 CURVE SMOOTH",
"81 30 OFFCURVE",
"112 0 OFFCURVE",
"151 0 CURVE SMOOTH"
);
},
{
closed = 1;
nodes = (
"189 381 OFFCURVE",
"220 411 OFFCURVE",
"220 450 CURVE SMOOTH",
"220 488 OFFCURVE",
"189 519 OFFCURVE",
"151 519 CURVE SMOOTH",
"112 519 OFFCURVE",
"81 488 OFFCURVE",
"81 450 CURVE SMOOTH",
"81 411 OFFCURVE",
"112 381 OFFCURVE",
"151 381 CURVE SMOOTH"
);
},
{
closed = 1;
nodes = (
"81 69 LINE",
"220 69 LINE",
"220 450 LINE",
"81 450 LINE"
);
},
{
closed = 1;
nodes = (
"195 578 OFFCURVE",
"231 613 OFFCURVE",
"231 658 CURVE SMOOTH",
"231 702 OFFCURVE",
"195 738 OFFCURVE",
"151 738 CURVE SMOOTH",
"106 738 OFFCURVE",
"70 702 OFFCURVE",
"70 658 CURVE SMOOTH",
"70 613 OFFCURVE",
"106 578 OFFCURVE",
"151 578 CURVE SMOOTH"
);
}
);
width = 301;
}
);
leftMetricsKey = n;
rightMetricsKey = n;
unicode = 0069;
},
{
glyphname = j;
lastChange = "2020-01-05 10:00:05 +0000";
layers = (
{
layerId = "321F49B6-0EE7-433E-A02E-D3810DADA826";
paths = (
{
closed = 1;
nodes = (
"284 0 OFFCURVE",
"315 30 OFFCURVE",
"315 69 CURVE SMOOTH",
"315 107 OFFCURVE",
"284 138 OFFCURVE",
"246 138 CURVE SMOOTH",
"207 138 OFFCURVE",
"176 107 OFFCURVE",
"176 69 CURVE SMOOTH",
"176 30 OFFCURVE",
"207 0 OFFCURVE",
"246 0 CURVE SMOOTH"
);
},
{
closed = 1;
nodes = (
"315 69 LINE",
"315 450 LINE",
"176 450 LINE",
"176 69 LINE"
);
},
{
closed = 1;
nodes = (
"284 381 OFFCURVE",
"315 411 OFFCURVE",
"315 450 CURVE SMOOTH",
"315 488 OFFCURVE",
"284 519 OFFCURVE",
"246 519 CURVE SMOOTH",
"207 519 OFFCURVE",
"176 488 OFFCURVE",
"176 450 CURVE SMOOTH",
"176 411 OFFCURVE",
"207 381 OFFCURVE",
"246 381 CURVE SMOOTH"
);
},
{
closed = 1;
nodes = (
"290 578 OFFCURVE",
"326 613 OFFCURVE",
"326 658 CURVE SMOOTH",
"326 702 OFFCURVE",
"290 738 OFFCURVE",
"246 738 CURVE SMOOTH",
"201 738 OFFCURVE",
"165 702 OFFCURVE",
"165 658 CURVE SMOOTH",
"165 613 OFFCURVE",
"201 578 OFFCURVE",
"246 578 CURVE SMOOTH"
);
},
{
closed = 1;
nodes = (
"138 -47 CURVE SMOOTH",
"120 -50 OFFCURVE",
"70 -54 OFFCURVE",
"70 -118 CURVE SMOOTH",
"70 -184 OFFCURVE",
"149 -192 OFFCURVE",
"235 -167 CURVE SMOOTH",
"306 -146 OFFCURVE",
"315 -96 OFFCURVE",
"315 -47 CURVE SMOOTH",
"315 69 LINE",
"176 69 LINE",
"176 -6 LINE SMOOTH",
"176 -35 OFFCURVE",
"160 -43 OFFCURVE"
);
}
);
width = 396;
}
);
leftMetricsKey = n;
rightMetricsKey = n;
unicode = 006A;
},
{
glyphname = k;
lastChange = "2020-01-05 10:16:39 +0000";
layers = (
{
backgroundImage = {
crop = "{{0, 0}, {457, 195}}";
imagePath = images/CHERRY_DS_SCROLL.jpg;
locked = "1";
transform = "{4.95725, 0, 0, 4.95725, -1735, -126}";
};
layerId = "321F49B6-0EE7-433E-A02E-D3810DADA826";
paths = (
{
closed = 1;
nodes = (
"63 30 OFFCURVE",
"94 0 OFFCURVE",
"133 0 CURVE SMOOTH",
"171 0 OFFCURVE",
"202 30 OFFCURVE",
"202 69 CURVE SMOOTH",
"202 133 OFFCURVE",
"203 144 OFFCURVE",
"216 169 CURVE SMOOTH",
"228 192 OFFCURVE",
"255 192 OFFCURVE",
"269 170 CURVE SMOOTH",
"298 121 OFFCURVE",
"328 64 OFFCURVE",
"358 22 CURVE",
"370 8 OFFCURVE",
"387 0 OFFCURVE",
"406 0 CURVE SMOOTH",
"439 0 OFFCURVE",
"466 27 OFFCURVE",
"466 62 CURVE SMOOTH",
"466 79 OFFCURVE",
"459 94 OFFCURVE",
"447 114 CURVE SMOOTH",
"418 163 OFFCURVE",
"385 211 OFFCURVE",
"351 260 CURVE SMOOTH",
"340 276 OFFCURVE",
"345 294 OFFCURVE",
"358 307 CURVE SMOOTH",
"426 371 LINE",
"439 386 OFFCURVE",
"448 402 OFFCURVE",
"448 422 CURVE SMOOTH",
"448 455 OFFCURVE",
"421 482 OFFCURVE",
"388 482 CURVE SMOOTH",
"362 482 OFFCURVE",
"340 461 OFFCURVE",
"320 439 CURVE SMOOTH",
"250 358 LINE SMOOTH",
"236 341 OFFCURVE",
"213 344 OFFCURVE",
"208 365 CURVE SMOOTH",
"202 403 OFFCURVE",
"202 459 OFFCURVE",
"202 591 CURVE SMOOTH",
"202 629 OFFCURVE",
"171 660 OFFCURVE",
"133 660 CURVE SMOOTH",
"94 660 OFFCURVE",
"63 629 OFFCURVE",
"63 591 CURVE SMOOTH",
"63 69 LINE SMOOTH"
);
}
);
width = 486;
}
);
unicode = 006B;
},
{
glyphname = l;
lastChange = "2020-01-05 10:00:05 +0000";
layers = (
{
layerId = "321F49B6-0EE7-433E-A02E-D3810DADA826";
paths = (
{
closed = 1;
nodes = (
"178 0 OFFCURVE",
"209 30 OFFCURVE",
"209 69 CURVE SMOOTH",
"209 107 OFFCURVE",
"178 138 OFFCURVE",
"140 138 CURVE SMOOTH",
"101 138 OFFCURVE",
"70 107 OFFCURVE",
"70 69 CURVE SMOOTH",
"70 30 OFFCURVE",
"101 0 OFFCURVE",
"140 0 CURVE SMOOTH"
);
},
{
closed = 1;
nodes = (
"178 522 OFFCURVE",
"209 552 OFFCURVE",
"209 591 CURVE SMOOTH",
"209 629 OFFCURVE",
"178 660 OFFCURVE",
"140 660 CURVE SMOOTH",
"101 660 OFFCURVE",
"70 629 OFFCURVE",
"70 591 CURVE SMOOTH",
"70 552 OFFCURVE",
"101 522 OFFCURVE",
"140 522 CURVE SMOOTH"
);
},
{
closed = 1;
nodes = (
"70 69 LINE",
"209 69 LINE",
"209 591 LINE",
"70 591 LINE"
);
}
);
width = 279;
}
);
leftMetricsKey = n;
rightMetricsKey = n;
unicode = 006C;
},
{
glyphname = m;
lastChange = "2020-01-05 10:00:05 +0000";
layers = (
{
backgroundImage = {
crop = "{{0, 0}, {508, 172}}";
imagePath = images/CHERRY_DS_HOME.jpg;
locked = "1";
transform = "{5.09181, 0, 0, 5.09181, -1211, -116}";
};
layerId = "321F49B6-0EE7-433E-A02E-D3810DADA826";
paths = (
{
closed = 1;
nodes = (
"70 30 OFFCURVE",
"101 0 OFFCURVE",
"140 0 CURVE SMOOTH",
"178 0 OFFCURVE",
"209 30 OFFCURVE",
"209 69 CURVE SMOOTH",
"209 318 LINE SMOOTH",
"209 362 OFFCURVE",
"236 396 OFFCURVE",
"282 396 CURVE SMOOTH",
"323 396 OFFCURVE",
"345 380 OFFCURVE",
"345 318 CURVE SMOOTH",
"345 69 LINE SMOOTH",
"345 30 OFFCURVE",
"376 0 OFFCURVE",
"415 0 CURVE SMOOTH",
"453 0 OFFCURVE",
"484 30 OFFCURVE",
"484 69 CURVE",
"483 317 LINE",
"483 357 OFFCURVE",
"504 396 OFFCURVE",
"552 396 CURVE SMOOTH",
"593 396 OFFCURVE",
"620 380 OFFCURVE",
"620 317 CURVE SMOOTH",
"620 69 LINE SMOOTH",
"620 30 OFFCURVE",
"651 0 OFFCURVE",
"690 0 CURVE SMOOTH",
"728 0 OFFCURVE",
"759 30 OFFCURVE",
"759 69 CURVE SMOOTH",
"759 377 LINE SMOOTH",
"759 452 OFFCURVE",
"697 530 OFFCURVE",
"593 530 CURVE SMOOTH",
"543 530 OFFCURVE",
"505 507 OFFCURVE",
"481 483 CURVE SMOOTH",
"467 469 OFFCURVE",
"453 469 OFFCURVE",
"439 483 CURVE SMOOTH",
"411 511 OFFCURVE",
"370 530 OFFCURVE",
"318 530 CURVE SMOOTH",
"273 530 OFFCURVE",
"243 519 OFFCURVE",
"222 506 CURVE SMOOTH",
"209 498 OFFCURVE",
"198 501 OFFCURVE",
"187 511 CURVE SMOOTH",
"174 523 OFFCURVE",
"158 530 OFFCURVE",
"140 530 CURVE SMOOTH",
"101 530 OFFCURVE",
"70 499 OFFCURVE",
"70 461 CURVE SMOOTH",
"70 69 LINE SMOOTH"
);
}
);
width = 829;
}
);
leftMetricsKey = n;
rightMetricsKey = n;
unicode = 006D;
},
{
glyphname = n;
lastChange = "2020-01-05 10:14:06 +0000";
layers = (
{
backgroundImage = {
crop = "{{0, 0}, {274, 108}}";
imagePath = images/Cherry_DS_ENTER.jpg;
locked = "1";
transform = "{9.61727, 0, 0, 9.61727, -690, -157}";
};
layerId = "321F49B6-0EE7-433E-A02E-D3810DADA826";
paths = (
{
closed = 1;
nodes = (
"50 69 LINE",
"189 69 LINE",
"189 461 LINE",
"50 461 LINE"
);
},
{
closed = 1;
nodes = (
"158 0 OFFCURVE",
"189 30 OFFCURVE",
"189 69 CURVE SMOOTH",
"189 107 OFFCURVE",
"158 138 OFFCURVE",
"120 138 CURVE SMOOTH",
"81 138 OFFCURVE",
"50 107 OFFCURVE",
"50 69 CURVE SMOOTH",
"50 30 OFFCURVE",
"81 0 OFFCURVE",
"120 0 CURVE SMOOTH"
);
},
{
closed = 1;
nodes = (
"460 0 OFFCURVE",
"491 30 OFFCURVE",
"491 69 CURVE SMOOTH",
"491 107 OFFCURVE",
"460 138 OFFCURVE",
"422 138 CURVE SMOOTH",
"383 138 OFFCURVE",
"352 107 OFFCURVE",
"352 69 CURVE SMOOTH",
"352 30 OFFCURVE",
"383 0 OFFCURVE",
"422 0 CURVE SMOOTH"
);
},
{
closed = 1;
nodes = (
"50 422 OFFCURVE",
"81 392 OFFCURVE",
"120 392 CURVE SMOOTH",
"150 392 OFFCURVE",
"176 411 OFFCURVE",
"185 439 CURVE",
"189 342 LINE",
"189 382 OFFCURVE",
"231 406 OFFCURVE",
"271 406 CURVE SMOOTH",
"312 406 OFFCURVE",
"352 380 OFFCURVE",
"352 342 CURVE SMOOTH",
"352 69 LINE",
"491 69 LINE",
"491 377 LINE SMOOTH",
"491 452 OFFCURVE",
"429 530 OFFCURVE",
"325 530 CURVE SMOOTH",
"263 530 OFFCURVE",
"229 507 OFFCURVE",
"208 491 CURVE SMOOTH",
"197 483 OFFCURVE",
"185 489 OFFCURVE",
"177 501 CURVE SMOOTH",
"164 519 OFFCURVE",
"143 530 OFFCURVE",
"120 530 CURVE SMOOTH",
"81 530 OFFCURVE",
"50 499 OFFCURVE",
"50 461 CURVE SMOOTH"
);
}
);
width = 541;
}
);
unicode = 006E;
},
{
glyphname = o;
lastChange = "2020-01-05 10:36:32 +0000";
layers = (
{
backgroundImage = {
crop = "{{0, 0}, {508, 172}}";
imagePath = images/CHERRY_DS_HOME.jpg;
locked = "1";
transform = "{5.06121, 0, 0, 5.06121, -639, -139}";
};
layerId = "321F49B6-0EE7-433E-A02E-D3810DADA826";
paths = (
{
closed = 1;
nodes = (
"35 115 OFFCURVE",
"146 0 OFFCURVE",
"283 0 CURVE SMOOTH",
"420 0 OFFCURVE",
"530 115 OFFCURVE",
"530 256 CURVE SMOOTH",
"530 396 OFFCURVE",
"420 512 OFFCURVE",
"283 512 CURVE SMOOTH",
"146 512 OFFCURVE",
"35 396 OFFCURVE",
"35 256 CURVE SMOOTH"
);
},
{
closed = 1;
nodes = (
"164 336 OFFCURVE",
"217 400 OFFCURVE",
"283 400 CURVE SMOOTH",
"347 400 OFFCURVE",
"400 336 OFFCURVE",
"400 256 CURVE SMOOTH",
"400 176 OFFCURVE",
"347 112 OFFCURVE",
"283 112 CURVE SMOOTH",
"217 112 OFFCURVE",
"164 176 OFFCURVE",
"164 256 CURVE SMOOTH"
);
}
);
width = 565;
}
);
leftKerningGroup = o;
leftMetricsKey = "=n/2";
rightKerningGroup = o;
rightMetricsKey = "=n/2";
unicode = 006F;
},
{
glyphname = p;
lastChange = "2020-01-05 10:59:27 +0000";
layers = (
{
backgroundImage = {
crop = "{{0, 0}, {69, 91}}";
imagePath = images/Cherry_DS_BACKSPACE.jpg;
locked = "1";
transform = "{9.5264, 0, 0, 9.5264, -45, -241}";
};
layerId = "321F49B6-0EE7-433E-A02E-D3810DADA826";
paths = (
{
closed = 1;
nodes = (
"50 -119 OFFCURVE",
"81 -149 OFFCURVE",
"120 -149 CURVE SMOOTH",
"158 -149 OFFCURVE",
"189 -119 OFFCURVE",
"189 -80 CURVE SMOOTH",
"189 -15 LINE SMOOTH",
"189 8 OFFCURVE",
"209 20 OFFCURVE",
"232 13 CURVE SMOOTH",
"255 5 OFFCURVE",
"280 0 OFFCURVE",
"306 0 CURVE SMOOTH",
"438 0 OFFCURVE",
"533 115 OFFCURVE",
"533 256 CURVE SMOOTH",
"533 396 OFFCURVE",
"438 512 OFFCURVE",
"306 512 CURVE SMOOTH",
"267 512 OFFCURVE",
"230 502 OFFCURVE",
"198 484 CURVE SMOOTH",
"188 479 OFFCURVE",
"178 481 OFFCURVE",
"169 490 CURVE SMOOTH",
"156 503 OFFCURVE",
"139 511 OFFCURVE",
"120 511 CURVE SMOOTH",
"81 511 OFFCURVE",
"50 480 OFFCURVE",
"50 442 CURVE SMOOTH",
"50 -80 LINE SMOOTH"
);
},
{
closed = 1;
nodes = (
"184 336 OFFCURVE",
"233 400 OFFCURVE",
"294 400 CURVE SMOOTH",
"354 400 OFFCURVE",
"403 336 OFFCURVE",
"403 256 CURVE SMOOTH",
"403 176 OFFCURVE",
"354 112 OFFCURVE",
"294 112 CURVE SMOOTH",
"233 112 OFFCURVE",
"184 176 OFFCURVE",
"184 256 CURVE SMOOTH"
);
}
);
width = 568;
}
);
rightMetricsKey = o;
unicode = 0070;
},
{
glyphname = q;
lastChange = "2020-01-05 10:01:09 +0000";
layers = (
{
layerId = "321F49B6-0EE7-433E-A02E-D3810DADA826";
paths = (
{
closed = 1;
nodes = (
"35 115 OFFCURVE",
"130 0 OFFCURVE",
"262 0 CURVE SMOOTH",
"288 0 OFFCURVE",
"313 5 OFFCURVE",
"336 13 CURVE SMOOTH",
"359 20 OFFCURVE",
"379 8 OFFCURVE",
"379 -15 CURVE SMOOTH",
"379 -80 LINE SMOOTH",
"379 -119 OFFCURVE",
"410 -149 OFFCURVE",
"448 -149 CURVE SMOOTH",
"487 -149 OFFCURVE",
"518 -119 OFFCURVE",
"518 -80 CURVE SMOOTH",
"518 442 LINE SMOOTH",
"518 480 OFFCURVE",
"487 511 OFFCURVE",
"448 511 CURVE SMOOTH",
"429 511 OFFCURVE",
"412 503 OFFCURVE",
"399 490 CURVE SMOOTH",
"391 481 OFFCURVE",
"380 479 OFFCURVE",
"369 485 CURVE SMOOTH",
"337 502 OFFCURVE",
"301 512 OFFCURVE",
"262 512 CURVE SMOOTH",
"130 512 OFFCURVE",
"35 396 OFFCURVE",
"35 256 CURVE SMOOTH"
);
},
{
closed = 1;
nodes = (
"165 336 OFFCURVE",
"214 400 OFFCURVE",
"274 400 CURVE SMOOTH",
"335 400 OFFCURVE",
"384 336 OFFCURVE",
"384 256 CURVE SMOOTH",
"384 176 OFFCURVE",
"335 112 OFFCURVE",
"274 112 CURVE SMOOTH",
"214 112 OFFCURVE",
"165 176 OFFCURVE",
"165 256 CURVE SMOOTH"
);
}
);
width = 588;
}
);
leftMetricsKey = o;
rightMetricsKey = n;
unicode = 0071;
},
{
glyphname = r;
lastChange = "2020-01-05 10:23:04 +0000";
layers = (
{
backgroundImage = {
crop = "{{0, 0}, {274, 108}}";
imagePath = images/Cherry_DS_ENTER.jpg;
locked = "1";
transform = "{9.2727, 0, 0, 9.2727, -2107, -123}";
};
layerId = "321F49B6-0EE7-433E-A02E-D3810DADA826";
paths = (
{
closed = 1;
nodes = (
"189 69 LINE",
"189 461 LINE",
"50 461 LINE",
"50 69 LINE"
);
},
{
closed = 1;
nodes = (
"50 30 OFFCURVE",
"81 0 OFFCURVE",
"120 0 CURVE SMOOTH",
"158 0 OFFCURVE",
"189 30 OFFCURVE",
"189 69 CURVE SMOOTH",
"189 107 OFFCURVE",
"158 138 OFFCURVE",
"120 138 CURVE SMOOTH",
"81 138 OFFCURVE",
"50 107 OFFCURVE",
"50 69 CURVE SMOOTH"
);
},
{
closed = 1;
nodes = (
"50 422 OFFCURVE",
"81 392 OFFCURVE",
"120 392 CURVE SMOOTH",
"150 392 OFFCURVE",
"176 411 OFFCURVE",
"185 439 CURVE",
"189 320 LINE",
"189 360 OFFCURVE",
"218 392 OFFCURVE",
"257 403 CURVE SMOOTH",
"290 412 OFFCURVE",
"331 422 OFFCURVE",
"340 451 CURVE SMOOTH",
"348 478 OFFCURVE",
"343 516 OFFCURVE",
"316 523 CURVE SMOOTH",
"262 537 OFFCURVE",
"229 507 OFFCURVE",
"208 491 CURVE SMOOTH",
"197 483 OFFCURVE",
"185 489 OFFCURVE",
"177 501 CURVE SMOOTH",
"165 519 OFFCURVE",
"143 530 OFFCURVE",
"120 530 CURVE SMOOTH",
"81 530 OFFCURVE",
"50 499 OFFCURVE",
"50 461 CURVE SMOOTH"
);
}
);
width = 373;
}
);
leftMetricsKey = n;
unicode = 0072;
},
{
glyphname = s;
lastChange = "2020-01-05 10:23:18 +0000";
layers = (
{
backgroundImage = {
crop = "{{0, 0}, {562, 189}}";
imagePath = images/CHERRY_DS_PAUSE.jpg;
locked = "1";
transform = "{5.028, 0, 0, 5.028, -1752, -182}";
};
layerId = "321F49B6-0EE7-433E-A02E-D3810DADA826";
paths = (
{
closed = 1;
nodes = (
"449 225 OFFCURVE",
"399 307 OFFCURVE",
"271 307 CURVE SMOOTH",
"215 307 OFFCURVE",
"161 334 OFFCURVE",
"161 362 CURVE SMOOTH",
"161 392 OFFCURVE",
"180 414 OFFCURVE",
"228 414 CURVE SMOOTH",
"257 414 OFFCURVE",
"282 403 OFFCURVE",
"303 392 CURVE SMOOTH",
"322 382 OFFCURVE",
"361 374 OFFCURVE",
"382 392 CURVE SMOOTH",
"401 408 OFFCURVE",
"400 453 OFFCURVE",
"365 477 CURVE SMOOTH",
"337 496 OFFCURVE",
"308 513 OFFCURVE",
"228 513 CURVE SMOOTH",
"152 513 OFFCURVE",
"50 468 OFFCURVE",
"50 357 CURVE SMOOTH",
"50 225 OFFCURVE",
"166 210 OFFCURVE",
"247 204 CURVE SMOOTH",
"304 200 OFFCURVE",
"332 182 OFFCURVE",
"332 155 CURVE SMOOTH",
"332 132 OFFCURVE",
"308 109 OFFCURVE",
"250 109 CURVE SMOOTH",
"189 109 OFFCURVE",
"175 121 OFFCURVE",
"158 139 CURVE SMOOTH",
"137 162 OFFCURVE",
"104 176 OFFCURVE",
"81 161 CURVE SMOOTH",
"46 138 OFFCURVE",
"52 97 OFFCURVE",
"69 76 CURVE SMOOTH",
"95 44 OFFCURVE",
"150 7 OFFCURVE",
"256 7 CURVE SMOOTH",
"380 7 OFFCURVE",
"449 95 OFFCURVE",
"449 161 CURVE SMOOTH"
);
}
);
width = 489;
}
);
unicode = 0073;
},
{
glyphname = t;
lastChange = "2020-01-05 10:14:51 +0000";
layers = (
{
backgroundImage = {
crop = "{{0, 0}, {274, 108}}";
imagePath = images/Cherry_DS_ENTER.jpg;
locked = "1";
transform = "{9.617, 0, 0, 9.617, -1243, -157}";
};
layerId = "321F49B6-0EE7-433E-A02E-D3810DADA826";
paths = (
{
closed = 1;
nodes = (
"213 0 OFFCURVE",
"244 30 OFFCURVE",
"244 69 CURVE SMOOTH",
"244 107 OFFCURVE",
"213 138 OFFCURVE",
"175 138 CURVE SMOOTH",
"136 138 OFFCURVE",
"105 107 OFFCURVE",
"105 69 CURVE SMOOTH",
"105 30 OFFCURVE",
"136 0 OFFCURVE",
"175 0 CURVE SMOOTH"
);
},
{
closed = 1;
nodes = (
"213 522 OFFCURVE",
"244 552 OFFCURVE",
"244 591 CURVE SMOOTH",
"244 629 OFFCURVE",
"213 660 OFFCURVE",
"175 660 CURVE SMOOTH",
"136 660 OFFCURVE",
"105 629 OFFCURVE",
"105 591 CURVE SMOOTH",
"105 552 OFFCURVE",
"136 522 OFFCURVE",
"175 522 CURVE SMOOTH"
);
},
{
closed = 1;
nodes = (
"50 437 OFFCURVE",
"61 419 OFFCURVE",
"83 412 CURVE SMOOTH",
"96 408 OFFCURVE",
"105 402 OFFCURVE",
"105 392 CURVE SMOOTH",
"105 69 LINE",
"244 69 LINE",
"244 392 LINE SMOOTH",
"244 402 OFFCURVE",
"251 409 OFFCURVE",
"261 411 CURVE SMOOTH",
"285 417 OFFCURVE",
"298 435 OFFCURVE",
"298 457 CURVE SMOOTH",
"298 477 OFFCURVE",
"286 496 OFFCURVE",
"261 502 CURVE SMOOTH",
"251 505 OFFCURVE",
"244 511 OFFCURVE",
"244 521 CURVE SMOOTH",
"244 591 LINE",
"105 591 LINE",
"105 521 LINE SMOOTH",
"105 511 OFFCURVE",
"98 504 OFFCURVE",
"88 502 CURVE SMOOTH",
"64 496 OFFCURVE",
"50 478 OFFCURVE",
"50 457 CURVE SMOOTH"
);
}
);
width = 348;
}
);
unicode = 0074;
},
{
glyphname = u;
lastChange = "2020-01-05 10:00:05 +0000";
layers = (
{
layerId = "321F49B6-0EE7-433E-A02E-D3810DADA826";
paths = (
{
closed = 1;
nodes = (
"511 461 LINE",
"372 461 LINE",
"372 69 LINE",
"511 69 LINE"
);
},
{
closed = 1;
nodes = (
"403 530 OFFCURVE",
"372 500 OFFCURVE",
"372 461 CURVE SMOOTH",
"372 423 OFFCURVE",
"403 392 OFFCURVE",
"441 392 CURVE SMOOTH",
"480 392 OFFCURVE",
"511 423 OFFCURVE",
"511 461 CURVE SMOOTH",
"511 500 OFFCURVE",
"480 530 OFFCURVE",
"441 530 CURVE SMOOTH"
);
},
{
closed = 1;
nodes = (
"101 530 OFFCURVE",
"70 500 OFFCURVE",
"70 461 CURVE SMOOTH",
"70 423 OFFCURVE",
"101 392 OFFCURVE",
"139 392 CURVE SMOOTH",
"178 392 OFFCURVE",
"209 423 OFFCURVE",
"209 461 CURVE SMOOTH",
"209 500 OFFCURVE",
"178 530 OFFCURVE",
"139 530 CURVE SMOOTH"
);
},
{
closed = 1;
nodes = (
"511 108 OFFCURVE",
"480 138 OFFCURVE",
"441 138 CURVE SMOOTH",
"411 138 OFFCURVE",
"385 119 OFFCURVE",
"376 91 CURVE",
"372 188 LINE",
"372 148 OFFCURVE",
"330 124 OFFCURVE",
"290 124 CURVE SMOOTH",
"249 124 OFFCURVE",
"209 150 OFFCURVE",
"209 188 CURVE SMOOTH",
"209 461 LINE",
"70 461 LINE",
"70 153 LINE SMOOTH",
"70 78 OFFCURVE",
"132 0 OFFCURVE",
"236 0 CURVE SMOOTH",
"298 0 OFFCURVE",
"332 23 OFFCURVE",
"353 39 CURVE SMOOTH",
"364 47 OFFCURVE",
"376 41 OFFCURVE",
"384 29 CURVE SMOOTH",
"397 11 OFFCURVE",
"418 0 OFFCURVE",
"441 0 CURVE SMOOTH",
"480 0 OFFCURVE",
"511 31 OFFCURVE",
"511 69 CURVE SMOOTH"
);
}
);
width = 581;
}
);
leftMetricsKey = n;
rightMetricsKey = n;
unicode = 0075;
},
{
glyphname = v;
lastChange = "2020-01-05 11:00:49 +0000";
layers = (
{
layerId = "321F49B6-0EE7-433E-A02E-D3810DADA826";
paths = (
{
closed = 1;
nodes = (
"191 51 LINE",
"194 41 OFFCURVE",
"199 32 OFFCURVE",
"207 24 CURVE",
"220 9 OFFCURVE",
"239 1 OFFCURVE",
"259 1 CURVE SMOOTH",
"278 1 OFFCURVE",
"297 9 OFFCURVE",
"310 24 CURVE",
"318 32 OFFCURVE",
"323 41 OFFCURVE",
"326 51 CURVE",
"482 440 LINE SMOOTH",
"496 476 OFFCURVE",
"476 516 OFFCURVE",
"441 529 CURVE SMOOTH",
"404 543 OFFCURVE",
"362 524 OFFCURVE",
"351 488 CURVE SMOOTH",
"280 253 LINE SMOOTH",
"273 231 OFFCURVE",
"244 231 OFFCURVE",
"237 253 CURVE SMOOTH",
"166 488 LINE SMOOTH",
"155 524 OFFCURVE",
"113 543 OFFCURVE",
"76 529 CURVE SMOOTH",
"41 516 OFFCURVE",
"21 476 OFFCURVE",
"35 440 CURVE SMOOTH"
);
}
);
width = 517;
}
);
unicode = 0076;
},
{
glyphname = w;
lastChange = "2020-01-05 11:01:04 +0000";
layers = (
{
layerId = "321F49B6-0EE7-433E-A02E-D3810DADA826";
paths = (
{
closed = 1;
nodes = (
"180 51 LINE",
"183 41 OFFCURVE",
"188 32 OFFCURVE",
"196 24 CURVE",
"209 9 OFFCURVE",
"228 1 OFFCURVE",
"248 1 CURVE SMOOTH",
"267 1 OFFCURVE",
"286 9 OFFCURVE",
"299 24 CURVE",
"307 32 OFFCURVE",
"312 41 OFFCURVE",
"315 51 CURVE",
"384 281 LINE SMOOTH",
"391 303 OFFCURVE",
"420 303 OFFCURVE",
"427 281 CURVE SMOOTH",
"496 51 LINE",
"499 41 OFFCURVE",
"504 32 OFFCURVE",
"512 24 CURVE",
"525 9 OFFCURVE",
"544 1 OFFCURVE",
"564 1 CURVE SMOOTH",
"583 1 OFFCURVE",
"602 9 OFFCURVE",
"615 24 CURVE",
"623 32 OFFCURVE",
"628 41 OFFCURVE",
"631 51 CURVE",
"787 440 LINE SMOOTH",
"802 476 OFFCURVE",
"781 516 OFFCURVE",
"746 529 CURVE SMOOTH",
"709 543 OFFCURVE",
"665 524 OFFCURVE",
"656 488 CURVE SMOOTH",
"585 213 LINE SMOOTH",
"579 191 OFFCURVE",
"548 191 OFFCURVE",
"542 213 CURVE SMOOTH",
"474 476 LINE",
"471 488 LINE SMOOTH",
"464 516 OFFCURVE",
"435 534 OFFCURVE",
"405 534 CURVE SMOOTH",
"376 534 OFFCURVE",
"347 516 OFFCURVE",
"340 488 CURVE SMOOTH",
"337 476 LINE",
"269 213 LINE SMOOTH",
"263 191 OFFCURVE",
"232 191 OFFCURVE",
"226 213 CURVE SMOOTH",
"155 488 LINE SMOOTH",
"146 524 OFFCURVE",
"102 543 OFFCURVE",
"65 529 CURVE SMOOTH",
"30 516 OFFCURVE",
"9 476 OFFCURVE",
"24 440 CURVE SMOOTH"
);
}
);
width = 811;
}
);
unicode = 0077;
},
{
glyphname = x;
lastChange = "2020-01-05 10:15:30 +0000";
layers = (
{
layerId = "321F49B6-0EE7-433E-A02E-D3810DADA826";
paths = (
{
closed = 1;
nodes = (
"41 76 OFFCURVE",
"49 33 OFFCURVE",
"81 11 CURVE SMOOTH",
"112 -11 OFFCURVE",
"155 -4 OFFCURVE",
"177 28 CURVE SMOOTH",
"232 107 LINE SMOOTH",
"244 125 OFFCURVE",
"268 124 OFFCURVE",
"280 106 CURVE SMOOTH",
"334 29 LINE SMOOTH",
"356 -4 OFFCURVE",
"399 -11 OFFCURVE",
"430 11 CURVE SMOOTH",
"462 33 OFFCURVE",
"470 76 OFFCURVE",
"448 108 CURVE SMOOTH",
"350 248 LINE SMOOTH",
"344 257 OFFCURVE",
"344 265 OFFCURVE",
"350 274 CURVE SMOOTH",
"448 414 LINE SMOOTH",
"471 445 OFFCURVE",
"462 489 OFFCURVE",
"431 511 CURVE SMOOTH",
"399 533 OFFCURVE",
"356 525 OFFCURVE",
"334 494 CURVE SMOOTH",
"280 416 LINE SMOOTH",
"268 398 OFFCURVE",
"244 398 OFFCURVE",
"232 416 CURVE SMOOTH",
"177 494 LINE SMOOTH",
"155 525 OFFCURVE",
"112 533 OFFCURVE",
"80 511 CURVE SMOOTH",
"49 489 OFFCURVE",
"40 445 OFFCURVE",
"63 414 CURVE SMOOTH",
"161 274 LINE SMOOTH",
"167 265 OFFCURVE",
"167 257 OFFCURVE",
"161 248 CURVE SMOOTH",
"63 108 LINE SMOOTH"
);
}
);
width = 511;
}
);
unicode = 0078;
},
{
glyphname = y;
lastChange = "2020-01-05 10:15:37 +0000";
layers = (
{
layerId = "321F49B6-0EE7-433E-A02E-D3810DADA826";
paths = (
{
closed = 1;
nodes = (
"194 109 LINE SMOOTH",
"203 89 OFFCURVE",
"207 70 OFFCURVE",
"207 49 CURVE SMOOTH",
"207 48 LINE SMOOTH",
"207 19 OFFCURVE",
"181 11 OFFCURVE",
"159 7 CURVE SMOOTH",
"141 4 OFFCURVE",
"91 0 OFFCURVE",
"91 -64 CURVE SMOOTH",
"91 -130 OFFCURVE",
"149 -127 OFFCURVE",
"235 -105 CURVE SMOOTH",
"306 -87 OFFCURVE",
"327 -11 OFFCURVE",
"371 95 CURVE SMOOTH",
"502 410 LINE SMOOTH",
"517 446 OFFCURVE",
"496 486 OFFCURVE",
"461 499 CURVE SMOOTH",
"424 513 OFFCURVE",
"385 494 OFFCURVE",
"371 458 CURVE SMOOTH",
"300 273 LINE SMOOTH",
"292 251 OFFCURVE",
"265 251 OFFCURVE",
"257 273 CURVE SMOOTH",
"186 458 LINE SMOOTH",
"172 494 OFFCURVE",
"133 513 OFFCURVE",
"96 499 CURVE SMOOTH",
"61 486 OFFCURVE",
"39 446 OFFCURVE",
"55 410 CURVE SMOOTH"
);
}
);
width = 557;
}
);
unicode = 0079;
},
{
glyphname = z;
lastChange = "2020-01-05 10:15:43 +0000";
layers = (
{
layerId = "321F49B6-0EE7-433E-A02E-D3810DADA826";
paths = (
{
closed = 1;
nodes = (
"50 31 OFFCURVE",
"80 0 OFFCURVE",
"119 0 CURVE SMOOTH",
"389 0 LINE SMOOTH",
"427 0 OFFCURVE",
"458 31 OFFCURVE",
"458 69 CURVE SMOOTH",
"458 108 OFFCURVE",
"427 139 OFFCURVE",
"389 139 CURVE SMOOTH",
"310 139 LINE SMOOTH",
"279 139 OFFCURVE",
"264 170 OFFCURVE",
"284 195 CURVE SMOOTH",
"374 310 OFFCURVE",
"458 396 OFFCURVE",
"458 440 CURVE SMOOTH",
"458 479 OFFCURVE",
"427 510 OFFCURVE",
"389 510 CURVE SMOOTH",
"119 510 LINE SMOOTH",
"80 510 OFFCURVE",
"50 479 OFFCURVE",
"50 440 CURVE SMOOTH",
"50 402 OFFCURVE",
"80 371 OFFCURVE",
"119 371 CURVE SMOOTH",
"199 371 LINE SMOOTH",
"231 371 OFFCURVE",
"245 338 OFFCURVE",
"223 312 CURVE SMOOTH",
"122 193 OFFCURVE",
"50 108 OFFCURVE",
"50 69 CURVE SMOOTH"
);
}
);
width = 508;
}
);
unicode = 007A;
},
{
glyphname = zero;
lastChange = "2020-01-01 07:12:25 +0000";
layers = (
{
backgroundImage = {
crop = "{{0, 0}, {161, 205}}";
imagePath = images/Numbers/CHERRY_DS_0.jpg;
locked = "1";
transform = "{3.93525, 0, 0, 3.93525, -16, -45}";
};
layerId = "321F49B6-0EE7-433E-A02E-D3810DADA826";
paths = (
{
closed = 1;
nodes = (
"18 161 OFFCURVE",
"144 0 OFFCURVE",
"301 0 CURVE SMOOTH",
"457 0 OFFCURVE",
"583 161 OFFCURVE",
"583 360 CURVE SMOOTH",
"583 558 OFFCURVE",
"457 720 OFFCURVE",
"301 720 CURVE SMOOTH",
"144 720 OFFCURVE",
"18 558 OFFCURVE",
"18 360 CURVE SMOOTH"
);
},
{
closed = 1;
nodes = (
"159 488 OFFCURVE",
"193 593 OFFCURVE",
"301 593 CURVE SMOOTH",
"408 593 OFFCURVE",
"442 488 OFFCURVE",
"442 360 CURVE SMOOTH",
"442 231 OFFCURVE",
"408 127 OFFCURVE",
"301 127 CURVE SMOOTH",
"193 127 OFFCURVE",
"159 231 OFFCURVE",
"159 360 CURVE SMOOTH"
);
}
);
width = 600;
}
);
unicode = 0030;
},
{
glyphname = one;
lastChange = "2020-01-05 10:20:02 +0000";
layers = (
{
backgroundImage = {
crop = "{{0, 0}, {103, 205}}";
imagePath = images/Numbers/CHERRY_DS_1.jpg;
locked = "1";
transform = "{4.044, 0, 0, 4.044, 120, -32}";
};
layerId = "321F49B6-0EE7-433E-A02E-D3810DADA826";
paths = (
{
closed = 1;
nodes = (
"282 33 OFFCURVE",
"314 0 OFFCURVE",
"354 0 CURVE SMOOTH",
"394 0 OFFCURVE",
"427 33 OFFCURVE",
"427 73 CURVE SMOOTH",
"427 653 LINE SMOOTH",
"427 693 OFFCURVE",
"406 718 OFFCURVE",
"366 718 CURVE SMOOTH",
"326 718 OFFCURVE",
"314 676 OFFCURVE",
"282 648 CURVE SMOOTH",
"255 624 OFFCURVE",
"226 608 OFFCURVE",
"194 591 CURVE SMOOTH",
"168 577 OFFCURVE",
"146 559 OFFCURVE",
"146 535 CURVE SMOOTH",
"146 507 OFFCURVE",
"172 487 OFFCURVE",
"191 483 CURVE SMOOTH",
"212 479 OFFCURVE",
"237 480 OFFCURVE",
"259 480 CURVE SMOOTH",
"282 480 OFFCURVE",
"282 461 OFFCURVE",
"282 441 CURVE SMOOTH",
"282 73 LINE SMOOTH"
);
}
);
width = 600;
}
);
unicode = 0031;
},
{
glyphname = two;
lastChange = "2020-01-05 10:20:08 +0000";
layers = (
{
backgroundImage = {
crop = "{{0, 0}, {143, 203}}";
imagePath = images/Numbers/CHERRY_DS_2.jpg;
locked = "1";
transform = "{3.99056, 0, 0, 3.99056, 24, -30}";
};
layerId = "321F49B6-0EE7-433E-A02E-D3810DADA826";
paths = (
{
closed = 1;
nodes = (
"548 112 OFFCURVE",
"515 128 OFFCURVE",
"475 128 CURVE SMOOTH",
"369 128 OFFCURVE",
"239 110 OFFCURVE",
"239 138 CURVE SMOOTH",
"239 162 OFFCURVE",
"315 227 OFFCURVE",
"365 253 CURVE SMOOTH",
"455 300 OFFCURVE",
"534 381 OFFCURVE",
"541 473 CURVE SMOOTH",
"548 563 OFFCURVE",
"489 705 OFFCURVE",
"332 705 CURVE SMOOTH",
"164 705 OFFCURVE",
"79 625 OFFCURVE",
"75 537 CURVE SMOOTH",
"73 491 OFFCURVE",
"94 460 OFFCURVE",
"136 460 CURVE SMOOTH",
"232 460 OFFCURVE",
"167 603 OFFCURVE",
"319 590 CURVE SMOOTH",
"355 587 OFFCURVE",
"409 541 OFFCURVE",
"387 460 CURVE SMOOTH",
"364 376 OFFCURVE",
"245 307 OFFCURVE",
"201 267 CURVE SMOOTH",
"145 216 OFFCURVE",
"62 148 OFFCURVE",
"62 61 CURVE SMOOTH",
"62 22 OFFCURVE",
"98 0 OFFCURVE",
"138 0 CURVE SMOOTH",
"475 0 LINE SMOOTH",
"515 0 OFFCURVE",
"548 32 OFFCURVE",
"548 72 CURVE SMOOTH"
);
}
);
width = 600;
}
);
unicode = 0032;
},
{
glyphname = three;
lastChange = "2020-01-05 10:20:15 +0000";
layers = (
{
backgroundImage = {
crop = "{{0, 0}, {142, 203}}";
imagePath = images/Numbers/CHERRY_DS_3.jpg;
locked = "1";
transform = "{3.967, 0, 0, 3.967, 6, -24}";
};
layerId = "321F49B6-0EE7-433E-A02E-D3810DADA826";
paths = (
{
closed = 1;
nodes = (
"161 483 OFFCURVE",
"181 509 OFFCURVE",
"196 534 CURVE SMOOTH",
"214 563 OFFCURVE",
"249 597 OFFCURVE",
"293 597 CURVE SMOOTH",
"331 597 OFFCURVE",
"384 581 OFFCURVE",
"384 526 CURVE SMOOTH",
"384 477 OFFCURVE",
"338 454 OFFCURVE",
"296 445 CURVE SMOOTH",
"277 441 OFFCURVE",
"263 419 OFFCURVE",
"263 390 CURVE SMOOTH",
"263 366 OFFCURVE",
"273 343 OFFCURVE",
"298 331 CURVE SMOOTH",
"344 308 OFFCURVE",
"397 259 OFFCURVE",
"377 192 CURVE SMOOTH",
"365 151 OFFCURVE",
"318 122 OFFCURVE",
"266 122 CURVE SMOOTH",
"227 122 OFFCURVE",
"172 153 OFFCURVE",
"156 193 CURVE SMOOTH",
"144 223 OFFCURVE",
"120 246 OFFCURVE",
"79 239 CURVE SMOOTH",
"49 234 OFFCURVE",
"31 192 OFFCURVE",
"48 146 CURVE SMOOTH",
"81 58 OFFCURVE",
"196 2 OFFCURVE",
"288 1 CURVE SMOOTH",
"394 0 OFFCURVE",
"532 80 OFFCURVE",
"532 208 CURVE SMOOTH",
"532 374 OFFCURVE",
"407 351 OFFCURVE",
"407 389 CURVE SMOOTH",
"407 418 OFFCURVE",
"532 398 OFFCURVE",
"532 545 CURVE SMOOTH",
"532 652 OFFCURVE",
"391 719 OFFCURVE",
"296 719 CURVE SMOOTH",
"208 719 OFFCURVE",
"130 673 OFFCURVE",
"100 614 CURVE SMOOTH",
"80 575 OFFCURVE",
"75 523 OFFCURVE",
"120 502 CURVE SMOOTH"
);
}
);
width = 600;
}
);
unicode = 0033;
},
{
glyphname = four;
lastChange = "2020-01-05 10:17:46 +0000";
layers = (
{
backgroundImage = {
crop = "{{0, 0}, {167, 196}}";
imagePath = images/Numbers/CHERRY_DS_4.jpg;
locked = "1";
transform = "{3.9458, 0, 0, 3.9458, -15, -38}";
};
layerId = "321F49B6-0EE7-433E-A02E-D3810DADA826";
paths = (
{
closed = 1;
nodes = (
"29 203 OFFCURVE",
"73 155 OFFCURVE",
"127 155 CURVE SMOOTH",
"318 155 LINE SMOOTH",
"332 155 OFFCURVE",
"343 143 OFFCURVE",
"343 129 CURVE SMOOTH",
"343 73 LINE SMOOTH",
"343 33 OFFCURVE",
"375 0 OFFCURVE",
"415 0 CURVE SMOOTH",
"455 0 OFFCURVE",
"488 33 OFFCURVE",
"488 73 CURVE SMOOTH",
"488 130 LINE SMOOTH",
"488 144 OFFCURVE",
"500 155 OFFCURVE",
"514 155 CURVE SMOOTH",
"526 155 LINE SMOOTH",
"560 155 OFFCURVE",
"587 182 OFFCURVE",
"587 216 CURVE SMOOTH",
"587 250 OFFCURVE",
"560 278 OFFCURVE",
"526 278 CURVE SMOOTH",
"513 278 LINE SMOOTH",
"499 278 OFFCURVE",
"488 290 OFFCURVE",
"488 304 CURVE SMOOTH",
"488 615 LINE SMOOTH",
"488 664 OFFCURVE",
"449 694 OFFCURVE",
"400 694 CURVE SMOOTH",
"359 694 OFFCURVE",
"338 679 OFFCURVE",
"280 606 CURVE SMOOTH",
"198 503 OFFCURVE",
"149 437 OFFCURVE",
"70 344 CURVE SMOOTH",
"47 317 OFFCURVE",
"29 292 OFFCURVE",
"29 257 CURVE SMOOTH"
);
},
{
closed = 1;
nodes = (
"320 491 LINE SMOOTH",
"334 509 OFFCURVE",
"359 500 OFFCURVE",
"359 478 CURVE SMOOTH",
"359 306 LINE SMOOTH",
"359 290 OFFCURVE",
"347 278 OFFCURVE",
"331 278 CURVE SMOOTH",
"198 278 LINE SMOOTH",
"182 278 OFFCURVE",
"173 294 OFFCURVE",
"183 307 CURVE SMOOTH"
);
}
);
width = 600;
}
);
unicode = 0034;
},
{
glyphname = five;
lastChange = "2020-01-02 07:49:53 +0000";
layers = (
{
backgroundImage = {
crop = "{{0, 0}, {159, 198}}";
imagePath = images/Numbers/CHERRY_DS_5.jpg;
locked = "1";
transform = "{3.947, 0, 0, 3.947, -21, -45}";
};
layerId = "321F49B6-0EE7-433E-A02E-D3810DADA826";
paths = (
{
closed = 1;
nodes = (
"308 573 OFFCURVE",
"358 570 OFFCURVE",
"419 573 CURVE SMOOTH",
"443 573 OFFCURVE",
"483 581 OFFCURVE",
"483 630 CURVE SMOOTH",
"483 673 OFFCURVE",
"452 694 OFFCURVE",
"419 694 CURVE SMOOTH",
"335 696 OFFCURVE",
"254 692 OFFCURVE",
"174 695 CURVE SMOOTH",
"146 696 OFFCURVE",
"123 679 OFFCURVE",
"117 652 CURVE SMOOTH",
"97 561 OFFCURVE",
"90 509 OFFCURVE",
"73 420 CURVE SMOOTH",
"68 395 OFFCURVE",
"61 352 OFFCURVE",
"92 330 CURVE SMOOTH",
"121 309 OFFCURVE",
"163 307 OFFCURVE",
"186 325 CURVE SMOOTH",
"216 348 OFFCURVE",
"264 358 OFFCURVE",
"306 358 CURVE SMOOTH",
"372 358 OFFCURVE",
"415 301 OFFCURVE",
"415 245 CURVE SMOOTH",
"415 180 OFFCURVE",
"358 120 OFFCURVE",
"282 120 CURVE SMOOTH",
"238 120 OFFCURVE",
"183 143 OFFCURVE",
"174 193 CURVE SMOOTH",
"166 236 OFFCURVE",
"126 254 OFFCURVE",
"100 254 CURVE SMOOTH",
"62 254 OFFCURVE",
"38 209 OFFCURVE",
"43 166 CURVE SMOOTH",
"55 65 OFFCURVE",
"146 -1 OFFCURVE",
"289 -1 CURVE SMOOTH",
"497 -1 OFFCURVE",
"558 160 OFFCURVE",
"558 241 CURVE SMOOTH",
"558 349 OFFCURVE",
"466 474 OFFCURVE",
"330 474 CURVE SMOOTH",
"294 474 OFFCURVE",
"261 463 OFFCURVE",
"226 458 CURVE SMOOTH",
"211 456 OFFCURVE",
"203 463 OFFCURVE",
"204 479 CURVE SMOOTH",
"206 509 OFFCURVE",
"210 529 OFFCURVE",
"226 558 CURVE SMOOTH",
"230 566 OFFCURVE",
"240 573 OFFCURVE",
"249 573 CURVE SMOOTH"
);
}
);
width = 600;
}
);
unicode = 0035;
},
{
glyphname = six;
lastChange = "2020-01-05 10:20:34 +0000";
layers = (
{
backgroundImage = {
crop = "{{0, 0}, {155, 208}}";
imagePath = images/Numbers/CHERRY_DS_6.jpg;
locked = "1";
transform = "{3.88035, 0, 0, 3.88035, -11, -39}";
};
layerId = "321F49B6-0EE7-433E-A02E-D3810DADA826";
paths = (
{
closed = 1;
nodes = (
"488 482 OFFCURVE",
"554 345 OFFCURVE",
"554 231 CURVE SMOOTH",
"554 119 OFFCURVE",
"447 1 OFFCURVE",
"303 6 CURVE SMOOTH",
"132 12 OFFCURVE",
"30 106 OFFCURVE",
"42 374 CURVE SMOOTH",
"50 555 OFFCURVE",
"152 714 OFFCURVE",
"299 714 CURVE SMOOTH",
"420 714 OFFCURVE",
"495 664 OFFCURVE",
"521 592 CURVE SMOOTH",
"530 567 OFFCURVE",
"526 530 OFFCURVE",
"498 517 CURVE SMOOTH",
"474 506 OFFCURVE",
"442 503 OFFCURVE",
"417 530 CURVE SMOOTH",
"389 560 OFFCURVE",
"382 601 OFFCURVE",
"310 601 CURVE SMOOTH",
"236 601 OFFCURVE",
"184 501 OFFCURVE",
"190 476 CURVE SMOOTH",
"197 448 OFFCURVE",
"289 482 OFFCURVE",
"334 482 CURVE SMOOTH"
);
},
{
closed = 1;
nodes = (
"248 377 OFFCURVE",
"184 321 OFFCURVE",
"184 251 CURVE SMOOTH",
"184 172 OFFCURVE",
"248 119 OFFCURVE",
"308 119 CURVE SMOOTH",
"390 119 OFFCURVE",
"417 196 OFFCURVE",
"417 250 CURVE SMOOTH",
"417 305 OFFCURVE",
"382 377 OFFCURVE",
"308 377 CURVE SMOOTH"
);
}
);
width = 600;
}
);
unicode = 0036;
},
{
glyphname = seven;
lastChange = "2020-01-01 07:22:59 +0000";
layers = (
{
backgroundImage = {
crop = "{{0, 0}, {166, 210}}";
imagePath = images/Numbers/CHERRY_DS_7.jpg;
locked = "1";
transform = "{3.96381, 0.09713, -0.09713, 3.96381, -14, -70}";
};
layerId = "321F49B6-0EE7-433E-A02E-D3810DADA826";
paths = (
{
closed = 1;
nodes = (
"34 596 OFFCURVE",
"67 563 OFFCURVE",
"107 563 CURVE",
"294 563 OFFCURVE",
"363 581 OFFCURVE",
"363 553 CURVE SMOOTH",
"363 529 OFFCURVE",
"330 505 OFFCURVE",
"294 457 CURVE SMOOTH",
"255 402 OFFCURVE",
"216 333 OFFCURVE",
"202 296 CURVE SMOOTH",
"178 248 OFFCURVE",
"150 140 OFFCURVE",
"140 84 CURVE SMOOTH",
"132 40 OFFCURVE",
"175 4 OFFCURVE",
"219 4 CURVE SMOOTH",
"263 4 OFFCURVE",
"294 39 OFFCURVE",
"299 84 CURVE SMOOTH",
"303 120 OFFCURVE",
"318 200 OFFCURVE",
"356 305 CURVE SMOOTH",
"370 345 OFFCURVE",
"436 457 OFFCURVE",
"473 497 CURVE SMOOTH",
"525 553 OFFCURVE",
"568 572 OFFCURVE",
"568 636 CURVE SMOOTH",
"568 675 OFFCURVE",
"535 708 OFFCURVE",
"495 708 CURVE SMOOTH",
"107 708 LINE SMOOTH",
"67 708 OFFCURVE",
"34 676 OFFCURVE",
"34 636 CURVE SMOOTH"
);
}
);
width = 600;
}
);
unicode = 0037;
},
{
glyphname = eight;
lastChange = "2020-01-02 08:23:13 +0000";
layers = (
{
backgroundImage = {
crop = "{{0, 0}, {159, 209}}";
imagePath = images/Numbers/CHERRY_DS_8.jpg;
locked = "1";
transform = "{4.01029, -0.10408, 0.10408, 4.01029, -24.37, -57.569}";
};
layerId = "321F49B6-0EE7-433E-A02E-D3810DADA826";
paths = (
{
closed = 1;
nodes = (
"37 89 OFFCURVE",
"157 -8 OFFCURVE",
"306 -8 CURVE SMOOTH",
"454 -8 OFFCURVE",
"574 89 OFFCURVE",
"574 213 CURVE SMOOTH",
"574 275 OFFCURVE",
"543 331 OFFCURVE",
"500 370 CURVE SMOOTH",
"483 382 OFFCURVE",
"485 397 OFFCURVE",
"498 412 CURVE SMOOTH",
"513 429 OFFCURVE",
"549 487 OFFCURVE",
"549 535 CURVE SMOOTH",
"549 637 OFFCURVE",
"440 721 OFFCURVE",
"306 721 CURVE SMOOTH",
"171 721 OFFCURVE",
"62 637 OFFCURVE",
"62 535 CURVE SMOOTH",
"62 487 OFFCURVE",
"94 429 OFFCURVE",
"112 412 CURVE SMOOTH",
"127 397 OFFCURVE",
"127 382 OFFCURVE",
"111 370 CURVE SMOOTH",
"68 331 OFFCURVE",
"37 275 OFFCURVE",
"37 213 CURVE SMOOTH"
);
},
{
closed = 1;
nodes = (
"247 429 OFFCURVE",
"199 470 OFFCURVE",
"199 522 CURVE SMOOTH",
"199 572 OFFCURVE",
"247 613 OFFCURVE",
"306 613 CURVE SMOOTH",
"364 613 OFFCURVE",
"412 572 OFFCURVE",
"412 522 CURVE SMOOTH",
"412 470 OFFCURVE",
"364 429 OFFCURVE",
"306 429 CURVE SMOOTH"
);
},
{
closed = 1;
nodes = (
"232 95 OFFCURVE",
"172 147 OFFCURVE",
"172 212 CURVE SMOOTH",
"172 275 OFFCURVE",
"232 327 OFFCURVE",
"306 327 CURVE SMOOTH",
"379 327 OFFCURVE",
"439 275 OFFCURVE",
"439 212 CURVE SMOOTH",
"439 147 OFFCURVE",
"379 95 OFFCURVE",
"306 95 CURVE SMOOTH"
);
}
);
width = 600;
}
);
unicode = 0038;
},
{
glyphname = nine;
lastChange = "2020-01-05 10:20:47 +0000";
layers = (
{
backgroundImage = {
crop = "{{0, 0}, {169, 204}}";
imagePath = images/Numbers/CHERRY_DS_9.jpg;
locked = "1";
transform = "{3.96162, 0, 0, 3.96162, -45, -52}";
};
layerId = "321F49B6-0EE7-433E-A02E-D3810DADA826";
paths = (
{
closed = 1;
nodes = (
"33 336 OFFCURVE",
"141 228 OFFCURVE",
"273 228 CURVE SMOOTH",
"317 228 OFFCURVE",
"360 240 OFFCURVE",
"396 261 CURVE SMOOTH",
"406 268 OFFCURVE",
"419 263 OFFCURVE",
"419 251 CURVE SMOOTH",
"421 184 OFFCURVE",
"367 116 OFFCURVE",
"293 117 CURVE SMOOTH",
"254 117 OFFCURVE",
"213 141 OFFCURVE",
"189 170 CURVE SMOOTH",
"165 199 OFFCURVE",
"130 235 OFFCURVE",
"84 202 CURVE SMOOTH",
"55 181 OFFCURVE",
"54 124 OFFCURVE",
"75 96 CURVE SMOOTH",
"128 25 OFFCURVE",
"226 -4 OFFCURVE",
"307 -4 CURVE SMOOTH",
"534 -4 OFFCURVE",
"571 228 OFFCURVE",
"571 404 CURVE SMOOTH",
"571 618 OFFCURVE",
"439 709 OFFCURVE",
"273 709 CURVE SMOOTH",
"141 709 OFFCURVE",
"33 601 OFFCURVE",
"33 468 CURVE SMOOTH"
);
},
{
closed = 1;
nodes = (
"209 352 OFFCURVE",
"176 405 OFFCURVE",
"176 472 CURVE SMOOTH",
"176 539 OFFCURVE",
"230 593 OFFCURVE",
"298 593 CURVE SMOOTH",
"383 593 OFFCURVE",
"419 539 OFFCURVE",
"419 472 CURVE SMOOTH",
"419 405 OFFCURVE",
"365 350 OFFCURVE",
"298 351 CURVE SMOOTH"
);
}
);
width = 600;
}
);
unicode = 0039;
},
{
glyphname = period;
lastChange = "2020-01-05 10:40:26 +0000";
layers = (
{
layerId = "321F49B6-0EE7-433E-A02E-D3810DADA826";
paths = (
{
closed = 1;
nodes = (
"114 -28 OFFCURVE",
"144 2 OFFCURVE",
"144 40 CURVE SMOOTH",
"144 76 OFFCURVE",
"114 106 OFFCURVE",
"78 106 CURVE SMOOTH",
"40 106 OFFCURVE",
"10 76 OFFCURVE",
"10 40 CURVE SMOOTH",
"10 2 OFFCURVE",
"40 -28 OFFCURVE",
"78 -28 CURVE SMOOTH"
);
}
);
width = 154;
}
);
unicode = 002E;
},
{
glyphname = comma;
lastChange = "2020-01-05 10:41:27 +0000";
layers = (
{
backgroundImage = {
crop = "{{0, 0}, {115, 133}}";
imagePath = "images/CHERRY_DS_LT copy.jpg";
locked = "1";
transform = "{2.29985, 0, 0, 2.29985, -53, -153}";
};
layerId = "321F49B6-0EE7-433E-A02E-D3810DADA826";
paths = (
{
closed = 1;
nodes = (
"10 12 OFFCURVE",
"26 -12 OFFCURVE",
"50 -22 CURVE SMOOTH",
"58 -26 OFFCURVE",
"61 -33 OFFCURVE",
"57 -41 CURVE SMOOTH",
"44 -63 OFFCURVE",
"39 -71 OFFCURVE",
"26 -94 CURVE SMOOTH",
"19 -106 OFFCURVE",
"19 -126 OFFCURVE",
"34 -138 CURVE SMOOTH",
"46 -148 OFFCURVE",
"73 -149 OFFCURVE",
"87 -131 CURVE SMOOTH",
"99 -115 OFFCURVE",
"154 -46 OFFCURVE",
"154 12 CURVE SMOOTH",
"154 50 OFFCURVE",
"137 106 OFFCURVE",
"78 106 CURVE SMOOTH",
"40 106 OFFCURVE",
"10 76 OFFCURVE",
"10 40 CURVE SMOOTH"
);
}
);
width = 164;
}
);
unicode = 002C;
},
{
glyphname = colon;
lastChange = "2020-01-05 11:09:06 +0000";
layers = (
{
layerId = "321F49B6-0EE7-433E-A02E-D3810DADA826";
paths = (
{
closed = 1;
nodes = (
"124 -28 OFFCURVE",
"154 2 OFFCURVE",
"154 40 CURVE SMOOTH",
"154 76 OFFCURVE",
"124 106 OFFCURVE",
"88 106 CURVE SMOOTH",
"50 106 OFFCURVE",
"20 76 OFFCURVE",
"20 40 CURVE SMOOTH",
"20 2 OFFCURVE",
"50 -28 OFFCURVE",
"88 -28 CURVE SMOOTH"
);
},
{
closed = 1;
nodes = (
"124 220 OFFCURVE",
"154 250 OFFCURVE",
"154 288 CURVE SMOOTH",
"154 324 OFFCURVE",
"125 354 OFFCURVE",
"88 354 CURVE SMOOTH",
"50 354 OFFCURVE",
"20 324 OFFCURVE",
"20 288 CURVE SMOOTH",
"20 250 OFFCURVE",
"50 220 OFFCURVE",
"88 220 CURVE SMOOTH"
);
}
);
width = 174;
}
);
unicode = 003A;
},
{
glyphname = semicolon;
lastChange = "2020-01-05 10:44:03 +0000";
layers = (
{
layerId = "321F49B6-0EE7-433E-A02E-D3810DADA826";
paths = (
{
closed = 1;
nodes = (
"20 12 OFFCURVE",
"36 -12 OFFCURVE",
"60 -22 CURVE SMOOTH",
"68 -26 OFFCURVE",
"71 -33 OFFCURVE",
"67 -41 CURVE SMOOTH",
"54 -63 OFFCURVE",
"49 -71 OFFCURVE",
"36 -94 CURVE SMOOTH",
"29 -106 OFFCURVE",
"29 -126 OFFCURVE",
"44 -138 CURVE SMOOTH",
"56 -148 OFFCURVE",
"83 -149 OFFCURVE",
"97 -131 CURVE SMOOTH",
"109 -115 OFFCURVE",
"164 -46 OFFCURVE",
"164 12 CURVE SMOOTH",
"164 50 OFFCURVE",
"147 106 OFFCURVE",
"88 106 CURVE SMOOTH",
"50 106 OFFCURVE",
"20 76 OFFCURVE",
"20 40 CURVE SMOOTH"
);
},
{
closed = 1;
nodes = (
"138 220 OFFCURVE",
"168 250 OFFCURVE",
"168 288 CURVE SMOOTH",
"168 324 OFFCURVE",
"139 354 OFFCURVE",
"102 354 CURVE SMOOTH",
"64 354 OFFCURVE",
"34 324 OFFCURVE",
"34 288 CURVE SMOOTH",
"34 250 OFFCURVE",
"64 220 OFFCURVE",
"102 220 CURVE SMOOTH"
);
}
);
width = 188;
}
);
unicode = 003B;
},
{
glyphname = exclam;
lastChange = "2020-01-05 10:46:33 +0000";
layers = (
{
backgroundImage = {
crop = "{{0, 0}, {108, 218}}";
imagePath = images/CHERRY_DS_1.jpg;
locked = "1";
transform = "{3.41122, 0, 0, 3.41122, -86, -88}";
};
layerId = "321F49B6-0EE7-433E-A02E-D3810DADA826";
paths = (
{
closed = 1;
nodes = (
"124 -28 OFFCURVE",
"154 2 OFFCURVE",
"154 40 CURVE SMOOTH",
"154 76 OFFCURVE",
"124 106 OFFCURVE",
"88 106 CURVE SMOOTH",
"50 106 OFFCURVE",
"20 76 OFFCURVE",
"20 40 CURVE SMOOTH",
"20 2 OFFCURVE",
"50 -28 OFFCURVE",
"88 -28 CURVE SMOOTH"
);
},
{
closed = 1;
nodes = (
"28 188 OFFCURVE",
"54 153 OFFCURVE",
"88 153 CURVE SMOOTH",
"120 153 OFFCURVE",
"146 188 OFFCURVE",
"147 232 CURVE SMOOTH",
"154 522 LINE SMOOTH",
"155 558 OFFCURVE",
"124 588 OFFCURVE",
"88 588 CURVE SMOOTH",
"50 588 OFFCURVE",
"19 558 OFFCURVE",
"20 522 CURVE SMOOTH",
"27 232 LINE SMOOTH"
);
}
);
width = 174;
}
);
unicode = 0021;
},
{
glyphname = question;
lastChange = "2020-01-05 10:42:52 +0000";
layers = (
{
backgroundImage = {
crop = "{{0, 0}, {171, 279}}";
imagePath = "images/CHERRY_DS_SLASH copy.jpg";
locked = "1";
transform = "{3.029, 0, 0, 3.029, -19, -52}";
};
layerId = "321F49B6-0EE7-433E-A02E-D3810DADA826";
paths = (
{
closed = 1;
nodes = (
"243 0 OFFCURVE",
"271 28 OFFCURVE",
"271 63 CURVE SMOOTH",
"271 96 OFFCURVE",
"243 124 OFFCURVE",
"210 124 CURVE SMOOTH",
"175 124 OFFCURVE",
"147 96 OFFCURVE",
"147 63 CURVE SMOOTH",
"147 28 OFFCURVE",
"175 0 OFFCURVE",
"210 0 CURVE SMOOTH"
);
},
{
closed = 1;
nodes = (
"236 166 OFFCURVE",
"253 187 OFFCURVE",
"261 215 CURVE SMOOTH",
"270 247 OFFCURVE",
"276 286 OFFCURVE",
"316 322 CURVE SMOOTH",
"384 383 OFFCURVE",
"451 415 OFFCURVE",
"451 511 CURVE SMOOTH",
"451 609 OFFCURVE",
"385 714 OFFCURVE",
"254 714 CURVE SMOOTH",
"129 714 OFFCURVE",
"59 649 OFFCURVE",
"29 576 CURVE SMOOTH",
"12 535 OFFCURVE",
"20 493 OFFCURVE",
"45 489 CURVE SMOOTH",
"96 481 OFFCURVE",
"106 511 OFFCURVE",
"114 536 CURVE SMOOTH",
"129 583 OFFCURVE",
"179 636 OFFCURVE",
"246 636 CURVE SMOOTH",
"322 636 OFFCURVE",
"362 564 OFFCURVE",
"362 511 CURVE SMOOTH",
"362 440 OFFCURVE",
"298 408 OFFCURVE",
"253 366 CURVE SMOOTH",
"214 330 OFFCURVE",
"188 272 OFFCURVE",
"179 239 CURVE SMOOTH",
"169 203 OFFCURVE",
"183 174 OFFCURVE",
"209 170 CURVE SMOOTH"
);
}
);
width = 471;
}
);
unicode = 003F;
},
{
glyphname = asterisk;
lastChange = "2020-01-05 10:46:06 +0000";
layers = (
{
backgroundImage = {
crop = "{{0, 0}, {203, 199}}";
imagePath = images/Punctuation/CHERRY_DS_8.jpg;
locked = "1";
transform = "{2.293, 0, 0, 2.293, -17, 307}";
};
layerId = "321F49B6-0EE7-433E-A02E-D3810DADA826";
paths = (
{
closed = 1;
nodes = (
"20 507 OFFCURVE",
"42 485 OFFCURVE",
"68 485 CURVE SMOOTH",
"85 485 OFFCURVE",
"108 489 OFFCURVE",
"127 493 CURVE SMOOTH",
"137 495 OFFCURVE",
"142 485 OFFCURVE",
"134 478 CURVE SMOOTH",
"118 465 OFFCURVE",
"101 450 OFFCURVE",
"94 441 CURVE SMOOTH",
"78 418 OFFCURVE",
"84 389 OFFCURVE",
"106 374 CURVE SMOOTH",
"128 359 OFFCURVE",
"158 364 OFFCURVE",
"173 385 CURVE SMOOTH",
"190 409 OFFCURVE",
"198 451 OFFCURVE",
"209 465 CURVE SMOOTH",
"211 467 OFFCURVE",
"215 467 OFFCURVE",
"216 465 CURVE SMOOTH",
"226 451 OFFCURVE",
"236 408 OFFCURVE",
"253 385 CURVE SMOOTH",
"268 364 OFFCURVE",
"298 359 OFFCURVE",
"320 374 CURVE SMOOTH",
"342 389 OFFCURVE",
"348 418 OFFCURVE",
"332 441 CURVE SMOOTH",
"324 453 OFFCURVE",
"297 474 OFFCURVE",
"281 487 CURVE SMOOTH",
"275 492 OFFCURVE",
"277 500 OFFCURVE",
"285 499 CURVE SMOOTH",
"305 495 OFFCURVE",
"335 485 OFFCURVE",
"358 485 CURVE SMOOTH",
"384 485 OFFCURVE",
"406 507 OFFCURVE",
"406 534 CURVE SMOOTH",
"406 560 OFFCURVE",
"385 582 OFFCURVE",
"358 582 CURVE SMOOTH",
"345 582 OFFCURVE",
"317 576 OFFCURVE",
"294 571 CURVE SMOOTH",
"284 569 OFFCURVE",
"279 579 OFFCURVE",
"287 586 CURVE SMOOTH",
"304 600 OFFCURVE",
"325 618 OFFCURVE",
"332 628 CURVE SMOOTH",
"348 651 OFFCURVE",
"342 680 OFFCURVE",
"320 695 CURVE SMOOTH",
"298 710 OFFCURVE",
"268 705 OFFCURVE",
"253 684 CURVE SMOOTH",
"240 666 OFFCURVE",
"228 635 OFFCURVE",
"220 614 CURVE SMOOTH",
"217 605 OFFCURVE",
"206 606 OFFCURVE",
"203 615 CURVE SMOOTH",
"196 636 OFFCURVE",
"185 668 OFFCURVE",
"173 684 CURVE SMOOTH",
"158 705 OFFCURVE",
"128 710 OFFCURVE",
"106 695 CURVE SMOOTH",
"84 680 OFFCURVE",
"78 651 OFFCURVE",
"94 628 CURVE SMOOTH",
"102 616 OFFCURVE",
"130 594 OFFCURVE",
"147 579 CURVE SMOOTH",
"153 574 OFFCURVE",
"150 566 OFFCURVE",
"142 567 CURVE SMOOTH",
"118 572 OFFCURVE",
"83 582 OFFCURVE",
"68 582 CURVE SMOOTH",
"41 582 OFFCURVE",
"20 560 OFFCURVE",
"20 534 CURVE SMOOTH"
);
}
);
width = 426;
}
);
unicode = 002A;
},
{
glyphname = numbersign;
lastChange = "2020-01-05 10:46:23 +0000";
layers = (
{
backgroundImage = {
crop = "{{0, 0}, {267, 209}}";
imagePath = images/Punctuation/CHERRY_DS_3.jpg;
locked = "1";
transform = "{2.58075, 0, 0, 2.58075, -31, 0}";
};
layerId = "321F49B6-0EE7-433E-A02E-D3810DADA826";
paths = (
{
closed = 1;
nodes = (
"20 163 OFFCURVE",
"38 145 OFFCURVE",
"60 145 CURVE SMOOTH",
"92 144 LINE SMOOTH",
"99 144 OFFCURVE",
"105 138 OFFCURVE",
"102 130 CURVE SMOOTH",
"89 96 LINE SMOOTH",
"82 76 OFFCURVE",
"94 57 OFFCURVE",
"118 51 CURVE SMOOTH",
"141 45 OFFCURVE",
"168 59 OFFCURVE",
"175 78 CURVE SMOOTH",
"197 137 LINE SMOOTH",
"198 141 OFFCURVE",
"202 143 OFFCURVE",
"205 143 CURVE SMOOTH",
"291 141 LINE SMOOTH",
"298 141 OFFCURVE",
"304 135 OFFCURVE",
"301 127 CURVE SMOOTH",
"289 96 LINE SMOOTH",
"281 76 OFFCURVE",
"294 57 OFFCURVE",
"318 51 CURVE SMOOTH",
"341 45 OFFCURVE",
"368 59 OFFCURVE",
"375 78 CURVE SMOOTH",
"396 134 LINE SMOOTH",
"397 138 OFFCURVE",
"401 139 OFFCURVE",
"404 139 CURVE SMOOTH",
"539 137 LINE",
"540 137 LINE SMOOTH",
"563 137 OFFCURVE",
"583 157 OFFCURVE",
"583 181 CURVE SMOOTH",
"583 204 OFFCURVE",
"563 224 OFFCURVE",
"540 224 CURVE SMOOTH",
"445 224 LINE SMOOTH",
"437 224 OFFCURVE",
"433 230 OFFCURVE",
"436 238 CURVE SMOOTH",
"459 298 LINE SMOOTH",
"460 302 OFFCURVE",
"464 304 OFFCURVE",
"467 304 CURVE SMOOTH",
"546 301 LINE",
"549 301 LINE SMOOTH",
"572 301 OFFCURVE",
"592 320 OFFCURVE",
"593 344 CURVE SMOOTH",
"594 367 OFFCURVE",
"574 387 OFFCURVE",
"551 388 CURVE",
"549 388 LINE",
"508 389 LINE SMOOTH",
"501 389 OFFCURVE",
"495 395 OFFCURVE",
"498 403 CURVE SMOOTH",
"514 445 LINE SMOOTH",
"522 465 OFFCURVE",
"508 483 OFFCURVE",
"484 487 CURVE SMOOTH",
"459 491 OFFCURVE",
"436 481 OFFCURVE",
"429 462 CURVE SMOOTH",
"404 396 LINE SMOOTH",
"403 392 OFFCURVE",
"399 390 OFFCURVE",
"396 390 CURVE SMOOTH",
"309 392 LINE SMOOTH",
"302 392 OFFCURVE",
"296 398 OFFCURVE",
"299 406 CURVE SMOOTH",
"314 445 LINE SMOOTH",
"321 465 OFFCURVE",
"308 483 OFFCURVE",
"284 487 CURVE SMOOTH",
"259 491 OFFCURVE",
"236 481 OFFCURVE",
"229 462 CURVE SMOOTH",
"205 399 LINE SMOOTH",
"204 395 OFFCURVE",
"200 394 OFFCURVE",
"197 394 CURVE SMOOTH",
"72 396 LINE",
"71 396 LINE SMOOTH",
"49 396 OFFCURVE",
"30 379 OFFCURVE",
"30 358 CURVE SMOOTH",
"30 336 OFFCURVE",
"47 318 OFFCURVE",
"69 317 CURVE SMOOTH",
"158 314 LINE SMOOTH",
"165 314 OFFCURVE",
"170 308 OFFCURVE",
"167 300 CURVE SMOOTH",
"140 229 LINE SMOOTH",
"139 225 OFFCURVE",
"135 224 OFFCURVE",
"132 224 CURVE SMOOTH",
"60 224 LINE SMOOTH",
"38 224 OFFCURVE",
"20 206 OFFCURVE",
"20 185 CURVE SMOOTH"
);
},
{
closed = 1;
nodes = (
"261 305 LINE SMOOTH",
"262 309 OFFCURVE",
"266 311 OFFCURVE",
"269 311 CURVE SMOOTH",
"356 308 LINE SMOOTH",
"363 308 OFFCURVE",
"368 301 OFFCURVE",
"365 294 CURVE SMOOTH",
"340 229 LINE SMOOTH",
"339 225 OFFCURVE",
"335 224 OFFCURVE",
"332 224 CURVE SMOOTH",
"245 224 LINE SMOOTH",
"237 224 OFFCURVE",
"232 230 OFFCURVE",
"235 238 CURVE SMOOTH"
);
}
);
width = 613;
}
);
unicode = 0023;
},
{
glyphname = slash;
lastChange = "2020-01-05 10:43:32 +0000";
layers = (
{
backgroundImage = {
crop = "{{0, 0}, {185, 246}}";
imagePath = images/CHERRY_DS_SLASH.jpg;
locked = "1";
transform = "{3.77608, 0, 0, 3.77608, -71, -116}";
};
layerId = "321F49B6-0EE7-433E-A02E-D3810DADA826";
paths = (
{
closed = 1;
nodes = (
"20 30 OFFCURVE",
"29 -10 OFFCURVE",
"61 -31 CURVE SMOOTH",
"90 -50 OFFCURVE",
"130 -42 OFFCURVE",
"150 -10 CURVE SMOOTH",
"534 577 LINE SMOOTH",
"554 606 OFFCURVE",
"546 646 OFFCURVE",
"515 665 CURVE SMOOTH",
"485 686 OFFCURVE",
"445 677 OFFCURVE",
"427 647 CURVE SMOOTH",
"41 61 LINE SMOOTH"
);
}
);
width = 575;
}
);
unicode = 002F;
},
{
glyphname = backslash;
lastChange = "2020-01-05 10:45:23 +0000";
layers = (
{
layerId = "321F49B6-0EE7-433E-A02E-D3810DADA826";
paths = (
{
closed = 1;
nodes = (
"153 647 LINE SMOOTH",
"135 677 OFFCURVE",
"95 686 OFFCURVE",
"65 665 CURVE SMOOTH",
"34 646 OFFCURVE",
"26 606 OFFCURVE",
"46 577 CURVE SMOOTH",
"430 -10 LINE SMOOTH",
"450 -42 OFFCURVE",
"490 -50 OFFCURVE",
"519 -31 CURVE SMOOTH",
"551 -10 OFFCURVE",
"560 30 OFFCURVE",
"539 61 CURVE SMOOTH"
);
}
);
width = 585;
}
);
unicode = 005C;
},
{
glyphname = parenleft;
lastChange = "2020-01-05 10:45:53 +0000";
layers = (
{
backgroundImage = {
crop = "{{0, 0}, {147, 263}}";
imagePath = images/Punctuation/CHERRY_DS_9.jpg;
locked = "1";
transform = "{3.972, 0, 0, 3.972, -129, -246}";
};
layerId = "321F49B6-0EE7-433E-A02E-D3810DADA826";
paths = (
{
closed = 1;
nodes = (
"166 516 OFFCURVE",
"328 650 OFFCURVE",
"244 711 CURVE SMOOTH",
"152 778 OFFCURVE",
"20 501 OFFCURVE",
"20 274 CURVE SMOOTH",
"20 78 OFFCURVE",
"125 -209 OFFCURVE",
"227 -132 CURVE SMOOTH",
"322 -60 OFFCURVE",
"166 20 OFFCURVE",
"166 290 CURVE SMOOTH"
);
}
);
width = 288;
}
);
unicode = 0028;
},
{
glyphname = parenright;
lastChange = "2020-01-05 10:45:48 +0000";
layers = (
{
layerId = "321F49B6-0EE7-433E-A02E-D3810DADA826";
paths = (
{
closed = 1;
nodes = (
"122 20 OFFCURVE",
"-34 -60 OFFCURVE",
"61 -132 CURVE SMOOTH",
"163 -209 OFFCURVE",
"268 78 OFFCURVE",
"268 274 CURVE SMOOTH",
"268 501 OFFCURVE",
"136 778 OFFCURVE",
"44 711 CURVE SMOOTH",
"-40 650 OFFCURVE",
"122 516 OFFCURVE",
"122 290 CURVE SMOOTH"
);
}
);
width = 288;
}
);
unicode = 0029;
},
{
glyphname = braceleft;
lastChange = "2020-01-05 10:44:49 +0000";
layers = (
{
layerId = "321F49B6-0EE7-433E-A02E-D3810DADA826";
paths = (
{
closed = 1;
nodes = (
"268 642 OFFCURVE",
"169 614 OFFCURVE",
"169 558 CURVE SMOOTH",
"169 506 OFFCURVE",
"198 495 OFFCURVE",
"198 411 CURVE SMOOTH",
"198 320 OFFCURVE",
"136 295 OFFCURVE",
"136 279 CURVE SMOOTH",
"136 265 OFFCURVE",
"194 213 OFFCURVE",
"194 138 CURVE SMOOTH",
"194 18 OFFCURVE",
"163 42 OFFCURVE",
"163 -8 CURVE SMOOTH",
"163 -86 OFFCURVE",
"262 -72 OFFCURVE",
"231 -136 CURVE SMOOTH",
"208 -183 OFFCURVE",
"64 -148 OFFCURVE",
"64 3 CURVE SMOOTH",
"64 62 OFFCURVE",
"102 94 OFFCURVE",
"102 154 CURVE SMOOTH",
"102 202 OFFCURVE",
"20 235 OFFCURVE",
"20 275 CURVE SMOOTH",
"20 320 OFFCURVE",
"98 329 OFFCURVE",
"98 395 CURVE SMOOTH",
"98 458 OFFCURVE",
"63 459 OFFCURVE",
"63 551 CURVE SMOOTH",
"63 647 OFFCURVE",
"205 757 OFFCURVE",
"239 695 CURVE SMOOTH"
);
}
);
width = 264;
}
);
unicode = 007B;
},
{
glyphname = braceright;
lastChange = "2020-01-05 10:44:56 +0000";
layers = (
{
backgroundImage = {
crop = "{{0, 0}, {126, 347}}";
imagePath = images/CHERRY_DS_CLCOLON.jpg;
locked = "1";
transform = "{2.871, 0, 0, 2.871, -62, -235}";
};
layerId = "321F49B6-0EE7-433E-A02E-D3810DADA826";
paths = (
{
closed = 1;
nodes = (
"59 757 OFFCURVE",
"201 647 OFFCURVE",
"201 551 CURVE SMOOTH",
"201 459 OFFCURVE",
"166 458 OFFCURVE",
"166 395 CURVE SMOOTH",
"166 329 OFFCURVE",
"244 320 OFFCURVE",
"244 275 CURVE SMOOTH",
"244 235 OFFCURVE",
"162 202 OFFCURVE",
"162 154 CURVE SMOOTH",
"162 94 OFFCURVE",
"200 62 OFFCURVE",
"200 3 CURVE SMOOTH",
"200 -148 OFFCURVE",
"56 -183 OFFCURVE",
"33 -136 CURVE SMOOTH",
"2 -72 OFFCURVE",
"101 -86 OFFCURVE",
"101 -8 CURVE SMOOTH",
"101 42 OFFCURVE",
"70 18 OFFCURVE",
"70 138 CURVE SMOOTH",
"70 213 OFFCURVE",
"128 265 OFFCURVE",
"128 279 CURVE SMOOTH",
"128 295 OFFCURVE",
"66 320 OFFCURVE",
"66 411 CURVE SMOOTH",
"66 495 OFFCURVE",
"95 506 OFFCURVE",
"95 558 CURVE SMOOTH",
"95 614 OFFCURVE",
"-4 642 OFFCURVE",
"25 695 CURVE SMOOTH"
);
}
);
width = 264;
}
);
unicode = 007D;
},
{
glyphname = bracketleft;
lastChange = "2020-01-05 10:45:12 +0000";
layers = (
{
layerId = "321F49B6-0EE7-433E-A02E-D3810DADA826";
paths = (
{
closed = 1;
nodes = (
"328 -55 OFFCURVE",
"301 -28 OFFCURVE",
"268 -28 CURVE SMOOTH",
"175 -28 LINE SMOOTH",
"161 -28 OFFCURVE",
"150 -17 OFFCURVE",
"150 -3 CURVE SMOOTH",
"150 555 LINE SMOOTH",
"150 569 OFFCURVE",
"161 580 OFFCURVE",
"175 580 CURVE SMOOTH",
"268 580 LINE SMOOTH",
"301 580 OFFCURVE",
"328 608 OFFCURVE",
"328 640 CURVE SMOOTH",
"328 673 OFFCURVE",
"301 700 OFFCURVE",
"268 700 CURVE SMOOTH",
"90 700 LINE SMOOTH",
"58 700 OFFCURVE",
"30 673 OFFCURVE",
"30 640 CURVE SMOOTH",
"30 -88 LINE SMOOTH",
"30 -120 OFFCURVE",
"58 -148 OFFCURVE",
"90 -148 CURVE SMOOTH",
"268 -148 LINE SMOOTH",
"301 -148 OFFCURVE",
"328 -120 OFFCURVE",
"328 -88 CURVE SMOOTH"
);
}
);
width = 348;
}
);
unicode = 005B;
},
{
glyphname = bracketright;
lastChange = "2020-01-05 10:45:04 +0000";
layers = (
{
backgroundImage = {
crop = "{{0, 0}, {127, 278}}";
imagePath = "images/CHERRY_DS_CLCOLON copy.jpg";
locked = "1";
transform = "{3.46, 0, 0, 3.46, -46, -200}";
};
layerId = "321F49B6-0EE7-433E-A02E-D3810DADA826";
paths = (
{
closed = 1;
nodes = (
"20 -120 OFFCURVE",
"47 -148 OFFCURVE",
"80 -148 CURVE SMOOTH",
"258 -148 LINE SMOOTH",
"290 -148 OFFCURVE",
"318 -120 OFFCURVE",
"318 -88 CURVE SMOOTH",
"318 640 LINE SMOOTH",
"318 673 OFFCURVE",
"290 700 OFFCURVE",
"258 700 CURVE SMOOTH",
"80 700 LINE SMOOTH",
"47 700 OFFCURVE",
"20 673 OFFCURVE",
"20 640 CURVE SMOOTH",
"20 608 OFFCURVE",
"47 580 OFFCURVE",
"80 580 CURVE SMOOTH",
"173 580 LINE SMOOTH",
"187 580 OFFCURVE",
"198 569 OFFCURVE",
"198 555 CURVE SMOOTH",
"198 -3 LINE SMOOTH",
"198 -17 OFFCURVE",
"187 -28 OFFCURVE",
"173 -28 CURVE SMOOTH",
"80 -28 LINE SMOOTH",
"47 -28 OFFCURVE",
"20 -55 OFFCURVE",
"20 -88 CURVE SMOOTH"
);
}
);
width = 348;
}
);
unicode = 005D;
},
{
glyphname = hyphen;
lastChange = "2020-01-05 10:45:44 +0000";
layers = (
{
backgroundImage = {
crop = "{{0, 0}, {174, 60}}";
imagePath = "images/CHERRY_DS_DASH copy.jpg";
locked = "1";
transform = "{2.67791, 0, 0, 2.67791, -43, 195}";
};
layerId = "321F49B6-0EE7-433E-A02E-D3810DADA826";
paths = (
{
closed = 1;
nodes = (
"331 240 OFFCURVE",
"350 259 OFFCURVE",
"350 284 CURVE SMOOTH",
"350 308 OFFCURVE",
"331 327 OFFCURVE",
"307 327 CURVE SMOOTH",
"282 327 OFFCURVE",
"263 308 OFFCURVE",
"263 284 CURVE SMOOTH",
"263 259 OFFCURVE",
"282 240 OFFCURVE",
"307 240 CURVE SMOOTH"
);
},
{
closed = 1;
nodes = (
"88 240 OFFCURVE",
"107 259 OFFCURVE",
"107 284 CURVE SMOOTH",
"107 308 OFFCURVE",
"88 327 OFFCURVE",
"64 327 CURVE SMOOTH",
"39 327 OFFCURVE",
"20 308 OFFCURVE",
"20 284 CURVE SMOOTH",
"20 259 OFFCURVE",
"39 240 OFFCURVE",
"64 240 CURVE SMOOTH"
);
},
{
closed = 1;
nodes = (
"65 240 LINE",
"307 240 LINE",
"307 327 LINE",
"65 327 LINE"
);
}
);
width = 370;
}
);
unicode = 002D;
},
{
glyphname = underscore;
lastChange = "2020-01-05 10:45:40 +0000";
layers = (
{
layerId = "321F49B6-0EE7-433E-A02E-D3810DADA826";
paths = (
{
closed = 1;
nodes = (
"471 -133 OFFCURVE",
"490 -114 OFFCURVE",
"490 -89 CURVE SMOOTH",
"490 -65 OFFCURVE",
"471 -46 OFFCURVE",
"447 -46 CURVE SMOOTH",
"422 -46 OFFCURVE",
"403 -65 OFFCURVE",
"403 -89 CURVE SMOOTH",
"403 -114 OFFCURVE",
"422 -133 OFFCURVE",
"447 -133 CURVE SMOOTH"
);
},
{
closed = 1;
nodes = (
"88 -133 OFFCURVE",
"107 -114 OFFCURVE",
"107 -89 CURVE SMOOTH",
"107 -65 OFFCURVE",
"88 -46 OFFCURVE",
"64 -46 CURVE SMOOTH",
"39 -46 OFFCURVE",
"20 -65 OFFCURVE",
"20 -89 CURVE SMOOTH",
"20 -114 OFFCURVE",
"39 -133 OFFCURVE",
"64 -133 CURVE SMOOTH"
);
},
{
closed = 1;
nodes = (
"65 -133 LINE",
"447 -133 LINE",
"447 -46 LINE",
"65 -46 LINE"
);
}
);
width = 510;
}
);
unicode = 005F;
},
{
glyphname = quotedbl;
lastChange = "2020-01-05 10:43:44 +0000";
layers = (
{
backgroundImage = {
crop = "{{0, 0}, {142, 117}}";
imagePath = "images/CHERRY_DS_QUOTE copy.jpg";
locked = "1";
transform = "{2.42188, 0, 0, 2.42188, 4, 443}";
};
layerId = "321F49B6-0EE7-433E-A02E-D3810DADA826";
paths = (
{
closed = 1;
nodes = (
"306 612 OFFCURVE",
"326 632 OFFCURVE",
"326 656 CURVE SMOOTH",
"326 680 OFFCURVE",
"306 700 OFFCURVE",
"282 700 CURVE SMOOTH",
"258 700 OFFCURVE",
"238 680 OFFCURVE",
"238 656 CURVE SMOOTH",
"238 632 OFFCURVE",
"258 612 OFFCURVE",
"282 612 CURVE SMOOTH"
);
},
{
closed = 1;
nodes = (
"306 458 OFFCURVE",
"326 478 OFFCURVE",
"326 502 CURVE SMOOTH",
"326 526 OFFCURVE",
"306 546 OFFCURVE",
"282 546 CURVE SMOOTH",
"258 546 OFFCURVE",
"238 526 OFFCURVE",
"238 502 CURVE SMOOTH",
"238 478 OFFCURVE",
"258 458 OFFCURVE",
"282 458 CURVE SMOOTH"
);
},
{
closed = 1;
nodes = (
"238 502 LINE",
"326 502 LINE",
"326 656 LINE",
"238 656 LINE"
);
},
{
closed = 1;
nodes = (
"88 612 OFFCURVE",
"108 632 OFFCURVE",
"108 656 CURVE SMOOTH",
"108 680 OFFCURVE",
"88 700 OFFCURVE",
"64 700 CURVE SMOOTH",
"40 700 OFFCURVE",
"20 680 OFFCURVE",
"20 656 CURVE SMOOTH",
"20 632 OFFCURVE",
"40 612 OFFCURVE",
"64 612 CURVE SMOOTH"
);
},
{
closed = 1;
nodes = (
"88 458 OFFCURVE",
"108 478 OFFCURVE",
"108 502 CURVE SMOOTH",
"108 526 OFFCURVE",
"88 546 OFFCURVE",
"64 546 CURVE SMOOTH",
"40 546 OFFCURVE",
"20 526 OFFCURVE",
"20 502 CURVE SMOOTH",
"20 478 OFFCURVE",
"40 458 OFFCURVE",
"64 458 CURVE SMOOTH"
);
},
{
closed = 1;
nodes = (
"20 502 LINE",
"108 502 LINE",
"108 656 LINE",
"20 656 LINE"
);
}
);
width = 346;
}
);
unicode = 0022;
},
{
glyphname = quotesingle;
lastChange = "2020-01-05 10:44:23 +0000";
layers = (
{
backgroundImage = {
crop = "{{0, 0}, {77, 119}}";
imagePath = images/CHERRY_DS_QUOTE.jpg;
locked = "1";
transform = "{2.761, 0, 0, 2.761, -41, 421}";
};
layerId = "321F49B6-0EE7-433E-A02E-D3810DADA826";
paths = (
{
closed = 1;
nodes = (
"88 612 OFFCURVE",
"108 632 OFFCURVE",
"108 656 CURVE SMOOTH",
"108 680 OFFCURVE",
"88 700 OFFCURVE",
"64 700 CURVE SMOOTH",
"40 700 OFFCURVE",
"20 680 OFFCURVE",
"20 656 CURVE SMOOTH",
"20 632 OFFCURVE",
"40 612 OFFCURVE",
"64 612 CURVE SMOOTH"
);
},
{
closed = 1;
nodes = (
"88 458 OFFCURVE",
"108 478 OFFCURVE",
"108 502 CURVE SMOOTH",
"108 526 OFFCURVE",
"88 546 OFFCURVE",
"64 546 CURVE SMOOTH",
"40 546 OFFCURVE",
"20 526 OFFCURVE",
"20 502 CURVE SMOOTH",
"20 478 OFFCURVE",
"40 458 OFFCURVE",
"64 458 CURVE SMOOTH"
);
},
{
closed = 1;
nodes = (
"20 502 LINE",
"108 502 LINE",
"108 656 LINE",
"20 656 LINE"
);
}
);
width = 128;
}
);
unicode = 0027;
},
{
glyphname = at;
lastChange = "2020-01-05 10:46:28 +0000";
layers = (
{
backgroundImage = {
crop = "{{0, 0}, {266, 266}}";
imagePath = images/CHERRY_DS_2.jpg;
locked = "1";
transform = "{3.603, 0, 0, 3.603, -137, -156}";
};
layerId = "321F49B6-0EE7-433E-A02E-D3810DADA826";
paths = (
{
closed = 1;
nodes = (
"-20 49 OFFCURVE",
"110 -92 OFFCURVE",
"307 -92 CURVE SMOOTH",
"340 -92 OFFCURVE",
"374 -87 OFFCURVE",
"408 -77 CURVE SMOOTH",
"449 -65 OFFCURVE",
"458 -19 OFFCURVE",
"430 12 CURVE SMOOTH",
"404 40 OFFCURVE",
"367 15 OFFCURVE",
"319 15 CURVE SMOOTH",
"173 15 OFFCURVE",
"93 108 OFFCURVE",
"93 292 CURVE SMOOTH",
"93 457 OFFCURVE",
"232 616 OFFCURVE",
"355 616 CURVE SMOOTH",
"501 616 OFFCURVE",
"607 524 OFFCURVE",
"619 393 CURVE SMOOTH",
"626 314 OFFCURVE",
"570 200 OFFCURVE",
"514 200 CURVE SMOOTH",
"483 200 OFFCURVE",
"433 231 OFFCURVE",
"458 299 CURVE SMOOTH",
"483 366 OFFCURVE",
"543 458 OFFCURVE",
"514 488 CURVE SMOOTH",
"499 503 OFFCURVE",
"482 495 OFFCURVE",
"464 494 CURVE SMOOTH",
"454 493 OFFCURVE",
"445 497 OFFCURVE",
"436 503 CURVE SMOOTH",
"414 516 OFFCURVE",
"401 529 OFFCURVE",
"362 535 CURVE SMOOTH",
"282 547 OFFCURVE",
"214 478 OFFCURVE",
"175 374 CURVE SMOOTH",
"130 253 OFFCURVE",
"156 130 OFFCURVE",
"246 113 CURVE SMOOTH",
"309 101 OFFCURVE",
"341 122 OFFCURVE",
"385 136 CURVE SMOOTH",
"399 140 OFFCURVE",
"413 140 OFFCURVE",
"427 134 CURVE SMOOTH",
"451 123 OFFCURVE",
"470 108 OFFCURVE",
"532 108 CURVE SMOOTH",
"605 108 OFFCURVE",
"715 241 OFFCURVE",
"715 366 CURVE SMOOTH",
"715 590 OFFCURVE",
"555 723 OFFCURVE",
"356 723 CURVE SMOOTH",
"155 723 OFFCURVE",
"-20 522 OFFCURVE",
"-20 299 CURVE SMOOTH"
);
},
{
closed = 1;
nodes = (
"213 207 OFFCURVE",
"215 275 OFFCURVE",
"240 338 CURVE SMOOTH",
"263 395 OFFCURVE",
"302 459 OFFCURVE",
"362 438 CURVE SMOOTH",
"446 408 OFFCURVE",
"406 342 OFFCURVE",
"386 283 CURVE SMOOTH",
"364 219 OFFCURVE",
"326 173 OFFCURVE",
"279 187 CURVE SMOOTH"
);
}
);
width = 735;
}
);
unicode = 0040;
},
{
glyphname = ampersand;
lastChange = "2020-01-05 10:46:12 +0000";
layers = (
{
backgroundImage = {
crop = "{{0, 0}, {168, 205}}";
imagePath = images/CHERRY_DS_7.jpg;
locked = "1";
transform = "{3.91998, 0.01373, -0.01373, 3.91998, -24, -60}";
};
layerId = "321F49B6-0EE7-433E-A02E-D3810DADA826";
paths = (
{
closed = 1;
nodes = (
"20 83 OFFCURVE",
"113 -8 OFFCURVE",
"228 -8 CURVE SMOOTH",
"286 -8 OFFCURVE",
"339 17 OFFCURVE",
"376 56 CURVE SMOOTH",
"396 77 OFFCURVE",
"423 80 OFFCURVE",
"440 56 CURVE SMOOTH",
"456 35 LINE",
"468 14 OFFCURVE",
"490 0 OFFCURVE",
"516 0 CURVE SMOOTH",
"552 0 OFFCURVE",
"582 30 OFFCURVE",
"582 68 CURVE SMOOTH",
"582 88 OFFCURVE",
"573 107 OFFCURVE",
"558 119 CURVE",
"529 154 LINE",
"519 165 OFFCURVE",
"516 181 OFFCURVE",
"521 195 CURVE SMOOTH",
"558 309 LINE SMOOTH",
"566 334 OFFCURVE",
"556 359 OFFCURVE",
"533 369 CURVE SMOOTH",
"509 379 OFFCURVE",
"484 369 OFFCURVE",
"472 346 CURVE SMOOTH",
"440 286 LINE SMOOTH",
"436 278 OFFCURVE",
"426 278 OFFCURVE",
"421 284 CURVE",
"359 350 LINE SMOOTH",
"343 367 OFFCURVE",
"348 388 OFFCURVE",
"368 402 CURVE SMOOTH",
"415 433 OFFCURVE",
"450 487 OFFCURVE",
"450 545 CURVE SMOOTH",
"450 636 OFFCURVE",
"377 709 OFFCURVE",
"286 709 CURVE SMOOTH",
"194 709 OFFCURVE",
"120 636 OFFCURVE",
"120 545 CURVE SMOOTH",
"120 507 OFFCURVE",
"132 473 OFFCURVE",
"153 445 CURVE SMOOTH",
"182 408 OFFCURVE",
"180 397 OFFCURVE",
"138 377 CURVE SMOOTH",
"68 345 OFFCURVE",
"20 277 OFFCURVE",
"20 196 CURVE SMOOTH"
);
},
{
closed = 1;
nodes = (
"189 110 OFFCURVE",
"156 143 OFFCURVE",
"156 184 CURVE SMOOTH",
"156 224 OFFCURVE",
"224 327 OFFCURVE",
"254 298 CURVE SMOOTH",
"280 273 OFFCURVE",
"318 216 OFFCURVE",
"344 184 CURVE SMOOTH",
"370 152 OFFCURVE",
"270 110 OFFCURVE",
"230 110 CURVE SMOOTH"
);
},
{
closed = 1;
nodes = (
"258 466 OFFCURVE",
"240 520 OFFCURVE",
"240 552 CURVE SMOOTH",
"240 584 OFFCURVE",
"267 611 OFFCURVE",
"299 611 CURVE SMOOTH",
"331 611 OFFCURVE",
"358 584 OFFCURVE",
"358 552 CURVE SMOOTH",
"358 520 OFFCURVE",
"322 466 OFFCURVE",
"290 466 CURVE SMOOTH"
);
}
);
width = 602;
}
);
unicode = 0026;
},
{
glyphname = bar;
lastChange = "2020-01-05 10:45:16 +0000";
layers = (
{
backgroundImage = {
crop = "{{0, 0}, {76, 152}}";
imagePath = images/Cherry_DS_PIPE_BACKSLASH.jpg;
locked = "1";
transform = "{6.754, 0, 0, 6.754, -183, -229}";
};
layerId = "321F49B6-0EE7-433E-A02E-D3810DADA826";
paths = (
{
closed = 1;
nodes = (
"128 370 OFFCURVE",
"159 399 OFFCURVE",
"159 439 CURVE SMOOTH",
"159 477 OFFCURVE",
"128 508 OFFCURVE",
"90 508 CURVE SMOOTH",
"51 508 OFFCURVE",
"20 477 OFFCURVE",
"20 439 CURVE SMOOTH",
"20 400 OFFCURVE",
"51 370 OFFCURVE",
"90 370 CURVE SMOOTH"
);
},
{
closed = 1;
nodes = (
"128 597 OFFCURVE",
"159 627 OFFCURVE",
"159 666 CURVE SMOOTH",
"159 704 OFFCURVE",
"128 735 OFFCURVE",
"90 735 CURVE SMOOTH",
"51 735 OFFCURVE",
"20 704 OFFCURVE",
"20 666 CURVE SMOOTH",
"20 627 OFFCURVE",
"51 597 OFFCURVE",
"90 597 CURVE SMOOTH"
);
},
{
closed = 1;
nodes = (
"20 438 LINE",
"159 438 LINE",
"159 666 LINE",
"20 666 LINE"
);
},
{
closed = 1;
nodes = (
"128 -137 OFFCURVE",
"159 -108 OFFCURVE",
"159 -68 CURVE SMOOTH",
"159 -30 OFFCURVE",
"128 1 OFFCURVE",
"90 1 CURVE SMOOTH",
"51 1 OFFCURVE",
"20 -30 OFFCURVE",
"20 -68 CURVE SMOOTH",
"20 -107 OFFCURVE",
"51 -137 OFFCURVE",
"90 -137 CURVE SMOOTH"
);
},
{
closed = 1;
nodes = (
"128 90 OFFCURVE",
"159 120 OFFCURVE",
"159 159 CURVE SMOOTH",
"159 197 OFFCURVE",
"128 228 OFFCURVE",
"90 228 CURVE SMOOTH",
"51 228 OFFCURVE",
"20 197 OFFCURVE",
"20 159 CURVE SMOOTH",
"20 120 OFFCURVE",
"51 90 OFFCURVE",
"90 90 CURVE SMOOTH"
);
},
{
closed = 1;
nodes = (
"20 -69 LINE",
"159 -69 LINE",
"159 159 LINE",
"20 159 LINE"
);
}
);
width = 179;
}
);
unicode = 007C;
},
{
glyphname = dollar;
lastChange = "2020-01-05 10:46:20 +0000";
layers = (
{
backgroundImage = {
crop = "{{0, 0}, {170, 241}}";
imagePath = images/Punctuation/CHERRY_DS_4.jpg;
locked = "1";
transform = "{3.74925, 0, 0, 3.74925, -30, -80}";
};
layerId = "321F49B6-0EE7-433E-A02E-D3810DADA826";
paths = (
{
closed = 1;
nodes = (
"69 56 OFFCURVE",
"144 14 OFFCURVE",
"250 3 CURVE SMOOTH",
"258 2 OFFCURVE",
"263 -1 OFFCURVE",
"266 -7 CURVE SMOOTH",
"272 -15 OFFCURVE",
"282 -21 OFFCURVE",
"293 -21 CURVE SMOOTH",
"303 -21 OFFCURVE",
"313 -15 OFFCURVE",
"319 -7 CURVE SMOOTH",
"322 -3 OFFCURVE",
"326 0 OFFCURVE",
"332 0 CURVE SMOOTH",
"481 10 OFFCURVE",
"548 121 OFFCURVE",
"548 213 CURVE SMOOTH",
"548 305 OFFCURVE",
"485 376 OFFCURVE",
"406 396 CURVE SMOOTH",
"388 400 OFFCURVE",
"364 405 OFFCURVE",
"339 412 CURVE SMOOTH",
"330 414 OFFCURVE",
"325 421 OFFCURVE",
"325 429 CURVE SMOOTH",
"325 554 LINE SMOOTH",
"325 571 OFFCURVE",
"341 583 OFFCURVE",
"356 574 CURVE SMOOTH",
"379 559 OFFCURVE",
"393 538 OFFCURVE",
"402 520 CURVE SMOOTH",
"427 470 OFFCURVE",
"475 475 OFFCURVE",
"504 497 CURVE SMOOTH",
"529 516 OFFCURVE",
"546 577 OFFCURVE",
"492 631 CURVE SMOOTH",
"447 676 OFFCURVE",
"403 700 OFFCURVE",
"341 709 CURVE SMOOTH",
"332 710 OFFCURVE",
"325 718 OFFCURVE",
"325 727 CURVE SMOOTH",
"325 739 LINE SMOOTH",
"325 756 OFFCURVE",
"310 771 OFFCURVE",
"293 771 CURVE SMOOTH",
"275 771 OFFCURVE",
"260 756 OFFCURVE",
"260 739 CURVE SMOOTH",
"260 732 LINE SMOOTH",
"260 722 OFFCURVE",
"253 714 OFFCURVE",
"242 713 CURVE SMOOTH",
"147 703 OFFCURVE",
"34 636 OFFCURVE",
"34 530 CURVE SMOOTH",
"34 380 OFFCURVE",
"149 334 OFFCURVE",
"247 308 CURVE SMOOTH",
"255 305 OFFCURVE",
"260 298 OFFCURVE",
"260 290 CURVE SMOOTH",
"260 132 LINE SMOOTH",
"260 119 OFFCURVE",
"250 110 OFFCURVE",
"237 112 CURVE SMOOTH",
"184 123 OFFCURVE",
"159 157 OFFCURVE",
"148 186 CURVE SMOOTH",
"133 228 OFFCURVE",
"98 244 OFFCURVE",
"61 233 CURVE SMOOTH",
"9 217 OFFCURVE",
"15 168 OFFCURVE",
"31 134 CURVE SMOOTH"
);
},
{
closed = 1;
nodes = (
"164 544 OFFCURVE",
"184 572 OFFCURVE",
"224 585 CURVE SMOOTH",
"244 592 OFFCURVE",
"260 582 OFFCURVE",
"260 569 CURVE SMOOTH",
"260 467 LINE SMOOTH",
"260 450 OFFCURVE",
"245 439 OFFCURVE",
"229 447 CURVE SMOOTH",
"192 464 OFFCURVE",
"164 485 OFFCURVE",
"164 513 CURVE SMOOTH"
);
},
{
closed = 1;
nodes = (
"325 249 LINE SMOOTH",
"325 267 OFFCURVE",
"342 278 OFFCURVE",
"357 269 CURVE SMOOTH",
"391 249 OFFCURVE",
"414 222 OFFCURVE",
"414 190 CURVE SMOOTH",
"414 155 OFFCURVE",
"389 131 OFFCURVE",
"351 119 CURVE SMOOTH",
"337 115 OFFCURVE",
"325 125 OFFCURVE",
"325 139 CURVE SMOOTH"
);
}
);
width = 568;
}
);
unicode = 0024;
},
{
glyphname = plus;
lastChange = "2020-01-05 10:45:32 +0000";
layers = (
{
backgroundImage = {
crop = "{{0, 0}, {204, 580}}";
imagePath = images/CHERRY_DS_EQUAL.jpg;
locked = "1";
transform = "{3.583, 0, 0, 3.583, -98, -1392}";
};
layerId = "321F49B6-0EE7-433E-A02E-D3810DADA826";
paths = (
{
closed = 1;
nodes = (
"20 237 OFFCURVE",
"51 206 OFFCURVE",
"89 206 CURVE SMOOTH",
"185 206 LINE SMOOTH",
"199 206 OFFCURVE",
"210 195 OFFCURVE",
"210 181 CURVE SMOOTH",
"210 85 LINE SMOOTH",
"210 46 OFFCURVE",
"241 16 OFFCURVE",
"280 16 CURVE SMOOTH",
"318 16 OFFCURVE",
"349 46 OFFCURVE",
"349 85 CURVE SMOOTH",
"349 181 LINE SMOOTH",
"349 195 OFFCURVE",
"360 206 OFFCURVE",
"374 206 CURVE SMOOTH",
"470 206 LINE SMOOTH",
"509 206 OFFCURVE",
"539 237 OFFCURVE",
"539 276 CURVE SMOOTH",
"539 314 OFFCURVE",
"510 345 OFFCURVE",
"470 345 CURVE SMOOTH",
"374 345 LINE SMOOTH",
"360 345 OFFCURVE",
"349 356 OFFCURVE",
"349 370 CURVE SMOOTH",
"349 466 LINE SMOOTH",
"349 504 OFFCURVE",
"318 535 OFFCURVE",
"280 535 CURVE SMOOTH",
"241 535 OFFCURVE",
"210 504 OFFCURVE",
"210 466 CURVE SMOOTH",
"210 370 LINE SMOOTH",
"210 356 OFFCURVE",
"199 345 OFFCURVE",
"185 345 CURVE SMOOTH",
"89 345 LINE SMOOTH",
"51 345 OFFCURVE",
"20 314 OFFCURVE",
"20 276 CURVE SMOOTH"
);
}
);
width = 559;
}
);
unicode = 002B;
},
{
glyphname = minus;
lastChange = "2020-01-05 09:29:06 +0000";
layers = (
{
layerId = "321F49B6-0EE7-433E-A02E-D3810DADA826";
paths = (
{
closed = 1;
nodes = (
"559 314 OFFCURVE",
"530 345 OFFCURVE",
"490 345 CURVE SMOOTH",
"452 345 OFFCURVE",
"421 314 OFFCURVE",
"421 276 CURVE SMOOTH",
"421 237 OFFCURVE",
"452 206 OFFCURVE",
"490 206 CURVE SMOOTH",
"529 206 OFFCURVE",
"559 237 OFFCURVE",
"559 276 CURVE SMOOTH"
);
},
{
closed = 1;
nodes = (
"178 314 OFFCURVE",
"148 345 OFFCURVE",
"109 345 CURVE SMOOTH",
"71 345 OFFCURVE",
"40 314 OFFCURVE",
"40 276 CURVE SMOOTH",
"40 237 OFFCURVE",
"71 206 OFFCURVE",
"109 206 CURVE SMOOTH",
"148 206 OFFCURVE",
"178 237 OFFCURVE",
"178 276 CURVE SMOOTH"
);
},
{
closed = 1;
nodes = (
"490 206 LINE",
"490 345 LINE",
"109 345 LINE",
"109 206 LINE"
);
}
);
width = 600;
}
);
unicode = 2212;
},
{
glyphname = multiply;
lastChange = "2020-01-05 09:30:29 +0000";
layers = (
{
layerId = "321F49B6-0EE7-433E-A02E-D3810DADA826";
paths = (
{
closed = 1;
nodes = (
"89 432 OFFCURVE",
"89 388 OFFCURVE",
"116 361 CURVE SMOOTH",
"184 293 LINE SMOOTH",
"193 283 OFFCURVE",
"193 268 OFFCURVE",
"184 258 CURVE SMOOTH",
"116 190 LINE SMOOTH",
"88 162 OFFCURVE",
"89 119 OFFCURVE",
"116 92 CURVE SMOOTH",
"143 65 OFFCURVE",
"186 64 OFFCURVE",
"214 92 CURVE SMOOTH",
"282 160 LINE SMOOTH",
"292 169 OFFCURVE",
"307 169 OFFCURVE",
"317 160 CURVE SMOOTH",
"385 92 LINE SMOOTH",
"413 64 OFFCURVE",
"456 65 OFFCURVE",
"483 92 CURVE SMOOTH",
"510 119 OFFCURVE",
"512 162 OFFCURVE",
"483 190 CURVE SMOOTH",
"415 258 LINE SMOOTH",
"406 268 OFFCURVE",
"406 283 OFFCURVE",
"415 293 CURVE SMOOTH",
"483 361 LINE SMOOTH",
"510 388 OFFCURVE",
"510 432 OFFCURVE",
"483 459 CURVE SMOOTH",
"456 486 OFFCURVE",
"412 486 OFFCURVE",
"385 459 CURVE SMOOTH",
"317 391 LINE SMOOTH",
"307 382 OFFCURVE",
"292 382 OFFCURVE",
"282 391 CURVE SMOOTH",
"214 459 LINE SMOOTH",
"187 486 OFFCURVE",
"143 486 OFFCURVE",
"116 459 CURVE SMOOTH"
);
}
);
width = 600;
}
);
unicode = 00D7;
},
{
glyphname = equal;
lastChange = "2020-01-05 10:45:36 +0000";
layers = (
{
backgroundImage = {
crop = "{{0, 0}, {204, 580}}";
imagePath = images/CHERRY_DS_EQUAL.jpg;
locked = "1";
transform = "{3.76384, 0, 0, 3.76384, -116, -144}";
};
layerId = "321F49B6-0EE7-433E-A02E-D3810DADA826";
paths = (
{
closed = 1;
nodes = (
"539 433 OFFCURVE",
"510 464 OFFCURVE",
"470 464 CURVE SMOOTH",
"432 464 OFFCURVE",
"401 433 OFFCURVE",
"401 395 CURVE SMOOTH",
"401 356 OFFCURVE",
"432 325 OFFCURVE",
"470 325 CURVE SMOOTH",
"509 325 OFFCURVE",
"539 356 OFFCURVE",
"539 395 CURVE SMOOTH"
);
},
{
closed = 1;
nodes = (
"158 433 OFFCURVE",
"128 464 OFFCURVE",
"89 464 CURVE SMOOTH",
"51 464 OFFCURVE",
"20 433 OFFCURVE",
"20 395 CURVE SMOOTH",
"20 356 OFFCURVE",
"51 325 OFFCURVE",
"89 325 CURVE SMOOTH",
"128 325 OFFCURVE",
"158 356 OFFCURVE",
"158 395 CURVE SMOOTH"
);
},
{
closed = 1;
nodes = (
"470 325 LINE",
"470 464 LINE",
"89 464 LINE",
"89 325 LINE"
);
},
{
closed = 1;
nodes = (
"539 168 OFFCURVE",
"510 199 OFFCURVE",
"470 199 CURVE SMOOTH",
"432 199 OFFCURVE",
"401 168 OFFCURVE",
"401 130 CURVE SMOOTH",
"401 91 OFFCURVE",
"432 60 OFFCURVE",
"470 60 CURVE SMOOTH",
"509 60 OFFCURVE",
"539 91 OFFCURVE",
"539 130 CURVE SMOOTH"
);
},
{
closed = 1;
nodes = (
"158 168 OFFCURVE",
"128 199 OFFCURVE",
"89 199 CURVE SMOOTH",
"51 199 OFFCURVE",
"20 168 OFFCURVE",
"20 130 CURVE SMOOTH",
"20 91 OFFCURVE",
"51 60 OFFCURVE",
"89 60 CURVE SMOOTH",
"128 60 OFFCURVE",
"158 91 OFFCURVE",
"158 130 CURVE SMOOTH"
);
},
{
closed = 1;
nodes = (
"470 60 LINE",
"470 199 LINE",
"89 199 LINE",
"89 60 LINE"
);
}
);
width = 559;
}
);
unicode = 003D;
},
{
glyphname = greater;
lastChange = "2020-01-05 10:42:34 +0000";
layers = (
{
backgroundImage = {
crop = "{{0, 0}, {214, 239}}";
imagePath = images/CHERRY_DS_GT.jpg;
locked = "1";
transform = "{2.81703, 0, 0, 2.81703, -22, -65}";
};
layerId = "321F49B6-0EE7-433E-A02E-D3810DADA826";
paths = (
{
closed = 1;
nodes = (
"53 58 OFFCURVE",
"59 29 OFFCURVE",
"79 15 CURVE SMOOTH",
"96 3 OFFCURVE",
"114 9 OFFCURVE",
"133 17 CURVE SMOOTH",
"209 51 OFFCURVE",
"427 155 OFFCURVE",
"463 173 CURVE SMOOTH",
"485 184 OFFCURVE",
"518 207 OFFCURVE",
"518 249 CURVE SMOOTH",
"518 290 OFFCURVE",
"492 314 OFFCURVE",
"464 333 CURVE SMOOTH",
"408 370 OFFCURVE",
"261 468 OFFCURVE",
"159 537 CURVE SMOOTH",
"138 552 OFFCURVE",
"108 549 OFFCURVE",
"96 527 CURVE SMOOTH",
"84 504 OFFCURVE",
"89 477 OFFCURVE",
"107 464 CURVE SMOOTH",
"183 410 OFFCURVE",
"294 334 OFFCURVE",
"388 269 CURVE SMOOTH",
"398 262 OFFCURVE",
"395 249 OFFCURVE",
"383 242 CURVE SMOOTH",
"81 91 OFFCURVE",
"77 90 OFFCURVE",
"68 78 CURVE SMOOTH"
);
}
);
width = 568;
}
);
unicode = 003E;
},
{
glyphname = less;
lastChange = "2020-01-05 10:42:14 +0000";
layers = (
{
layerId = "321F49B6-0EE7-433E-A02E-D3810DADA826";
paths = (
{
closed = 1;
nodes = (
"491 90 OFFCURVE",
"487 91 OFFCURVE",
"185 242 CURVE SMOOTH",
"173 249 OFFCURVE",
"170 262 OFFCURVE",
"180 269 CURVE SMOOTH",
"274 334 OFFCURVE",
"385 410 OFFCURVE",
"461 464 CURVE SMOOTH",
"479 477 OFFCURVE",
"484 504 OFFCURVE",
"472 527 CURVE SMOOTH",
"460 549 OFFCURVE",
"430 552 OFFCURVE",
"409 537 CURVE SMOOTH",
"307 468 OFFCURVE",
"160 370 OFFCURVE",
"104 333 CURVE SMOOTH",
"76 314 OFFCURVE",
"50 290 OFFCURVE",
"50 249 CURVE SMOOTH",
"50 207 OFFCURVE",
"83 184 OFFCURVE",
"105 173 CURVE SMOOTH",
"141 155 OFFCURVE",
"359 51 OFFCURVE",
"435 17 CURVE SMOOTH",
"454 9 OFFCURVE",
"472 3 OFFCURVE",
"489 15 CURVE SMOOTH",
"509 29 OFFCURVE",
"515 58 OFFCURVE",
"500 78 CURVE SMOOTH"
);
}
);
width = 568;
}
);
unicode = 003C;
},
{
glyphname = asciitilde;
lastChange = "2020-01-05 10:53:33 +0000";
layers = (
{
backgroundImage = {
crop = "{{0, 0}, {309, 504}}";
imagePath = images/CHERRY_DS_TILDE.jpg;
locked = "1";
transform = "{1.828, 0, 0, 1.828, -12, -452}";
};
layerId = "321F49B6-0EE7-433E-A02E-D3810DADA826";
paths = (
{
closed = 1;
nodes = (
"499 194 OFFCURVE",
"576 364 OFFCURVE",
"508 364 CURVE SMOOTH",
"450 364 OFFCURVE",
"506 249 OFFCURVE",
"389 249 CURVE SMOOTH",
"297 249 OFFCURVE",
"268 371 OFFCURVE",
"170 371 CURVE SMOOTH",
"73 371 OFFCURVE",
"-25 228 OFFCURVE",
"42 208 CURVE SMOOTH",
"86 195 OFFCURVE",
"78 310 OFFCURVE",
"181 310 CURVE SMOOTH",
"265 310 OFFCURVE",
"291 194 OFFCURVE",
"393 194 CURVE SMOOTH"
);
}
);
width = 554;
}
);
unicode = 007E;
},
{
glyphname = asciicircum;
lastChange = "2020-01-05 12:25:40 +0000";
layers = (
{
backgroundImage = {
crop = "{{0, 0}, {259, 180}}";
imagePath = images/CHERRY_DS_6.jpg;
locked = "1";
transform = "{2.327, 0, 0, 2.327, 0, 315}";
};
layerId = "321F49B6-0EE7-433E-A02E-D3810DADA826";
paths = (
{
closed = 1;
nodes = (
"48 419 OFFCURVE",
"50 392 OFFCURVE",
"68 377 CURVE SMOOTH",
"87 362 OFFCURVE",
"112 364 OFFCURVE",
"129 382 CURVE",
"287 571 LINE SMOOTH",
"296 582 OFFCURVE",
"312 582 OFFCURVE",
"321 571 CURVE SMOOTH",
"479 382 LINE",
"496 364 OFFCURVE",
"521 362 OFFCURVE",
"540 377 CURVE SMOOTH",
"558 392 OFFCURVE",
"560 419 OFFCURVE",
"545 438 CURVE SMOOTH",
"339 684 LINE",
"332 691 LINE",
"327 694 LINE",
"320 699 OFFCURVE",
"312 701 OFFCURVE",
"304 701 CURVE SMOOTH",
"296 701 OFFCURVE",
"288 699 OFFCURVE",
"281 694 CURVE",
"276 691 LINE",
"274 689 OFFCURVE",
"272 687 OFFCURVE",
"270 685 CURVE",
"63 438 LINE SMOOTH"
);
}
);
width = 600;
}
);
unicode = 005E;
},
{
glyphname = percent;
lastChange = "2020-01-05 10:46:16 +0000";
layers = (
{
backgroundImage = {
crop = "{{0, 0}, {200, 215}}";
imagePath = images/Punctuation/CHERRY_DS_5.jpg;
locked = "1";
transform = "{3.852, 0, 0, 3.852, -62, -125}";
};
layerId = "321F49B6-0EE7-433E-A02E-D3810DADA826";
paths = (
{
closed = 1;
nodes = (
"216 332 OFFCURVE",
"284 400 OFFCURVE",
"284 484 CURVE SMOOTH",
"284 568 OFFCURVE",
"216 636 OFFCURVE",
"132 636 CURVE SMOOTH",
"48 636 OFFCURVE",
"-20 568 OFFCURVE",
"-20 484 CURVE SMOOTH",
"-20 400 OFFCURVE",
"48 332 OFFCURVE",
"132 332 CURVE SMOOTH"
);
},
{
closed = 1;
nodes = (
"600 -38 OFFCURVE",
"668 30 OFFCURVE",
"668 114 CURVE SMOOTH",
"668 198 OFFCURVE",
"600 266 OFFCURVE",
"516 266 CURVE SMOOTH",
"432 266 OFFCURVE",
"364 198 OFFCURVE",
"364 114 CURVE SMOOTH",
"364 30 OFFCURVE",
"432 -38 OFFCURVE",
"516 -38 CURVE SMOOTH"
);
},
{
closed = 1;
nodes = (
"101 428 OFFCURVE",
"76 453 OFFCURVE",
"76 484 CURVE SMOOTH",
"76 516 OFFCURVE",
"101 541 OFFCURVE",
"133 541 CURVE SMOOTH",
"164 541 OFFCURVE",
"189 516 OFFCURVE",
"189 484 CURVE SMOOTH",
"189 453 OFFCURVE",
"164 428 OFFCURVE",
"133 428 CURVE SMOOTH"
);
},
{
closed = 1;
nodes = (
"485 58 OFFCURVE",
"460 83 OFFCURVE",
"460 114 CURVE SMOOTH",
"460 146 OFFCURVE",
"485 171 OFFCURVE",
"517 171 CURVE SMOOTH",
"548 171 OFFCURVE",
"573 146 OFFCURVE",
"573 114 CURVE SMOOTH",
"573 83 OFFCURVE",
"548 58 OFFCURVE",
"517 58 CURVE SMOOTH"
);
},
{
closed = 1;
nodes = (
"102 58 OFFCURVE",
"111 22 OFFCURVE",
"140 4 CURVE SMOOTH",
"166 -12 OFFCURVE",
"202 -5 OFFCURVE",
"220 24 CURVE SMOOTH",
"554 560 LINE SMOOTH",
"571 588 OFFCURVE",
"563 622 OFFCURVE",
"534 640 CURVE SMOOTH",
"507 657 OFFCURVE",
"473 648 OFFCURVE",
"456 621 CURVE SMOOTH",
"120 86 LINE SMOOTH"
);
}
);
width = 688;
}
);
unicode = 0025;
},
{
glyphname = grave;
lastChange = "2020-01-05 10:56:00 +0000";
layers = (
{
backgroundImage = {
crop = "{{0, 0}, {309, 504}}";
imagePath = images/CHERRY_DS_TILDE.jpg;
locked = "1";
transform = "{1.974, 0, 0, 1.974, -19, 530}";
};
layerId = "321F49B6-0EE7-433E-A02E-D3810DADA826";
paths = (
{
closed = 1;
nodes = (
"80 710 OFFCURVE",
"84 728 OFFCURVE",
"76 743 CURVE SMOOTH",
"68 758 OFFCURVE",
"49 763 OFFCURVE",
"35 754 CURVE SMOOTH",
"21 745 OFFCURVE",
"15 728 OFFCURVE",
"24 713 CURVE SMOOTH",
"33 698 OFFCURVE",
"50 694 OFFCURVE",
"65 702 CURVE SMOOTH"
);
},
{
closed = 1;
nodes = (
"104 574 LINE",
"156 604 LINE",
"75 743 LINE",
"24 713 LINE"
);
},
{
closed = 1;
nodes = (
"160 570 OFFCURVE",
"165 588 OFFCURVE",
"157 603 CURVE SMOOTH",
"149 618 OFFCURVE",
"130 622 OFFCURVE",
"116 614 CURVE SMOOTH",
"101 605 OFFCURVE",
"96 588 OFFCURVE",
"105 573 CURVE SMOOTH",
"114 558 OFFCURVE",
"131 553 OFFCURVE",
"146 562 CURVE SMOOTH"
);
}
